<?xml version="1.0" encoding="UTF-8"?>
<!DOCTYPE svg PUBLIC "-//W3C//DTD SVG 1.1//EN" "http://www.w3.org/Graphics/SVG/1.1/DTD/svg11.dtd">
<!-- Creator: CorelDRAW -->
<svg xmlns="http://www.w3.org/2000/svg" xml:space="preserve" width="6.82666in" height="6.82666in" style="shape-rendering:geometricPrecision; text-rendering:geometricPrecision; image-rendering:optimizeQuality; fill-rule:evenodd; clip-rule:evenodd"
viewBox="0 0 6.82666 6.82666"
 xmlns:xlink="http://www.w3.org/1999/xlink">
 <defs>
  <style type="text/css">
   <![CDATA[
    .str0 {stroke:#FFFFFE;stroke-width:0.16;stroke-linecap:round;stroke-linejoin:round}
    .fil2 {fill:none}
    .fil0 {fill:#424242}
    .fil1 {fill:#FFFFFE}
   ]]>
  </style>
 </defs>
 <rect class="fil0" width="6.82666" height="6.82666"/>
 <g id="Layer_x0020_1">
  <metadata id="CorelCorpID_0Corel-Layer"/>
  <g id="_501812912">
   <path id="_501812504" class="fil1" d="M2.16458 3.96739l0.658925 0 0.282394 -0.939874 0 -1.38989 -1.22371 0 0 1.38682 0.282394 0.942941zm-0.0435512 -2.0192l0.746031 0 0 0.165161 -0.746031 0 0 -0.165161zm0 0.41465l0.746031 0 0 0.165161 -0.746031 0 0 -0.165161zm0 0.41465l0.746031 0 0 0.165161 -0.746031 0 0 -0.165161z"/>
   <path id="_501813128" class="fil1" d="M1.98425 0.853331l1.01959 0 0 0.847024 -1.01959 0 0 -0.847024zm0.384539 0.14274l0 0.498819 -0.165161 0 0 -0.498819 0.165161 0zm0.415669 0l0 0.498819 -0.165161 0 0 -0.498819 0.165161 0z"/>
   <rect id="_501812744" class="fil1" x="4.44446" y="4.18408" width="0.384632" height="0.538483"/>
   <path id="_501812624" class="fil1" d="M4.32907 4.34256l0.615398 0 0 -0.769264 -0.615398 0 0 0.769264zm0.307701 -0.464579c0.0441535,0 0.0799449,0.0357953 0.0799449,0.0799488 0,0.0441496 -0.0357913,0.0799409 -0.0799449,0.0799409 -0.0441496,0 -0.0799449,-0.0357913 -0.0799449,-0.0799409 0,-0.0441535 0.0357953,-0.0799488 0.0799449,-0.0799488z"/>
   <path id="_501813056" class="fil2 str0" d="M4.63678 3.57329l0 -0.305823c0,-0.304083 -0.248799,-0.552882 -0.552882,-0.552882l0 0c-0.304087,0 -0.552886,0.248799 -0.552886,0.552882 0,0.72913 0,1.45825 0,2.18738 0,0.285161 -0.233319,0.51848 -0.518476,0.51848l0 0c-0.285169,0 -0.518484,-0.233319 -0.518484,-0.51848l0 -1.48648"/>
  </g>
 </g>
</svg>
