<?xml version="1.0" encoding="UTF-8"?>
<!DOCTYPE svg PUBLIC "-//W3C//DTD SVG 1.1//EN" "http://www.w3.org/Graphics/SVG/1.1/DTD/svg11.dtd">
<!-- Creator: CorelDRAW -->
<svg xmlns="http://www.w3.org/2000/svg" xml:space="preserve" width="6.82666in" height="6.82666in" style="shape-rendering:geometricPrecision; text-rendering:geometricPrecision; image-rendering:optimizeQuality; fill-rule:evenodd; clip-rule:evenodd"
viewBox="0 0 6.82666 6.82666"
 xmlns:xlink="http://www.w3.org/1999/xlink">
 <defs>
  <style type="text/css">
   <![CDATA[
    .fil0 {fill:#424242}
    .fil1 {fill:#FFFFFE}
   ]]>
  </style>
 </defs>
 <rect class="fil0" width="6.82666" height="6.82666"/>
 <g id="Layer_x0020_1">
  <metadata id="CorelCorpID_0Corel-Layer"/>
  <path class="fil1" d="M2.21333 0.853331l0.268618 0 0 1.03519c0,0.0441811 0.0358189,0.08 0.08,0.08 0.0441811,0 0.08,-0.0358189 0.08,-0.08l0 -1.03519 0.289055 0 0 1.03519c0,0.0441811 0.0358189,0.08 0.08,0.08 0.0441811,0 0.08,-0.0358189 0.08,-0.08l0 -1.03519 0.289055 0 0 1.03519c0,0.0441811 0.0358189,0.08 0.08,0.08 0.0441811,0 0.08,-0.0358189 0.08,-0.08l0 -1.03519 0.289055 0 0 1.03519c0,0.0441811 0.0358189,0.08 0.08,0.08 0.0441811,0 0.08,-0.0358189 0.08,-0.08l0 -1.03519 0.289059 0 0 1.03519c0,0.0441811 0.0358189,0.08 0.08,0.08 0.0441811,0 0.08,-0.0358189 0.08,-0.08l0 -1.03519 0.289055 0 0 1.03519c0,0.0441811 0.0358189,0.08 0.08,0.08 0.0441811,0 0.08,-0.0358189 0.08,-0.08l0 -1.03519 0.286114 0c0.066,0 0.119996,0.054 0.119996,0.119992l0 1.46177 -3.2 0 0 -1.46177c0,-0.0659961 0.0539921,-0.119992 0.119992,-0.119992zm3.08001 1.74176l0 3.25824c0,0.0659921 -0.0540039,0.119992 -0.119996,0.119992l-3.52001 0c-0.0659921,0 -0.119996,-0.0539961 -0.119996,-0.119992 0,-0.410984 0,-0.987185 0,-1.39817 0.132295,-0.109724 0.480831,-0.417374 0.56,-0.480224 0,-0.207295 0,-0.261366 0,-0.468657 0,-0.00381496 -0.562083,0.0090315 -0.56,-0.0114567 0,-0.223886 0,-0.28778 0,-0.511669l0.46652 -0.388071 3.29348 0zm-1.06876 2.67824c0,0.0441811 0.0358189,0.08 0.08,0.08 0.0441811,0 0.08,-0.0358189 0.08,-0.08l0 -2.12097c0,-0.0441811 -0.0358189,-0.08 -0.08,-0.08 -0.0441811,0 -0.08,0.0358189 -0.08,0.08l0 2.12097zm-0.619988 0c0,0.0441811 0.0358189,0.08 0.08,0.08 0.0441811,0 0.08,-0.0358189 0.08,-0.08l0 -2.12097c0,-0.0441811 -0.0358189,-0.08 -0.08,-0.08 -0.0441811,0 -0.08,0.0358189 -0.08,0.08l0 2.12097zm-0.619988 0c0,0.0441811 0.0358189,0.08 0.08,0.08 0.0441811,0 0.08,-0.0358189 0.08,-0.08l0 -2.12097c0,-0.0441811 -0.0358189,-0.08 -0.08,-0.08 -0.0441811,0 -0.08,0.0358189 -0.08,0.08l0 2.12097z"/>
 </g>
</svg>
