<?xml version="1.0" encoding="UTF-8"?>
<!DOCTYPE svg PUBLIC "-//W3C//DTD SVG 1.1//EN" "http://www.w3.org/Graphics/SVG/1.1/DTD/svg11.dtd">
<!-- Creator: CorelDRAW -->
<svg xmlns="http://www.w3.org/2000/svg" xml:space="preserve" width="6.82666in" height="6.82666in" style="shape-rendering:geometricPrecision; text-rendering:geometricPrecision; image-rendering:optimizeQuality; fill-rule:evenodd; clip-rule:evenodd"
viewBox="0 0 6.82666 6.82666"
 xmlns:xlink="http://www.w3.org/1999/xlink">
 <defs>
  <style type="text/css">
   <![CDATA[
    .fil0 {fill:#424242}
    .fil1 {fill:#FFFFFE}
   ]]>
  </style>
 </defs>
 <rect class="fil0" width="6.82666" height="6.82666"/>
 <g id="Layer_x0020_1">
  <metadata id="CorelCorpID_0Corel-Layer"/>
  <path class="fil1" d="M0.853335 0.853335l5.12 0 0 5.12 -5.12 0 0 -5.12zm0.213331 0.213331l4.69333 0 0 4.69333 -4.69333 0 0 -4.69333zm1.27306 0.324102c0.11452,0 0.207354,0.0928307 0.207354,0.207354 0,0.114516 -0.0928346,0.20735 -0.207354,0.20735 -0.0879331,0 -0.163075,-0.0547323 -0.193224,-0.131988 -0.00457874,0.000854331 -0.00929921,0.00130315 -0.014126,0.00130315l-0.659441 0 -0.246268 0.246276 0 0.446579 0.205138 0 0.310484 -0.310488c0.0138976,-0.014063 0.0331929,-0.0227835 0.0545276,-0.0227835l0.833189 0c0.00482677,0 0.00954724,0.000448819 0.014126,0.00130315 0.0301535,-0.0772598 0.105291,-0.131996 0.193224,-0.131996 0.11452,0 0.207354,0.0928346 0.207354,0.207358 0,0.11452 -0.0928346,0.20735 -0.207354,0.20735 -0.0879291,0 -0.163067,-0.0547323 -0.19322,-0.131984 -0.00457874,0.000854331 -0.00930315,0.00130315 -0.0141299,0.00130315l-0.801441 0 -0.310811 0.310811 3.93701e-006 3.93701e-006c-0.0149685,0.0149685 -0.0345906,0.0224528 -0.0542087,0.0224528l0 3.93701e-006 -0.236882 0 0 0.096622 0.572039 0c0.00482677,0 0.00954724,0.000448819 0.014126,0.00130315 0.0301496,-0.0772559 0.105291,-0.131996 0.193224,-0.131996 0.114524,0 0.207358,0.0928386 0.207358,0.207358 0,0.114516 -0.0928346,0.20735 -0.207358,0.20735 -0.0879331,0 -0.163075,-0.0547323 -0.193224,-0.131988 -0.00457874,0.000854331 -0.00929921,0.00130315 -0.014126,0.00130315l-0.572039 0 0 0.429894 0.873559 0 0.310488 -0.310488c0.0138976,-0.0140669 0.0331929,-0.0227874 0.0545276,-0.0227874l0.382965 0c0.00482677,0 0.00955118,0.000448819 0.0141299,0.00130315 0.0301535,-0.077252 0.105291,-0.131988 0.19322,-0.131988 0.11452,0 0.207354,0.0928346 0.207354,0.207354 0,0.11452 -0.0928346,0.207354 -0.207354,0.207354 -0.0879291,0 -0.163071,-0.0547362 -0.193224,-0.131992 -0.00457874,0.000854331 -0.00929921,0.00130315 -0.014126,0.00130315l-0.351217 0 -0.310815 0.310815 3.93701e-006 3.93701e-006c-0.0149685,0.0149646 -0.0345906,0.0224528 -0.0542087,0.0224528l0 3.93701e-006 -0.905303 0 0 0.11835 0.905303 0 0 3.93701e-006c0.0196181,0 0.0392402,0.00748819 0.0542087,0.0224528l-3.93701e-006 3.93701e-006 0.310815 0.310815 0.351217 0c0.00482677,0 0.00954724,0.000448819 0.014126,0.00130315 0.0301535,-0.0772559 0.105295,-0.131992 0.193224,-0.131992 0.11452,0 0.207354,0.0928346 0.207354,0.207354 0,0.11452 -0.0928346,0.207354 -0.207354,0.207354 -0.0879291,0 -0.163071,-0.0547362 -0.193224,-0.131992 -0.00457874,0.000854331 -0.00929921,0.00130315 -0.014126,0.00130315l-0.382965 0c-0.0213346,0 -0.0406299,-0.00871654 -0.0545276,-0.0227835l-0.310488 -0.310488 -0.873559 0 0 0.42989 0.572039 0c0.00482677,0 0.00955118,0.000448819 0.0141299,0.00130315 0.0301535,-0.077252 0.105291,-0.131984 0.19322,-0.131984 0.114524,0 0.207358,0.0928307 0.207358,0.20735 0,0.11452 -0.0928346,0.207358 -0.207358,0.207358 -0.0879331,0 -0.163075,-0.0547402 -0.193224,-0.131996 -0.00457874,0.000854331 -0.00929921,0.00130315 -0.014126,0.00130315l-0.572039 0 0 0.096622 0.236878 0 0 3.93701e-006c0.0196181,0 0.0392402,0.00748425 0.0542087,0.0224528l-3.93701e-006 3.93701e-006 0.310815 0.310811 0.801441 0c0.00482677,0 0.00955118,0.000448819 0.0141299,0.00130315 0.0301535,-0.077252 0.105291,-0.131984 0.19322,-0.131984 0.11452,0 0.207354,0.0928307 0.207354,0.20735 0,0.114524 -0.0928346,0.207358 -0.207354,0.207358 -0.0879331,0 -0.163071,-0.0547362 -0.193224,-0.131996 -0.00457874,0.000854331 -0.00929921,0.00130315 -0.014126,0.00130315l-0.833189 0c-0.0213346,0 -0.0406299,-0.00872047 -0.0545276,-0.0227835l-0.310488 -0.310488 -0.205134 0 0 0.446579 0.246268 0.246272 0.659441 0c0.00482677,0 0.00954331,0.000448819 0.014122,0.00130315 0.0301535,-0.0772559 0.105295,-0.131988 0.193228,-0.131988 0.11452,0 0.207354,0.0928346 0.207354,0.20735 0,0.114528 -0.0928346,0.207358 -0.207354,0.207358 -0.0879331,0 -0.163075,-0.0547323 -0.193228,-0.131992 -0.00457874,0.000854331 -0.00929528,0.00130315 -0.014122,0.00130315l-0.691185 0c-0.0213346,0 -0.0406299,-0.00872047 -0.0545315,-0.0227874l-0.159992 -0.159996 0 0.477575 4.37334 0 0 -0.477571 -0.159988 0.159992c-0.0139016,0.0140669 -0.0331969,0.0227874 -0.0545315,0.0227874l-0.691185 0c-0.00482677,0 -0.00954724,-0.000448819 -0.014126,-0.00130315 -0.0301535,0.077252 -0.105295,0.131988 -0.193224,0.131988 -0.11452,0 -0.207354,-0.0928346 -0.207354,-0.207354 0,-0.114516 0.0928346,-0.207354 0.207354,-0.207354 0.0879331,0 0.163075,0.0547402 0.193228,0.131992 0.00457874,-0.000854331 0.00929528,-0.00130315 0.014122,-0.00130315l0.659441 0 0.246264 -0.246272 0 -0.446583 -0.205134 0 -0.310484 0.310488c-0.0138976,0.014063 -0.0331929,0.0227835 -0.0545276,0.0227835l-0.833185 0c-0.00482677,0 -0.00955118,-0.000448819 -0.0141299,-0.00130315 -0.0301535,0.0772559 -0.105295,0.131992 -0.193224,0.131992 -0.11452,0 -0.207354,-0.0928346 -0.207354,-0.20735 0,-0.114524 0.0928346,-0.207354 0.207354,-0.207354 0.0879291,0 0.163067,0.0547323 0.19322,0.131988 0.00458268,-0.000854331 0.00930709,-0.00130709 0.0141339,-0.00130709l0.801437 0 0.310811 -0.310811 -3.93701e-006 -3.93701e-006c0.0149685,-0.0149685 0.0345906,-0.0224528 0.0542087,-0.0224528l0 -3.93701e-006 0.236878 0 0 -0.096622 -0.572035 0c-0.00482677,0 -0.00954724,-0.000448819 -0.014126,-0.00130315 -0.0301535,0.0772598 -0.105291,0.131996 -0.193228,0.131996 -0.114516,0 -0.20735,-0.0928386 -0.20735,-0.207354 0,-0.11452 0.0928346,-0.207354 0.20735,-0.207354 0.0879331,0 0.163071,0.0547362 0.193224,0.131988 0.00457874,-0.000854331 0.00930315,-0.00130315 0.0141299,-0.00130315l0.572035 0 0 -0.429894 -0.873555 0 -0.310488 0.310488c-0.0138976,0.0140669 -0.0331929,0.0227874 -0.0545315,0.0227874l-0.382961 0c-0.00482677,0 -0.00955118,-0.000448819 -0.0141299,-0.00130315 -0.0301535,0.077252 -0.105295,0.131988 -0.193224,0.131988 -0.11452,0 -0.20735,-0.0928346 -0.20735,-0.207354 0,-0.114516 0.0928307,-0.207354 0.20735,-0.207354 0.0879331,0 0.163075,0.0547362 0.193228,0.131992 0.00457874,-0.000854331 0.00929921,-0.00130315 0.014126,-0.00130315l0.351217 0 0.310815 -0.310815 -3.93701e-006 -3.93701e-006c0.0149685,-0.0149646 0.0345906,-0.0224528 0.0542087,-0.0224528l0 -3.93701e-006 0.905299 0 0 -0.118346 -0.905299 0 0 -3.93701e-006c-0.0196181,0 -0.0392402,-0.00748819 -0.0542087,-0.0224528l3.93701e-006 -3.93701e-006 -0.310815 -0.310819 -0.351217 0c-0.00482677,0 -0.00954724,-0.000448819 -0.014126,-0.00130315 -0.0301535,0.0772559 -0.105295,0.131992 -0.193228,0.131992 -0.11452,0 -0.20735,-0.0928386 -0.20735,-0.207354 0,-0.114516 0.0928307,-0.207354 0.20735,-0.207354 0.0879331,0 0.163075,0.0547362 0.193228,0.131992 0.00457874,-0.000854331 0.00929921,-0.00130315 0.014126,-0.00130315l0.382961 0c0.0213386,0 0.0406339,0.00871654 0.0545315,0.0227835l0.310488 0.310492 0.873555 0 0 -0.429894 -0.572035 0c-0.00482677,0 -0.00955118,-0.000448819 -0.0141299,-0.00130315 -0.0301535,0.0772559 -0.105291,0.131984 -0.193224,0.131984 -0.114516,0 -0.20735,-0.0928307 -0.20735,-0.207354 0,-0.114516 0.0928346,-0.207354 0.20735,-0.207354 0.087937,0 0.163075,0.0547362 0.193228,0.131996 0.00457874,-0.000854331 0.00929921,-0.00130315 0.014126,-0.00130315l0.572035 0 0 -0.096622 -0.236878 0 0 -3.93701e-006c-0.0196181,0 -0.0392402,-0.00748425 -0.0542087,-0.0224528l3.93701e-006 -3.93701e-006 -0.310811 -0.310811 -0.801437 0c-0.00482677,0 -0.00955118,-0.000452756 -0.0141339,-0.00130709 -0.0301535,0.0772559 -0.105291,0.131988 -0.19322,0.131988 -0.11452,0 -0.207354,-0.0928307 -0.207354,-0.207354 0,-0.114516 0.0928346,-0.20735 0.207354,-0.20735 0.0879291,0 0.163071,0.0547362 0.193224,0.131992 0.00457874,-0.000854331 0.00930315,-0.00130315 0.0141299,-0.00130315l0.833185 0c0.0213346,0 0.0406299,0.00872047 0.0545276,0.0227835l0.310484 0.310488 0.205134 0 0 -0.446583 -0.246264 -0.246272 -0.659441 0c-0.00482677,0 -0.00954331,-0.000448819 -0.014122,-0.00130315 -0.0301535,0.077252 -0.105295,0.131992 -0.193228,0.131992 -0.11452,0 -0.207354,-0.0928386 -0.207354,-0.207354 0,-0.11452 0.0928346,-0.207354 0.207354,-0.207354 0.0879291,0 0.163071,0.0547362 0.193224,0.131988 0.00457874,-0.000854331 0.00929921,-0.00130315 0.014126,-0.00130315l0.691185 0c0.0213346,0 0.0406299,0.00872047 0.0545315,0.0227874l0.159988 0.159992 0 -0.477567 -4.37334 0 0 0.477575 0.159992 -0.159996c0.0139016,-0.0140669 0.0331969,-0.0227874 0.0545315,-0.0227874l0.691185 0c0.00482677,0 0.00954724,0.000448819 0.014126,0.00130315 0.0301496,-0.0772559 0.105291,-0.131988 0.193224,-0.131988z"/>
 </g>
</svg>
