<?xml version="1.0" encoding="UTF-8"?>
<!DOCTYPE svg PUBLIC "-//W3C//DTD SVG 1.1//EN" "http://www.w3.org/Graphics/SVG/1.1/DTD/svg11.dtd">
<!-- Creator: CorelDRAW -->
<svg xmlns="http://www.w3.org/2000/svg" xml:space="preserve" width="6.82666in" height="6.82666in" style="shape-rendering:geometricPrecision; text-rendering:geometricPrecision; image-rendering:optimizeQuality; fill-rule:evenodd; clip-rule:evenodd"
viewBox="0 0 6.82666 6.82666"
 xmlns:xlink="http://www.w3.org/1999/xlink">
 <defs>
  <style type="text/css">
   <![CDATA[
    .fil0 {fill:#424242}
    .fil1 {fill:#FFFFFE;fill-rule:nonzero}
   ]]>
  </style>
 </defs>
 <rect class="fil0" width="6.82666" height="6.82666"/>
 <g id="Layer_x0020_1">
  <metadata id="CorelCorpID_0Corel-Layer"/>
  <g id="_501786824">
   <path id="_501786728" class="fil1" d="M5.89557 3.16879l0.0774528 1.15714 0.000133858 -7.87402e-006c0.00294882,0.0440827 -0.0303976,0.0822165 -0.0744803,0.0851654 -0.00179134,0.00011811 -0.00357087,0.000173228 -0.00534252,0.000173228l0 3.93701e-006 -0.000814961 0 -0.96372 0c-0.0441811,0 -0.08,-0.0358189 -0.08,-0.08 0,-0.00342126 0.000216535,-0.00679134 0.000629921,-0.0100984l0.0774291 -1.15685 0.079689 0.00531102 -0.0798228 -0.00534252c0.00283071,-0.0422913 0.0380394,-0.0746929 0.0798228,-0.0746535l0 -3.93701e-006 0.809035 0c0.0439016,0 0.0795433,0.0353701 0.0799882,0.0791693z"/>
   <path id="_501786704" class="fil1" d="M5.78498 4.28328c0,-0.0589094 -0.0477598,-0.106669 -0.106669,-0.106669 -0.0589094,0 -0.106669,0.0477598 -0.106669,0.106669l0 0.516713c0,0.0589094 0.0477598,0.106669 0.106669,0.106669 0.0589094,0 0.106669,-0.0477598 0.106669,-0.106669l0 -0.516713z"/>
   <path id="_501787112" class="fil1" d="M5.25047 4.28328c0,-0.0589094 -0.0477598,-0.106669 -0.106669,-0.106669 -0.0589094,0 -0.106669,0.0477598 -0.106669,0.106669l0 0.516713c0,0.0589094 0.0477598,0.106669 0.106669,0.106669 0.0589094,0 0.106669,-0.0477598 0.106669,-0.106669l0 -0.516713z"/>
   <path id="_501786464" class="fil1" d="M0.933327 2.63154l0.58161 0c0.0441811,0 0.08,0.0358189 0.08,0.08l0 0.945516c0,0.0441811 -0.0358189,0.08 -0.08,0.08l-0.58161 0c-0.0441811,0 -0.08,-0.0358189 -0.08,-0.08l0 -0.945516c0,-0.0441811 0.0358189,-0.08 0.08,-0.08z"/>
   <path id="_501786440" class="fil1" d="M1.33416 3.65705c0,-0.0736378 -0.0596969,-0.133335 -0.133335,-0.133335 -0.0736378,0 -0.133335,0.0596969 -0.133335,0.133335l0 0.907913c0,0.206724 0.0844724,0.394567 0.220571,0.530665 0.136091,0.136091 0.323937,0.220571 0.530661,0.220571 0.20672,0 0.394563,-0.0844803 0.530654,-0.220571 0.136098,-0.136098 0.220571,-0.323941 0.220571,-0.530665l0 -2.09829c0,-0.0827244 0.0339409,-0.158031 0.0886181,-0.212705 0.0546772,-0.0546772 0.129984,-0.0886181 0.212713,-0.0886181 0.0827244,0 0.158031,0.0339409 0.212709,0.0886181 0.0546772,0.0546732 0.0886181,0.12998 0.0886181,0.212705l0 1.89331c0,0.156335 0.0638661,0.29837 0.166748,0.401252 0.102882,0.102882 0.244921,0.166748 0.401256,0.166748 0.156335,0 0.29837,-0.0638661 0.401252,-0.166748 0.102882,-0.102882 0.166748,-0.244917 0.166748,-0.401252l0 -2.0983c0,-0.133114 0.0545551,-0.254228 0.142441,-0.342118 0.0878858,-0.0878858 0.209,-0.142441 0.342114,-0.142441 0.133114,0 0.254232,0.0545551 0.342118,0.142445 0.0878898,0.0878858 0.142445,0.209 0.142445,0.342114l0 0.907921c0,0.0736378 0.0596969,0.133335 0.133335,0.133335 0.0736378,0 0.133335,-0.0596969 0.133335,-0.133335l0 -0.907921c0,-0.206724 -0.0844764,-0.394567 -0.220571,-0.530657 -0.136091,-0.136094 -0.323937,-0.220571 -0.530661,-0.220571 -0.206724,0 -0.394567,0.0844764 -0.530657,0.220567 -0.136091,0.136094 -0.220567,0.323937 -0.220567,0.530661l0 2.0983c0,0.0827244 -0.0339449,0.158031 -0.088622,0.212709 -0.0546772,0.0546772 -0.129984,0.088622 -0.212709,0.088622 -0.0827244,0 -0.158035,-0.0339449 -0.212713,-0.088622 -0.0546772,-0.0546772 -0.088622,-0.129984 -0.088622,-0.212709l0 -1.89331c0,-0.156339 -0.0638622,-0.29837 -0.166744,-0.401248 -0.102882,-0.102882 -0.244917,-0.166744 -0.401252,-0.166744 -0.156339,0 -0.298374,0.0638622 -0.401256,0.166744 -0.102882,0.102878 -0.166744,0.244909 -0.166744,0.401248l0 2.09829c0,0.133114 -0.0545551,0.254232 -0.142445,0.342122 -0.0878858,0.0878858 -0.209,0.142445 -0.34211,0.142445 -0.133114,0 -0.254232,-0.0545591 -0.342118,-0.142445 -0.0878898,-0.0878898 -0.142445,-0.209008 -0.142445,-0.342122l0 -0.907913z"/>
  </g>
 </g>
</svg>
