<?xml version="1.0" encoding="UTF-8"?>
<!DOCTYPE svg PUBLIC "-//W3C//DTD SVG 1.1//EN" "http://www.w3.org/Graphics/SVG/1.1/DTD/svg11.dtd">
<!-- Creator: CorelDRAW -->
<svg xmlns="http://www.w3.org/2000/svg" xml:space="preserve" width="6.82666in" height="6.82666in" style="shape-rendering:geometricPrecision; text-rendering:geometricPrecision; image-rendering:optimizeQuality; fill-rule:evenodd; clip-rule:evenodd"
viewBox="0 0 6.82666 6.82666"
 xmlns:xlink="http://www.w3.org/1999/xlink">
 <defs>
  <style type="text/css">
   <![CDATA[
    .fil0 {fill:#424242}
    .fil2 {fill:#FFFFFE}
    .fil1 {fill:#FFFFFE;fill-rule:nonzero}
   ]]>
  </style>
 </defs>
 <rect class="fil0" width="6.82666" height="6.82666"/>
 <g id="Layer_x0020_1">
  <metadata id="CorelCorpID_0Corel-Layer"/>
  <g id="_501788336">
   <path id="_501789128" class="fil1" d="M1.02183 3.71217l0.607169 0c0.0440748,0 0.0799528,0.0350906 0.0812323,0.0788543l0.0860984 0.842984 0.000212598 -3.93701e-006c0.00455906,0.0446496 -0.0279409,0.0845472 -0.0725906,0.0891063 -0.00299213,0.000307087 -0.00595669,0.000440945 -0.0088937,0.00042126l-0.780461 0c-0.0448858,0 -0.0812717,-0.0363858 -0.0812717,-0.0812717 0,-0.00487402 0.000429134,-0.00965354 0.00125197,-0.0142913l0.0860787 -0.842768 -0.000216535 -1.9685e-005c0.00429528,-0.0420591 0.0399449,-0.0733346 0.0813898,-0.0730118z"/>
   <g>
    <path id="_501789320" class="fil1" d="M1.17954 4.64226c0,-0.0448819 -0.0363898,-0.0812677 -0.0812717,-0.0812677 -0.0448819,0 -0.0812677,0.0363858 -0.0812677,0.0812677l0 0.361831c0,0.0448858 0.0363858,0.0812717 0.0812677,0.0812717 0.0448819,0 0.0812717,-0.0363858 0.0812717,-0.0812717l0 -0.361831z"/>
    <path id="_501789032" class="fil1" d="M1.6333 4.64226c0,-0.0448819 -0.0363858,-0.0812677 -0.0812677,-0.0812677 -0.0448819,0 -0.0812717,0.0363858 -0.0812717,0.0812677l0 0.361831c0,0.0448858 0.0363898,0.0812717 0.0812717,0.0812717 0.0448819,0 0.0812677,-0.0363858 0.0812677,-0.0812717l0 -0.361831z"/>
   </g>
   <path id="_501788408" class="fil1" d="M1.1897 3.79344c0,0.0748031 0.0606457,0.135449 0.135449,0.135449 0.0748071,0 0.135453,-0.0606457 0.135453,-0.135449l0 -1.49904c0,-0.14589 0.0597835,-0.278618 0.156094,-0.374925 0.0963071,-0.0963071 0.229035,-0.156091 0.374925,-0.156091 0.14589,0 0.278614,0.0597835 0.374929,0.156091 0.0963071,0.0963071 0.156091,0.229039 0.156091,0.374925l0 2.49163c0,0.150882 0.0616299,0.287953 0.160913,0.387232 0.0992795,0.0992835 0.236346,0.160913 0.387224,0.160913 0.150878,0 0.287945,-0.0616339 0.387232,-0.160913 0.0992795,-0.0992874 0.160913,-0.236354 0.160913,-0.387232l0 -0.786709 -0.000531496 0 -7.87402e-006 -0.00387402c0.000137795,-0.075811 0.0314606,-0.144917 0.0818228,-0.195185 0.0502362,-0.0501417 0.119587,-0.0812638 0.195945,-0.0812638l0.560071 0c0.0748071,0 0.135453,-0.0606457 0.135453,-0.135449 0,-0.0748071 -0.0606457,-0.135453 -0.135453,-0.135453l-0.560071 0c-0.150327,0 -0.287106,0.0615079 -0.386417,0.16063 -0.0992126,0.0990276 -0.160909,0.235902 -0.161189,0.38672l7.87402e-006 0.00387402 -0.000531496 0 0 0.786709c0,0.0760945 -0.0312362,0.145382 -0.0815472,0.195697 -0.050315,0.0503071 -0.119594,0.0815433 -0.195697,0.0815433 -0.0760984,0 -0.145378,-0.0312323 -0.195689,-0.0815433 -0.050315,-0.050311 -0.0815472,-0.119598 -0.0815472,-0.195697l0 -2.49163c0,-0.220665 -0.0901811,-0.421181 -0.235457,-0.566461 -0.145287,-0.14528 -0.345799,-0.235461 -0.566465,-0.235461 -0.220669,0 -0.421185,0.0901811 -0.566465,0.235461 -0.145276,0.14528 -0.235457,0.345791 -0.235457,0.566461l0 1.49904z"/>
   <path id="_501788120" class="fil2" d="M4.45622 3.27389l0.398811 0 0.130075 -0.069378 0.988224 0 0 0.324858 -3.93701e-006 0 -0.422224 0c-0.0299173,0 -0.0541811,0.0242598 -0.0541811,0.0541811 0,0.0299173 0.0242638,0.0541811 0.0541811,0.0541811l0.422224 0 3.93701e-006 0 0 0.324854 -0.986417 0 -0.128272 -0.069374 -0.402421 0 0 -0.619323zm0.31387 0.198661c0,-0.0299213 -0.0242638,-0.0541811 -0.0541811,-0.0541811 -0.0299213,0 -0.0541811,0.0242598 -0.0541811,0.0541811l0 0.222c0,0.0299213 0.0242598,0.0541811 0.0541811,0.0541811 0.0299173,0 0.0541811,-0.0242598 0.0541811,-0.0541811l0 -0.222zm0.287256 -0.0207323c0,-0.0299213 -0.0242638,-0.0541811 -0.0541811,-0.0541811 -0.0299213,0 -0.0541811,0.0242598 -0.0541811,0.0541811l0 0.263461c0,0.0299213 0.0242598,0.0541811 0.0541811,0.0541811 0.0299173,0 0.0541811,-0.0242598 0.0541811,-0.0541811l0 -0.263461z"/>
  </g>
 </g>
</svg>
