<?xml version="1.0" encoding="UTF-8"?>
<!DOCTYPE svg PUBLIC "-//W3C//DTD SVG 1.1//EN" "http://www.w3.org/Graphics/SVG/1.1/DTD/svg11.dtd">
<!-- Creator: CorelDRAW -->
<svg xmlns="http://www.w3.org/2000/svg" xml:space="preserve" width="6.82666in" height="6.82666in" style="shape-rendering:geometricPrecision; text-rendering:geometricPrecision; image-rendering:optimizeQuality; fill-rule:evenodd; clip-rule:evenodd"
viewBox="0 0 6.82666 6.82666"
 xmlns:xlink="http://www.w3.org/1999/xlink">
 <defs>
  <style type="text/css">
   <![CDATA[
    .fil0 {fill:#424242}
    .fil1 {fill:#FFFFFE}
    .fil2 {fill:#FFFFFE;fill-rule:nonzero}
   ]]>
  </style>
 </defs>
 <rect class="fil0" width="6.82666" height="6.82666"/>
 <g id="Layer_x0020_1">
  <metadata id="CorelCorpID_0Corel-Layer"/>
  <g id="_501793280">
   <path id="_501794000" class="fil1" d="M3.41333 1.10782c1.00147,0 1.81333,0.811858 1.81333,1.81333 0,1.00147 -0.811858,1.81333 -1.81333,1.81333 -1.00148,0 -1.81333,-0.811858 -1.81333,-1.81333 0,-1.00148 0.811858,-1.81333 1.81333,-1.81333zm0 1.2c0.169358,0 0.322697,0.0686535 0.433685,0.179646 0.110992,0.110988 0.179646,0.264327 0.179646,0.433685 0,0.169358 -0.0686496,0.322689 -0.179646,0.433685 -0.110988,0.110988 -0.264327,0.179646 -0.433685,0.179646 -0.169358,0 -0.322697,-0.0686575 -0.433685,-0.179646 -0.110996,-0.110996 -0.179646,-0.264327 -0.179646,-0.433685 0,-0.169358 0.0686535,-0.322697 0.179646,-0.433685 0.110988,-0.110992 0.264327,-0.179646 0.433685,-0.179646zm0.320559 0.292772c-0.0820276,-0.0820315 -0.19537,-0.132772 -0.320559,-0.132772 -0.125189,0 -0.238531,0.0507402 -0.320559,0.132772 -0.0820315,0.0820276 -0.132772,0.19537 -0.132772,0.320559 0,0.125189 0.0507402,0.238528 0.132772,0.320559 0.0820276,0.0820276 0.19537,0.132772 0.320559,0.132772 0.125189,0 0.238531,-0.0507441 0.320559,-0.132772 0.0820315,-0.0820315 0.132772,-0.19537 0.132772,-0.320559 0,-0.125189 -0.0507402,-0.238531 -0.132772,-0.320559zm0.437051 -0.85278c0.117823,0 0.213335,0.0955118 0.213335,0.213335 0,0.117823 -0.0955118,0.213335 -0.213335,0.213335 -0.117823,0 -0.213335,-0.0955118 -0.213335,-0.213335 0,-0.117823 0.0955118,-0.213335 0.213335,-0.213335zm-0.610394 0.900795c0.0752598,0 0.136268,0.0610079 0.136268,0.136268 0,0.0752638 -0.0610079,0.136272 -0.136268,0.136272 -0.0752638,0 -0.136272,-0.0610079 -0.136272,-0.136272 0,-0.0752598 0.0610079,-0.136268 0.136272,-0.136268z"/>
   <path id="_501793664" class="fil2" d="M4.22709 4.33629c0,-0.192476 -0.690004,-0.133335 -0.813756,-0.133335 -0.449421,0 -0.813756,0.0596969 -0.813756,0.133335l0 1.24065c0,0.0736378 0.364335,0.133335 0.813756,0.133335 0.123752,0 0.813756,0.0591417 0.813756,-0.133335l0 -1.24065z"/>
   <polygon id="_501793784" class="fil2" points="0.853331,5.44359 5.97333,5.44359 5.97333,5.71026 0.853331,5.71026 "/>
  </g>
 </g>
</svg>
