<?xml version="1.0" encoding="UTF-8"?>
<!DOCTYPE svg PUBLIC "-//W3C//DTD SVG 1.1//EN" "http://www.w3.org/Graphics/SVG/1.1/DTD/svg11.dtd">
<!-- Creator: CorelDRAW -->
<svg xmlns="http://www.w3.org/2000/svg" xml:space="preserve" width="6.82666in" height="6.82666in" style="shape-rendering:geometricPrecision; text-rendering:geometricPrecision; image-rendering:optimizeQuality; fill-rule:evenodd; clip-rule:evenodd"
viewBox="0 0 6.82666 6.82666"
 xmlns:xlink="http://www.w3.org/1999/xlink">
 <defs>
  <style type="text/css">
   <![CDATA[
    .fil0 {fill:#424242}
    .fil1 {fill:#FFFFFE}
    .fil2 {fill:#FFFFFE;fill-rule:nonzero}
   ]]>
  </style>
 </defs>
 <rect class="fil0" width="6.82666" height="6.82666"/>
 <g id="Layer_x0020_1">
  <metadata id="CorelCorpID_0Corel-Layer"/>
  <g id="_501794048">
   <rect id="_501794288" class="fil1" x="5.27029" y="1.41307" width="0.505684" height="0.391624"/>
   <polygon id="_501794168" class="fil1" points="5.69218,2.97287 5.35408,2.97287 5.20919,2.49062 5.20919,1.77747 5.83707,1.77747 5.83707,2.48905 "/>
   <path id="_501794120" class="fil1" d="M3.83932 3.75009l0.13672 0.738819c0.148563,0.802799 -0.667988,1.48441 -1.48442,1.48441l-7.87402e-006 0c-0.816425,0 -1.63297,-0.68161 -1.48441,-1.48441l0.13672 -0.738819c0.00369291,-0.0199449 0.00761417,-0.0395787 0.0116417,-0.0590709 0.175067,-0.0645984 0.37489,-0.116748 0.592386,-0.153323 0.230665,-0.0387953 0.481535,-0.0600433 0.744236,-0.0600433 0.262441,0 0.513075,0.0212087 0.743543,0.0599213 0.217185,0.0364843 0.416756,0.0884921 0.591665,0.152921 0.0041811,0.019689 0.0082126,0.0395079 0.0119252,0.0595945zm-2.65527 -0.18272c0.209232,-0.819272 0.727535,-1.19441 1.25452,-1.19794l0 1.00129c-0.248524,0.00270866 -0.486961,0.0242165 -0.708209,0.0614252 -0.197713,0.033248 -0.381484,0.0790591 -0.546315,0.135224zm1.36175 -0.19665l0 -0.996874c0.532846,0.0470787 1.05366,0.469366 1.25152,1.1925 -0.164256,-0.0557598 -0.347236,-0.101268 -0.544004,-0.134315 -0.221059,-0.0371339 -0.459248,-0.0586024 -0.70752,-0.0613071zm-0.000559055 0.310598c0,-0.0296102 -0.0240079,-0.0536142 -0.0536142,-0.0536142 -0.0296063,0 -0.0536142,0.0240039 -0.0536142,0.0536142l0 0.456138c0,0.0296063 0.0240079,0.0536142 0.0536142,0.0536142 0.0296063,0 0.0536142,-0.0240079 0.0536142,-0.0536142l0 -0.456138z"/>
   <path id="_501794072" class="fil2" d="M2.62566 2.30209l0 -0.424913c0,-0.207701 0.0850709,-0.396618 0.222114,-0.533665 0.137043,-0.137043 0.325965,-0.222114 0.533661,-0.222114 0.207697,0 0.396614,0.0850709 0.533661,0.222114 0.137043,0.137047 0.222114,0.325965 0.222114,0.533665l0 3.02167c0,0.209134 0.0854606,0.399161 0.223138,0.536839 0.137677,0.137677 0.327709,0.223138 0.536839,0.223138 0.209126,0 0.399161,-0.0854606 0.536835,-0.223138 0.137677,-0.137677 0.223138,-0.327705 0.223138,-0.536839l0 -1.92597c0,-0.0740236 -0.0600079,-0.134031 -0.134031,-0.134031 -0.0740236,0 -0.134035,0.0600079 -0.134035,0.134031l0 1.92597c0,0.135138 -0.0553819,0.258091 -0.144602,0.347311 -0.0892165,0.0892205 -0.212169,0.144602 -0.347303,0.144602 -0.135134,0 -0.258091,-0.0553819 -0.347311,-0.144602 -0.0892205,-0.0892205 -0.144602,-0.212173 -0.144602,-0.347311l0 -3.02167c0,-0.281697 -0.115146,-0.537689 -0.30065,-0.723197 -0.1855,-0.1855 -0.4415,-0.300646 -0.723189,-0.300646 -0.281693,0 -0.537689,0.115146 -0.723193,0.300646 -0.1855,0.185508 -0.300646,0.4415 -0.300646,0.723197l0 0.414831c0.011626,-0.000862205 0.0232953,-0.0015748 0.0350157,-0.00209843 0.0781772,-0.00349213 0.156154,0.000751969 0.233047,0.0121811z"/>
  </g>
 </g>
</svg>
