<?xml version="1.0" encoding="UTF-8"?>
<!DOCTYPE svg PUBLIC "-//W3C//DTD SVG 1.1//EN" "http://www.w3.org/Graphics/SVG/1.1/DTD/svg11.dtd">
<!-- Creator: CorelDRAW -->
<svg xmlns="http://www.w3.org/2000/svg" xml:space="preserve" width="6.82666in" height="6.82666in" style="shape-rendering:geometricPrecision; text-rendering:geometricPrecision; image-rendering:optimizeQuality; fill-rule:evenodd; clip-rule:evenodd"
viewBox="0 0 6.82666 6.82666"
 xmlns:xlink="http://www.w3.org/1999/xlink">
 <defs>
  <style type="text/css">
   <![CDATA[
    .fil0 {fill:#424242}
    .fil1 {fill:#FFFFFE}
   ]]>
  </style>
 </defs>
 <rect class="fil0" width="6.82666" height="6.82666"/>
 <g id="Layer_x0020_1">
  <metadata id="CorelCorpID_0Corel-Layer"/>
  <g id="_501796184">
   <path id="_501796112" class="fil1" d="M1.22858 2.03974l0.615854 0 0.137496 -0.426638c0.0212165,-0.0658268 0.0565787,-0.12574 0.125736,-0.12574l2.61133 0c0.0691575,0 0.104524,0.0599213 0.125736,0.12574l0.137496 0.426638 0.615854 0c0.20639,0 0.375248,0.168858 0.375248,0.375252l0 0.291953 -0.798276 0c-0.0456063,0 -0.0825827,0.0369724 -0.0825827,0.0825787l0 1.89096c0,0.0456063 0.0369764,0.0825827 0.0825827,0.0825827l0.798276 0 0 0.200988c0,0.206382 -0.168858,0.37524 -0.375248,0.37524l-4.3695 0c-0.20639,0 -0.375248,-0.168858 -0.375248,-0.37524l0 -2.54906c0,-0.206394 0.168858,-0.375252 0.375248,-0.375252zm1.7657 0.517209c0.342051,0 0.651732,0.138654 0.875894,0.362815 0.224161,0.224165 0.362815,0.533846 0.362815,0.875898 0,0.342051 -0.138654,0.651732 -0.362815,0.875894 -0.224161,0.224165 -0.533843,0.362815 -0.875894,0.362815 -0.342051,0 -0.651732,-0.13865 -0.875898,-0.362815 -0.224161,-0.224161 -0.362815,-0.533843 -0.362815,-0.875894 0,-0.342051 0.138654,-0.651732 0.362815,-0.875898 0.224165,-0.224161 0.533846,-0.362815 0.875898,-0.362815zm0.759118 0.479591c-0.194268,-0.194268 -0.462661,-0.314429 -0.759118,-0.314429 -0.296457,0 -0.564854,0.120161 -0.759122,0.314429 -0.194268,0.194268 -0.314429,0.462665 -0.314429,0.759122 0,0.296457 0.120161,0.56485 0.314429,0.759118 0.194268,0.194268 0.462665,0.314429 0.759122,0.314429 0.296457,0 0.56485,-0.120161 0.759118,-0.314429 0.194268,-0.194268 0.314429,-0.462661 0.314429,-0.759118 0,-0.296457 -0.120161,-0.564854 -0.314429,-0.759122zm-0.759118 -0.105c0.23861,0 0.454642,0.0967283 0.61102,0.253102 0.156374,0.15637 0.253102,0.372409 0.253102,0.61102 0,0.23861 -0.0967283,0.45465 -0.253102,0.61102 -0.156378,0.156374 -0.372409,0.253102 -0.61102,0.253102 -0.23861,0 -0.45465,-0.0967283 -0.61102,-0.253102 -0.156374,-0.15637 -0.253102,-0.372409 -0.253102,-0.61102 0,-0.23861 0.0967283,-0.45465 0.253102,-0.61102 0.15637,-0.156374 0.372409,-0.253102 0.61102,-0.253102zm0.494244 0.369878c-0.12648,-0.12648 -0.301228,-0.204717 -0.494244,-0.204717 -0.19302,0 -0.367768,0.0782362 -0.494244,0.204717 -0.12648,0.126476 -0.204717,0.301228 -0.204717,0.494244 0,0.19302 0.0782362,0.367768 0.204717,0.494244 0.126476,0.12648 0.301224,0.204717 0.494244,0.204717 0.193016,0 0.367764,-0.0782362 0.494244,-0.204717 0.12648,-0.126476 0.204717,-0.301224 0.204717,-0.494244 0,-0.193016 -0.0782362,-0.367768 -0.204717,-0.494244zm-0.494244 0.0262835c0.129205,0 0.246201,0.0523858 0.33089,0.137067 0.0846811,0.0846929 0.137067,0.201685 0.137067,0.330894 0,0.129213 -0.0523858,0.246201 -0.137067,0.33089 -0.084689,0.0846811 -0.201685,0.137067 -0.33089,0.137067 -0.129217,0 -0.246201,-0.0523858 -0.330894,-0.137067 -0.0846811,-0.084689 -0.137067,-0.201677 -0.137067,-0.33089 0,-0.129209 0.0523858,-0.246201 0.137067,-0.330894 0.0846929,-0.0846811 0.201677,-0.137067 0.330894,-0.137067zm2.97906 -0.455594l0 0.216024 -0.467953 0c-0.0456063,0 -0.0825827,0.0347559 -0.0825827,0.077626 0,0.0428661 0.0369764,0.077626 0.0825827,0.077626l0.467953 0 0 0.224244 -0.467953 0c-0.0456063,0 -0.0825827,0.0347598 -0.0825827,0.077626 0,0.0428701 0.0369764,0.077626 0.0825827,0.077626l0.467953 0 0 0.224248 -0.467953 0c-0.0456063,0 -0.0825827,0.0347559 -0.0825827,0.077626 0,0.0428701 0.0369764,0.077626 0.0825827,0.077626l0.467953 0 0 0.224244 -0.467953 0c-0.0456063,0 -0.0825827,0.0347559 -0.0825827,0.077626 0,0.0428701 0.0369764,0.077626 0.0825827,0.077626l0.467953 0 0 0.216028 -0.715697 0 0 -1.7258 0.715697 0zm-2.85153 -0.983102l0.583055 0c0.0818937,0 0.148898,0.067 0.148898,0.148894l0 0c0,0.0818937 -0.0670039,0.148898 -0.148898,0.148898l-0.583055 0c-0.0818937,0 -0.148898,-0.0670039 -0.148898,-0.148898l0 0c0,-0.0818937 0.0670039,-0.148894 0.148898,-0.148894z"/>
   <path id="_501796256" class="fil1" d="M1.35833 1.80689l0.180307 0c0.0487402,0 0.0886142,0.0398701 0.0886142,0.0886142l0 0.196531 -0.357535 0 0 -0.196531c0,-0.0487441 0.039874,-0.0886142 0.0886142,-0.0886142z"/>
  </g>
 </g>
</svg>
