<?xml version="1.0" encoding="UTF-8"?>
<!DOCTYPE svg PUBLIC "-//W3C//DTD SVG 1.1//EN" "http://www.w3.org/Graphics/SVG/1.1/DTD/svg11.dtd">
<!-- Creator: CorelDRAW -->
<svg xmlns="http://www.w3.org/2000/svg" xml:space="preserve" width="6.82666in" height="6.82666in" style="shape-rendering:geometricPrecision; text-rendering:geometricPrecision; image-rendering:optimizeQuality; fill-rule:evenodd; clip-rule:evenodd"
viewBox="0 0 6.82666 6.82666"
 xmlns:xlink="http://www.w3.org/1999/xlink">
 <defs>
  <style type="text/css">
   <![CDATA[
    .fil0 {fill:#424242}
    .fil1 {fill:#FFFFFE}
    .fil2 {fill:#FFFFFE;fill-rule:nonzero}
   ]]>
  </style>
 </defs>
 <rect class="fil0" width="6.82666" height="6.82666"/>
 <g id="Layer_x0020_1">
  <metadata id="CorelCorpID_0Corel-Layer"/>
  <g id="_501796640">
   <path id="_501797648" class="fil1" d="M1.23381 2.2788c0.138146,-0.313343 0.523756,-0.222642 0.622531,0l0.0107323 0 0.365024 0 2.36247 0 0.365028 0 0.0107283 0c0.0987756,-0.222642 0.484386,-0.313343 0.622531,0 0.0453701,0.529138 0.332358,2.05837 0.37772,2.5875 0.0497953,0.580866 -0.588799,0.604083 -0.855941,0 -0.260016,-0.587961 -0.135,-0.72678 -0.727114,-0.72678l-2.00079 0c-0.532335,0 -0.440327,0.196783 -0.674705,0.72678 -0.267134,0.604067 -0.905736,0.580866 -0.855941,0 0.0453622,-0.529126 0.33235,-2.05836 0.37772,-2.5875zm2.04859 0.797795l0.346484 0c0.051622,0 0.0938583,0.0422362 0.0938583,0.0938583l0 7.87402e-006c0,0.051622 -0.0422362,0.0938583 -0.0938583,0.0938583l-0.346484 0c-0.051622,0 -0.0938583,-0.0422362 -0.0938583,-0.0938583l0 -7.87402e-006c0,-0.051622 0.0422362,-0.0938583 0.0938583,-0.0938583zm-1.02673 -0.583063c0.195776,0 0.373039,0.0793622 0.501343,0.207665 0.128299,0.128303 0.207665,0.305559 0.207665,0.501343 0,0.195776 -0.0793661,0.373039 -0.207665,0.501343 -0.128303,0.128303 -0.305567,0.207665 -0.501343,0.207665 -0.195783,0 -0.373039,-0.0793622 -0.501343,-0.207665 -0.128303,-0.128303 -0.207665,-0.305567 -0.207665,-0.501343 0,-0.195783 0.0793622,-0.373039 0.207665,-0.501343 0.128303,-0.128303 0.305559,-0.207665 0.501343,-0.207665zm2.34667 0.0533346c0.362122,0 0.655673,0.293551 0.655673,0.655673 0,0.362122 -0.293551,0.655673 -0.655673,0.655673 -0.362122,0 -0.655673,-0.293551 -0.655673,-0.655673 0,-0.362122 0.293551,-0.655673 0.655673,-0.655673z"/>
   <polygon id="_501797504" class="fil1" points="2.13389,2.79155 2.37746,2.79155 2.37746,3.08075 2.66667,3.08075 2.66667,3.32432 2.37746,3.32432 2.37746,3.61353 2.13389,3.61353 2.13389,3.32432 1.84469,3.32432 1.84469,3.08075 2.13389,3.08075 "/>
   <path id="_501797192" class="fil2" d="M3.33357 2.31865c0.000515748,0.0440079 0.0366181,0.0792677 0.080626,0.078752 0.0440079,-0.000515748 0.0792677,-0.0366181 0.078752,-0.080626 -0.000811024,-0.0677087 -0.00151969,-0.135634 -0.0013622,-0.202319 0.000153543,-0.0653858 0.00118504,-0.130858 0.00384646,-0.196114 0.00273622,-0.0671417 0.0322402,-0.127909 0.0781102,-0.171921 0.0454213,-0.0435787 0.107138,-0.0704567 0.174949,-0.0704567l0.451953 0c0.0441811,0 0.08,-0.0358189 0.08,-0.08 0,-0.0441811 -0.0358189,-0.08 -0.08,-0.08l-0.451953 0c-0.110378,0 -0.211134,0.0440433 -0.285571,0.115457 -0.0744685,0.0714528 -0.122378,0.170618 -0.126866,0.280669 -0.00264961,0.0649646 -0.0036811,0.132965 -0.00384646,0.202366 -0.000161417,0.0680866 0.000547244,0.136319 0.0013622,0.204193z"/>
   <g>
    <circle id="_501797528" class="fil1" cx="4.60234" cy="2.89037" r="0.14276"/>
    <circle id="_501796712" class="fil1" cx="4.60234" cy="3.5147" r="0.14276"/>
    <circle id="_501796376" class="fil1" transform="matrix(7.87694E-015 0.297416 -0.297416 7.87694E-015 4.9145 3.20254)" r="0.48"/>
    <circle id="_501797072" class="fil1" transform="matrix(7.87694E-015 0.297416 -0.297416 7.87694E-015 4.29018 3.20254)" r="0.48"/>
   </g>
  </g>
 </g>
</svg>
