<?xml version="1.0" encoding="UTF-8"?>
<!DOCTYPE svg PUBLIC "-//W3C//DTD SVG 1.1//EN" "http://www.w3.org/Graphics/SVG/1.1/DTD/svg11.dtd">
<!-- Creator: CorelDRAW -->
<svg xmlns="http://www.w3.org/2000/svg" xml:space="preserve" width="6.82666in" height="6.82666in" style="shape-rendering:geometricPrecision; text-rendering:geometricPrecision; image-rendering:optimizeQuality; fill-rule:evenodd; clip-rule:evenodd"
viewBox="0 0 6.82666 6.82666"
 xmlns:xlink="http://www.w3.org/1999/xlink">
 <defs>
  <style type="text/css">
   <![CDATA[
    .fil0 {fill:#424242}
    .fil1 {fill:#FFFFFE}
    .fil2 {fill:#FFFFFE;fill-rule:nonzero}
   ]]>
  </style>
 </defs>
 <rect class="fil0" width="6.82666" height="6.82666"/>
 <g id="Layer_x0020_1">
  <metadata id="CorelCorpID_0Corel-Layer"/>
  <g id="_501798800">
   <path id="_501799280" class="fil1" d="M1.07032 3.25133l4.68602 0c0.119346,0 0.216988,0.0976417 0.216988,0.216988l0 1.70661c0,0.119346 -0.0976417,0.216988 -0.216988,0.216988l-4.68602 0c-0.119346,0 -0.216988,-0.0976417 -0.216988,-0.216988l0 -1.70661c0,-0.119346 0.0976417,-0.216988 0.216988,-0.216988zm0.18302 0.283622l0.16 0 0 0.16 -0.16 0 0 -0.16zm0.346665 0l0.16 0 0 0.16 -0.16 0 0 -0.16zm0.346665 0l0.16 0 0 0.16 -0.16 0 0 -0.16zm0.346665 0l0.16 0 0 0.16 -0.16 0 0 -0.16zm0.346665 0l0.16 0 0 0.16 -0.16 0 0 -0.16zm0.346665 0l0.16 0 0 0.16 -0.16 0 0 -0.16zm0.346665 0l0.16 0 0 0.16 -0.16 0 0 -0.16zm0.346665 0l0.16 0 0 0.16 -0.16 0 0 -0.16zm0.346665 0l0.16 0 0 0.16 -0.16 0 0 -0.16zm0.346665 0l0.16 0 0 0.16 -0.16 0 0 -0.16zm0.346665 0l0.16 0 0 0.16 -0.16 0 0 -0.16zm0.346665 0l0.16 0 0 0.16 -0.16 0 0 -0.16zm0.346665 0l0.16 0 0 0.16 -0.16 0 0 -0.16zm-4.15998 0.353335l0.16 0 0 0.16 -0.16 0 0 -0.16zm0.346665 0l0.16 0 0 0.16 -0.16 0 0 -0.16zm0.346665 0l0.16 0 0 0.16 -0.16 0 0 -0.16zm0.346665 0l0.16 0 0 0.16 -0.16 0 0 -0.16zm0.346665 0l0.16 0 0 0.16 -0.16 0 0 -0.16zm0.346665 0l0.16 0 0 0.16 -0.16 0 0 -0.16zm0.346665 0l0.16 0 0 0.16 -0.16 0 0 -0.16zm0.346665 0l0.16 0 0 0.16 -0.16 0 0 -0.16zm0.346665 0l0.16 0 0 0.16 -0.16 0 0 -0.16zm0.346665 0l0.16 0 0 0.16 -0.16 0 0 -0.16zm0.346665 0l0.16 0 0 0.16 -0.16 0 0 -0.16zm0.346665 0l0.16 0 0 0.16 -0.16 0 0 -0.16zm0.346665 0l0.16 0 0 0.16 -0.16 0 0 -0.16zm-4.15998 0.353335l0.16 0 0 0.16 -0.16 0 0 -0.16zm0.346665 0l0.16 0 0 0.16 -0.16 0 0 -0.16zm0.346665 0l0.16 0 0 0.16 -0.16 0 0 -0.16zm0.346665 0l0.16 0 0 0.16 -0.16 0 0 -0.16zm0.346665 0l0.16 0 0 0.16 -0.16 0 0 -0.16zm0.346665 0l0.16 0 0 0.16 -0.16 0 0 -0.16zm0.346665 0l0.16 0 0 0.16 -0.16 0 0 -0.16zm0.346665 0l0.16 0 0 0.16 -0.16 0 0 -0.16zm0.346665 0l0.16 0 0 0.16 -0.16 0 0 -0.16zm0.346665 0l0.16 0 0 0.16 -0.16 0 0 -0.16zm0.346665 0l0.16 0 0 0.16 -0.16 0 0 -0.16zm0.346665 0l0.16 0 0 0.16 -0.16 0 0 -0.16zm0.346665 0l0.16 0 0 0.16 -0.16 0 0 -0.16zm-4.15998 0.353335l0.16 0 0 0.16 -0.16 0 0 -0.16zm0.346665 0l0.16 0 0 0.16 -0.16 0 0 -0.16zm0.346665 0l0.16 0 0 0.16 -0.16 0 0 -0.16zm0.346665 0l0.16 0 0 0.16 -0.16 0 0 -0.16zm0.346665 0l0.16 0 0 0.16 -0.16 0 0 -0.16zm0.346665 0l0.16 0 0 0.16 -0.16 0 0 -0.16zm0.346665 0l0.16 0 0 0.16 -0.16 0 0 -0.16zm0.346665 0l0.16 0 0 0.16 -0.16 0 0 -0.16zm0.346665 0l0.16 0 0 0.16 -0.16 0 0 -0.16zm0.346665 0l0.16 0 0 0.16 -0.16 0 0 -0.16zm0.346665 0l0.16 0 0 0.16 -0.16 0 0 -0.16zm0.346665 0l0.16 0 0 0.16 -0.16 0 0 -0.16zm0.346665 0l0.16 0 0 0.16 -0.16 0 0 -0.16zm-4.15998 0.353335l0.16 0 0 0.16 -0.16 0 0 -0.16zm0.346665 0l0.16 0 0 0.16 -0.16 0 0 -0.16zm0.346665 0l0.16 0 0 0.16 -0.16 0 0 -0.16zm0.346665 0l2.24343 0 0 0.16 -2.24343 0 0 -0.16zm2.42666 0l0.16 0 0 0.16 -0.16 0 0 -0.16zm0.346665 0l0.16 0 0 0.16 -0.16 0 0 -0.16zm0.346665 0l0.16 0 0 0.16 -0.16 0 0 -0.16z"/>
   <path id="_501799184" class="fil2" d="M2.22964 1.59474c0.0441811,0 0.08,-0.0358189 0.08,-0.08 0,-0.0441811 -0.0358189,-0.08 -0.08,-0.08 -0.133799,0 -0.255386,0.0546811 -0.343472,0.142772 -0.0880906,0.0880866 -0.142772,0.209669 -0.142772,0.343469 0,0.133799 0.054685,0.255382 0.142772,0.343472 0.0880906,0.0880866 0.209673,0.142772 0.343472,0.142772l0.774417 0 0 -0.000311024 0.00381102 -7.87402e-006c0.0893937,0.000165354 0.170764,0.0369764 0.229846,0.0961693 0.059,0.0591142 0.0956181,0.140657 0.0956181,0.230382l0 0.551319c0,0.0441811 0.0358189,0.08 0.08,0.08 0.0441811,0 0.08,-0.0358189 0.08,-0.08l0 -0.551319c0,-0.133421 -0.054563,-0.254787 -0.142492,-0.342886 -0.0878819,-0.0880472 -0.209276,-0.142795 -0.342972,-0.143043l-0.00381102 7.87402e-006 0 -0.000311024 -0.774417 0c-0.0896299,0 -0.171177,-0.0367323 -0.230346,-0.0958976 -0.0591654,-0.0591693 -0.0958976,-0.140717 -0.0958976,-0.230346 0,-0.0896299 0.0367283,-0.171177 0.0958976,-0.230343 0.0591654,-0.0591693 0.140717,-0.0958976 0.230346,-0.0958976z"/>
  </g>
 </g>
</svg>
