<?xml version="1.0" encoding="UTF-8"?>
<!DOCTYPE svg PUBLIC "-//W3C//DTD SVG 1.1//EN" "http://www.w3.org/Graphics/SVG/1.1/DTD/svg11.dtd">
<!-- Creator: CorelDRAW -->
<svg xmlns="http://www.w3.org/2000/svg" xml:space="preserve" width="6.82666in" height="6.82666in" style="shape-rendering:geometricPrecision; text-rendering:geometricPrecision; image-rendering:optimizeQuality; fill-rule:evenodd; clip-rule:evenodd"
viewBox="0 0 6.82666 6.82666"
 xmlns:xlink="http://www.w3.org/1999/xlink">
 <defs>
  <style type="text/css">
   <![CDATA[
    .fil0 {fill:#424242}
    .fil2 {fill:#FFFFFE}
    .fil1 {fill:#FFFFFE;fill-rule:nonzero}
   ]]>
  </style>
 </defs>
 <rect class="fil0" width="6.82666" height="6.82666"/>
 <g id="Layer_x0020_1">
  <metadata id="CorelCorpID_0Corel-Layer"/>
  <g id="_501800888">
   <path id="_501801152" class="fil1" d="M1.28321 3.59176c-0.0014252,0.0454291 0.034248,0.0834173 0.0796772,0.0848425 0.0454291,0.00142126 0.0834173,-0.034252 0.0848386,-0.0796811 0.00664567,-0.190559 0.0363268,-0.375197 0.0860866,-0.550701 0.0510984,-0.180236 0.123413,-0.350287 0.213724,-0.506701 0.0228031,-0.0393701 0.00937402,-0.0897756 -0.03,-0.112579 -0.039374,-0.0228031 -0.0897795,-0.00937402 -0.112583,0.03 -0.097185,0.168319 -0.174957,0.351146 -0.22985,0.544764 -0.053063,0.18715 -0.0847441,0.384945 -0.0918937,0.590055zm3.937 -1.1348c-0.0228031,-0.039374 -0.0732087,-0.0528031 -0.112583,-0.03 -0.0393701,0.0228031 -0.0528031,0.0732087 -0.03,0.112579 0.0903307,0.156453 0.162661,0.326555 0.213768,0.50685 0.0497598,0.175551 0.0794291,0.360244 0.0860512,0.550866 0.00142126,0.0454252 0.0394134,0.0811024 0.0848386,0.0796772 0.0454291,-0.00142126 0.0811024,-0.0394134 0.0796811,-0.0848386 -0.00712992,-0.205161 -0.0387992,-0.403012 -0.0918661,-0.59022 -0.0548937,-0.193665 -0.132681,-0.376547 -0.22989,-0.544913z"/>
   <path id="_501801632" class="fil1" d="M1.62258 2.18116c-0.0707087,0.0984803 -0.0507205,0.237512 0.0446457,0.310528 0.0953701,0.0730157 0.230012,0.052374 0.300724,-0.0461024 0.171457,-0.23935 0.391665,-0.435083 0.644256,-0.569382 0.240996,-0.128126 0.512583,-0.200059 0.800374,-0.200059 0.287791,0 0.559382,0.0719291 0.800382,0.200063 0.252587,0.134295 0.472799,0.330035 0.644256,0.569386 0.0707126,0.0984803 0.205354,0.119122 0.300724,0.0461024 0.0953661,-0.0730157 0.115354,-0.212047 0.0446457,-0.310528 -0.210496,-0.293846 -0.481378,-0.534429 -0.792516,-0.699858 -0.30178,-0.160449 -0.640335,-0.25052 -0.997492,-0.25052 -0.357154,0 -0.695713,0.0900709 -0.997484,0.250516 -0.311138,0.165429 -0.58202,0.406008 -0.792516,0.699854z"/>
   <g>
    <path id="_501801032" class="fil2" d="M1.74133 3.34091l0 0c-0.341882,0 -0.621594,0.279717 -0.621594,0.621598l0 0.315535c0,0.341882 0.279713,0.621598 0.621594,0.621598l0 0 0 -1.55873z"/>
    <path id="_501801344" class="fil2" d="M1.12745 3.86858l-0.0798701 0c-0.106839,0 -0.194248,0.0874094 -0.194248,0.194248l0 0.114902c0,0.106839 0.0874094,0.194248 0.194248,0.194248l0.0798701 0 0 -0.503398z"/>
   </g>
   <g>
    <path id="_501800768" class="fil2" d="M5.08533 3.34152l0 0c0.341882,0 0.621594,0.279717 0.621594,0.621598l0 0.315535c0,0.341886 -0.279713,0.621602 -0.621594,0.621602l0 0 0 -1.55874z"/>
    <path id="_501800816" class="fil2" d="M5.69921 3.86919l0.0798701 0c0.106839,0 0.194248,0.0874094 0.194248,0.194248l0 0.114902c0,0.106839 -0.0874094,0.194248 -0.194248,0.194248l-0.0798701 0 0 -0.503398z"/>
   </g>
   <path id="_501800456" class="fil1" d="M1.51108 4.71853c-0.0113976,-0.0440079 -0.0563189,-0.0704331 -0.100323,-0.0590354 -0.0440039,0.0114016 -0.0704331,0.0563189 -0.0590354,0.100323 0.000362205,0.00138583 0.120291,0.480697 0.709677,0.716453 0.0422205,0.0169213 0.0901772,-0.00358268 0.107098,-0.0458031 0.0169252,-0.0422244 -0.00358268,-0.0901772 -0.0458031,-0.107102 -0.511673,-0.204669 -0.611311,-0.603681 -0.611614,-0.604835z"/>
   <ellipse id="_501800216" class="fil2" transform="matrix(1.02404 0.130024 -0.130024 1.02404 2.33532 5.44279)" rx="0.299476" ry="0.144531"/>
  </g>
 </g>
</svg>
