<?xml version="1.0" encoding="UTF-8"?>
<!DOCTYPE svg PUBLIC "-//W3C//DTD SVG 1.1//EN" "http://www.w3.org/Graphics/SVG/1.1/DTD/svg11.dtd">
<!-- Creator: CorelDRAW -->
<svg xmlns="http://www.w3.org/2000/svg" xml:space="preserve" width="6.82666in" height="6.82666in" style="shape-rendering:geometricPrecision; text-rendering:geometricPrecision; image-rendering:optimizeQuality; fill-rule:evenodd; clip-rule:evenodd"
viewBox="0 0 6.82666 6.82666"
 xmlns:xlink="http://www.w3.org/1999/xlink">
 <defs>
  <style type="text/css">
   <![CDATA[
    .fil0 {fill:#424242}
    .fil1 {fill:#FFFFFE}
   ]]>
  </style>
 </defs>
 <rect class="fil0" width="6.82666" height="6.82666"/>
 <g id="Layer_x0020_1">
  <metadata id="CorelCorpID_0Corel-Layer"/>
  <g id="_501802544">
   <path id="_501802592" class="fil1" d="M1.45426 4.40345l0 -3.30226 0.165248 0 0 3.30226 -0.165248 0zm0.31315 0l0 -3.30226 0.165248 0 0 3.30226 -0.165248 0zm0.406535 0l0 -3.30226 0.165252 0 0 3.30226 -0.165252 0zm0.237697 0l0 -3.30226 0.165248 0 0 3.30226 -0.165248 0zm0.31315 0l0 -3.30226 0.165248 0 0 3.30226 -0.165248 0zm0.440673 -1.76949l0 -1.53277 0.165248 0 0 1.38098c-0.038622,0.0216535 -0.0744606,0.048689 -0.106406,0.0806417 -0.0219921,0.0219882 -0.0416535,0.0458307 -0.0588425,0.0711496zm0 1.76949l0 -0.906492c0.017189,0.0253189 0.0368504,0.0491575 0.0588425,0.0711496 0.0319449,0.0319488 0.0677835,0.0589882 0.106406,0.0806417l0 0.754701 -0.165248 0zm1.60838 -3.55012l-3.34241 0 -0.00498031 3.14961e-005 -0.0049685 9.44882e-005 -0.00494882 0.00015748 -0.00493701 0.000220472 -0.00492126 0.000283465 -0.00490551 0.000346457 -0.00488583 0.000405512 -0.00487008 0.00046063 -0.00485433 0.000531496 -0.00483465 0.000586614 -0.0048189 0.000645669 -0.00479921 0.000708661 -0.00478346 0.00076378 -0.00475591 0.000826772 -0.00474409 0.000885827 -0.00472047 0.000937008 -0.00470079 0.001 -0.0046811 0.00105118 -0.00465748 0.00111417 -0.0046378 0.00116929 -0.00461417 0.00122441 -0.00459449 0.00127953 -0.00456693 0.00133465 -0.00454724 0.00138976 -0.00452362 0.00144094 -0.0045 0.0015 -0.00447244 0.00155512 -0.00445276 0.00160236 -0.0044252 0.00166142 -0.00440157 0.00170866 -0.00437008 0.00175984 -0.00435039 0.0018189 -0.0043189 0.0018622 -0.00429528 0.00191732 -0.00426378 0.00196457 -0.00424016 0.00201969 -0.00420866 0.00206693 -0.0041811 0.00211417 -0.00415354 0.00216929 -0.00412598 0.0022126 -0.00409449 0.00225984 -0.00406299 0.00230709 -0.00403543 0.00235827 -0.004 0.00240551 -0.00397244 0.00245276 -0.00394094 0.0025 -0.00390551 0.00253937 -0.00387402 0.00258661 -0.00384252 0.00263386 -0.00380709 0.00267717 -0.00377559 0.00272441 -0.00374409 0.00276772 -0.00370472 0.00281102 -0.00366929 0.00285433 -0.0036378 0.0028937 -0.00360236 0.00293701 -0.00356693 0.00298425 -0.00352756 0.00301969 -0.00349213 0.00306299 -0.00345276 0.0031063 -0.00341732 0.00314567 -0.00338189 0.0031811 -0.00334252 0.00322835 -0.00330315 0.00326378 -0.00326378 0.00330315 -0.00322047 0.00333858 -0.00318898 0.00338189 -0.00314567 0.00341732 -0.00310236 0.00345669 -0.00306299 0.00348819 -0.00302362 0.00352756 -0.00297638 0.00357087 -0.00294094 0.00359843 -0.00289764 0.0036378 -0.00285039 0.00366929 -0.00281102 0.00370866 -0.00276378 0.00374409 -0.00272441 0.00377165 -0.00267717 0.00381102 -0.00263386 0.00384252 -0.00259055 0.00387402 -0.00254331 0.00390551 -0.00249606 0.00394094 -0.00244882 0.00397244 -0.00240551 0.00400394 -0.00235827 0.0040315 -0.00230709 0.00406299 -0.00226378 0.00409055 -0.00221654 0.00412598 -0.00216535 0.00415354 -0.00211417 0.0041811 -0.00206693 0.0042126 -0.00201575 0.00423622 -0.0019685 0.00426772 -0.00191732 0.00429528 -0.00186614 0.00432283 -0.00181102 0.00434646 -0.00176378 0.00437402 -0.0017126 0.00439764 -0.00165748 0.0044252 -0.0016063 0.00444882 -0.00155118 0.00447638 -0.00149606 0.0045 -0.00144488 0.00452362 -0.00138976 0.00454331 -0.00133465 0.0045748 -0.00127953 0.00459055 -0.00122441 0.00461811 -0.00116929 0.0046378 -0.00111417 0.00465748 -0.00105118 0.00467717 -0.001 0.00470079 -0.000940945 0.00472047 -0.000885827 0.00474016 -0.000818898 0.00476378 -0.000767717 0.00477953 -0.000708661 0.00479921 -0.000645669 0.00481496 -0.000590551 0.00483858 -0.000527559 0.00485433 -0.000464567 0.00487008 -0.000405512 0.00488976 -0.000346457 0.00489764 -0.000283465 0.0049252 -0.000220472 0.00493701 -0.00015748 0.00494882 -9.44882e-005 0.00496457 -3.14961e-005 0.00498425 0 3.02461c0,0.106421 0.0434843,0.203118 0.113524,0.273169 0.0700472,0.0700394 0.166748,0.113524 0.273165,0.113524l0.945606 0 1.4512 0 4.72441e-005 0 0 -0.940906 -0.261256 0c-0.128909,0 -0.251602,-0.051252 -0.342693,-0.142343 -0.0910906,-0.0910945 -0.142346,-0.213783 -0.142346,-0.342697l0 -0.319843c0,-0.128913 0.0512559,-0.251602 0.142346,-0.342697 0.0910906,-0.0910906 0.213783,-0.142343 0.342693,-0.142343l1.59351 0 -3.93701e-006 -1.18048 -3.54331e-005 -0.00498425 -9.05512e-005 -0.00496457 -0.000161417 -0.00494882 -0.000216535 -0.00493701 -0.000287402 -0.0049252 -0.00034252 -0.00490551 -0.000405512 -0.00488189 -0.000464567 -0.00487402 -0.000527559 -0.00485039 -0.000590551 -0.00483858 -0.000645669 -0.00481496 -0.000708661 -0.00479921 -0.00076378 -0.00477953 -0.000822835 -0.00476378 -0.00088189 -0.00474409 -0.000944882 -0.00471654 -0.000996063 -0.00470079 -0.00105512 -0.00468504 -0.00111417 -0.00465354 -0.00116535 -0.0046378 -0.00122441 -0.00461811 -0.00127953 -0.00459055 -0.00133858 -0.00457087 -0.00138976 -0.00454724 -0.00144094 -0.00452362 -0.0015 -0.00449606 -0.00155512 -0.00447638 -0.00160236 -0.00444882 -0.00165748 -0.0044252 -0.00170866 -0.00440157 -0.00176378 -0.00437402 -0.00181102 -0.00434646 -0.00187008 -0.00432283 -0.00191339 -0.00429134 -0.0019685 -0.00426772 -0.00201575 -0.00423622 -0.00206693 -0.0042126 -0.00211811 -0.0041811 -0.00216142 -0.00415354 -0.00221654 -0.00412598 -0.00226378 -0.00409055 -0.00230709 -0.00406299 -0.00235827 -0.0040315 -0.00240551 -0.00400394 -0.00245276 -0.00397244 -0.00249213 -0.00394094 -0.00254724 -0.00390551 -0.00258661 -0.00387795 -0.00263386 -0.00383858 -0.00267717 -0.00381102 -0.00272441 -0.00377165 -0.00276772 -0.00374409 -0.00280709 -0.00370866 -0.00285433 -0.00366929 -0.00289764 -0.0036378 -0.00293701 -0.00359843 -0.00298425 -0.00357087 -0.00301969 -0.00352756 -0.00306299 -0.00348819 -0.0031063 -0.00345669 -0.00314567 -0.00341732 -0.0031811 -0.00338189 -0.00322835 -0.00333858 -0.00325984 -0.00330315 -0.00330709 -0.00326378 -0.00333858 -0.00322835 -0.00337795 -0.0031811 -0.00341732 -0.00314567 -0.00345669 -0.0031063 -0.00349213 -0.00306299 -0.00352756 -0.00301969 -0.00356693 -0.00298425 -0.00359843 -0.00293701 -0.0036378 -0.0028937 -0.00366929 -0.00285433 -0.0037126 -0.00281102 -0.00373622 -0.00276772 -0.00377559 -0.00272441 -0.00380709 -0.00267717 -0.00384646 -0.00263386 -0.00387402 -0.00258661 -0.00390551 -0.00253937 -0.00394094 -0.0025 -0.00397244 -0.00245276 -0.004 -0.00240551 -0.0040315 -0.00235827 -0.00406693 -0.00230709 -0.00409055 -0.00225984 -0.00412598 -0.0022126 -0.00415354 -0.00216929 -0.0041811 -0.00211417 -0.00420866 -0.00206693 -0.00424016 -0.00201969 -0.00426772 -0.00196457 -0.00429528 -0.00191732 -0.0043189 -0.0018622 -0.00435039 -0.0018189 -0.00437402 -0.00175984 -0.0043937 -0.00170866 -0.00442913 -0.00166142 -0.00444882 -0.00160236 -0.00447244 -0.00155512 -0.00450394 -0.0015 -0.00452362 -0.00144094 -0.00454331 -0.00138976 -0.00457087 -0.00133465 -0.00459449 -0.00127953 -0.00461811 -0.00122441 -0.00463386 -0.00116929 -0.00465748 -0.00111417 -0.00467717 -0.00105118 -0.00470472 -0.001 -0.00472047 -0.000937008 -0.00474016 -0.000885827 -0.00476378 -0.000826772 -0.00477953 -0.00076378 -0.00479921 -0.000708661 -0.00481496 -0.000645669 -0.00483465 -0.000586614 -0.00485827 -0.000531496 -0.00486614 -0.00046063 -0.00488976 -0.000405512 -0.00490157 -0.000346457 -0.00492126 -0.000283465 -0.00493701 -0.000220472 -0.00495276 -0.00015748 -0.00496457 -9.44882e-005 -0.00498425 -3.14961e-005zm0.386693 2.40513l0 -9.44882e-005 -1.46563 9.44882e-005 1.46563 0zm0 -0.38876l0 -9.44882e-005 -1.46563 9.44882e-005 1.46563 0zm-1.66457 -0.444004l0 -1.3245 0.165252 0 0 1.31926 -0.094185 0c-0.0239567,0 -0.0477008,0.00177165 -0.0710669,0.00523622zm0 1.97776l0 -0.698224c0.0233661,0.0034685 0.0471102,0.00524016 0.0710669,0.00524016l0.094185 0 0 0.692984 -0.165252 0zm0.216799 0l0 -0.692984 0.115476 0 0 0.692984 -0.115476 0zm0 -1.983l0 -1.31926 0.165244 0 0 1.31926 -0.165244 0zm0.357669 0l0 -1.31926 0.165252 0 0 1.31926 -0.165252 0zm0.313146 0l0 -1.31926 0.165252 0 0 1.31926 -0.165252 0zm0.274472 0l0 -1.31926 0.115795 0c0.0171575,0 0.0338661,0.00319685 0.0494567,0.00923622l0 1.31002 -0.165252 0z"/>
   <path id="_501802760" class="fil1" d="M3.91086 3.62785l0 1.99633c0,0.0961102 0.0392598,0.183421 0.1025,0.246657 0.0632402,0.0632402 0.150551,0.1025 0.246657,0.1025l0.426453 0c0.0961102,0 0.183417,-0.0392598 0.246657,-0.1025 0.0632402,-0.0632362 0.102496,-0.150547 0.102496,-0.246657l0 -1.99633 0.343827 0c0.11076,0 0.211406,-0.0452559 0.284303,-0.118157 0.0729055,-0.0729016 0.118161,-0.173547 0.118161,-0.284307l0 -0.319843c0,-0.11076 -0.0452559,-0.211406 -0.118161,-0.284303 -0.0728976,-0.0729016 -0.173543,-0.118157 -0.284303,-0.118157l-1.81242 0c-0.110756,0 -0.211406,0.045252 -0.284303,0.118157 -0.0729016,0.0728976 -0.118161,0.173543 -0.118161,0.284303l0 0.319843c0,0.11076 0.0452598,0.211406 0.118161,0.284307 0.0728976,0.0729055 0.173547,0.118157 0.284303,0.118157l0.343831 0zm1.34071 -0.286815l-1.55667 0c-0.0456299,0 -0.082626,-0.0369961 -0.082626,-0.082626 0,-0.0456299 0.0369961,-0.082626 0.082626,-0.082626l1.55667 0c0.0456339,0 0.082626,0.0369961 0.082626,0.082626 0,0.0456299 -0.0369921,0.082626 -0.082626,0.082626zm0 -0.38876l-1.55667 0c-0.0456299,0 -0.082626,-0.0369921 -0.082626,-0.082626 0,-0.0456299 0.0369961,-0.082622 0.082626,-0.082622l1.55667 0c0.0456339,0 0.082626,0.0369921 0.082626,0.082622 0,0.0456339 -0.0369921,0.082626 -0.082626,0.082626zm-0.778335 1.08408c-0.0620079,0 -0.118169,-0.0251457 -0.158811,-0.0657913 -0.0406417,-0.0406378 -0.0657913,-0.0967913 -0.0657913,-0.158807 0,-0.0620118 0.0251496,-0.118169 0.0657913,-0.158815 0.0406417,-0.0406457 0.0968031,-0.0657874 0.158811,-0.0657874 0.0620157,0 0.118169,0.0251417 0.158815,0.0657874 0.0406417,0.0406457 0.0657874,0.0968031 0.0657874,0.158815 0,0.0620157 -0.0251457,0.118169 -0.0657874,0.158807 -0.0406457,0.0406457 -0.0967992,0.0657913 -0.158815,0.0657913z"/>
  </g>
 </g>
</svg>
