<?xml version="1.0" encoding="UTF-8"?>
<!DOCTYPE svg PUBLIC "-//W3C//DTD SVG 1.1//EN" "http://www.w3.org/Graphics/SVG/1.1/DTD/svg11.dtd">
<!-- Creator: CorelDRAW -->
<svg xmlns="http://www.w3.org/2000/svg" xml:space="preserve" width="6.82666in" height="6.82666in" style="shape-rendering:geometricPrecision; text-rendering:geometricPrecision; image-rendering:optimizeQuality; fill-rule:evenodd; clip-rule:evenodd"
viewBox="0 0 6.82666 6.82666"
 xmlns:xlink="http://www.w3.org/1999/xlink">
 <defs>
  <style type="text/css">
   <![CDATA[
    .fil0 {fill:#424242}
    .fil1 {fill:#FFFFFE}
    .fil2 {fill:#FFFFFE;fill-rule:nonzero}
   ]]>
  </style>
 </defs>
 <rect class="fil0" width="6.82666" height="6.82666"/>
 <g id="Layer_x0020_1">
  <metadata id="CorelCorpID_0Corel-Layer"/>
  <g id="_501814112">
   <path id="_501814904" class="fil1" d="M1.75263 0.853331l1.99376 0 0 1.28 0.501736 -0.426665 0.492327 0.426665 0 -1.28 0.641154 0c0.136256,0 0.247736,0.11148 0.247736,0.247736l0 4.62453c0,0.136256 -0.11148,0.247736 -0.247736,0.247736l-3.62898 0c-0.13626,0 -0.247736,-0.11148 -0.247736,-0.247736l0 -0.419638 0.191339 0c0.0376024,0.033189 0.0869961,0.0533268 0.141079,0.0533268 0.117791,0 0.213323,-0.0955315 0.213323,-0.213323 0,-0.117791 -0.0955315,-0.213323 -0.213323,-0.213323 -0.0540827,0 -0.103476,0.0201378 -0.141079,0.0533268l-0.191339 0 0 -0.546323 0.191339 0c0.0376024,0.033189 0.0869961,0.0533268 0.141079,0.0533268 0.117791,0 0.213323,-0.0955315 0.213323,-0.213323 0,-0.117791 -0.0955315,-0.213323 -0.213323,-0.213323 -0.0540827,0 -0.103476,0.0201378 -0.141079,0.0533268l-0.191339 0 0 -0.546323 0.191339 0c0.0376024,0.033189 0.0869961,0.0533268 0.141079,0.0533268 0.117791,0 0.213323,-0.0955315 0.213323,-0.213323 0,-0.117791 -0.0955315,-0.213323 -0.213323,-0.213323 -0.0540827,0 -0.103476,0.0201378 -0.141079,0.0533268l-0.191339 0 0 -0.546323 0.191339 0c0.0376024,0.033189 0.0869961,0.0533268 0.141079,0.0533268 0.117791,0 0.213323,-0.0955315 0.213323,-0.213323 0,-0.117791 -0.0955315,-0.213323 -0.213323,-0.213323 -0.0540827,0 -0.103476,0.0201378 -0.141079,0.0533268l-0.191339 0 0 -0.546323 0.191331 0c0.0376102,0.033189 0.087,0.0533307 0.141087,0.0533307 0.117791,0 0.213327,-0.0955354 0.213327,-0.213327 0,-0.117791 -0.0955354,-0.213327 -0.213327,-0.213327 -0.0540866,0 -0.103476,0.0201417 -0.141087,0.0533307l-0.191331 0 0 -0.419638c0,-0.136256 0.111476,-0.247736 0.247736,-0.247736zm1.81449 1.74843l0.200531 0.621236 0.652803 -0.00125591 -0.528866 0.382693 0.202921 0.620461 -0.52739 -0.38472 -0.52739 0.38472 0.202921 -0.620461 -0.528866 -0.382693 0.652803 0.00125591 0.200531 -0.621236z"/>
   <g>
    <polygon id="_501815456" class="fil2" points="1.19731,1.6007 1.83731,1.6007 1.83731,1.7607 1.19731,1.7607 "/>
    <circle id="_501815096" class="fil1" cx="1.83731" cy="1.6807" r="0.13333"/>
    <polygon id="_501815144" class="fil2" points="1.19731,2.46702 1.83731,2.46702 1.83731,2.62702 1.19731,2.62702 "/>
    <circle id="_501815192" class="fil1" cx="1.83731" cy="2.54702" r="0.133328"/>
    <polygon id="_501815408" class="fil2" points="1.19731,3.33333 1.83731,3.33333 1.83731,3.49333 1.19731,3.49333 "/>
    <circle id="_501815360" class="fil1" cx="1.83731" cy="3.41333" r="0.133328"/>
    <polygon id="_501815264" class="fil2" points="1.19731,4.19965 1.83731,4.19965 1.83731,4.35965 1.19731,4.35965 "/>
    <circle id="_501815288" class="fil1" cx="1.83731" cy="4.27965" r="0.133328"/>
    <polygon id="_501814328" class="fil2" points="1.19731,5.06596 1.83731,5.06596 1.83731,5.22596 1.19731,5.22596 "/>
    <circle id="_501814160" class="fil1" cx="1.83731" cy="5.14596" r="0.133328"/>
   </g>
  </g>
 </g>
</svg>
