<?xml version="1.0" encoding="UTF-8"?>
<!DOCTYPE svg PUBLIC "-//W3C//DTD SVG 1.1//EN" "http://www.w3.org/Graphics/SVG/1.1/DTD/svg11.dtd">
<!-- Creator: CorelDRAW -->
<svg xmlns="http://www.w3.org/2000/svg" xml:space="preserve" width="6.82666in" height="6.82666in" style="shape-rendering:geometricPrecision; text-rendering:geometricPrecision; image-rendering:optimizeQuality; fill-rule:evenodd; clip-rule:evenodd"
viewBox="0 0 6.82666 6.82666"
 xmlns:xlink="http://www.w3.org/1999/xlink">
 <defs>
  <style type="text/css">
   <![CDATA[
    .fil0 {fill:#424242}
    .fil1 {fill:#FFFFFE}
   ]]>
  </style>
 </defs>
 <rect class="fil0" width="6.82666" height="6.82666"/>
 <g id="Layer_x0020_1">
  <metadata id="CorelCorpID_0Corel-Layer"/>
  <g id="_501815720">
   <path id="_501815864" class="fil1" d="M0.956547 0.853331l1.17678 0 0 0.874374 2.56001 0 0 -0.874374 0.190539 0 1.08946 1.08834 0 3.92844c0,0.0567362 -0.0464843,0.10322 -0.10322,0.10322l-4.91356 0c-0.0567677,0 -0.103217,-0.0464528 -0.103217,-0.10322l0 -4.91356c0,-0.0567677 0.0464488,-0.103217 0.103217,-0.103217zm0.863976 3.20666l3.18562 0 0 1.49333 -3.18562 0 0 -1.49333zm-0.393858 1.3c0.0441811,0 0.08,0.0358189 0.08,0.08 0,0.0441811 -0.0358189,0.08 -0.08,0.08 -0.0441811,0 -0.08,-0.0358189 -0.08,-0.08 0,-0.0441811 0.0358189,-0.08 0.08,-0.08zm3.97333 0c0.0441811,0 0.08,0.0358189 0.08,0.08 0,0.0441811 -0.0358189,0.08 -0.08,0.08 -0.0441811,0 -0.08,-0.0358189 -0.08,-0.08 0,-0.0441811 0.0358189,-0.08 0.08,-0.08zm-1.61333 -3.12001l0 0.746669 0.373335 0 -0.746673 0.746673 -0.746669 -0.746673 0.373335 0 0 -0.746669 0.746673 0z"/>
   <rect id="_501816248" class="fil1" x="1.90488" y="0.853331" width="2.95487" height="0.420008"/>
  </g>
 </g>
</svg>
