<?xml version="1.0" encoding="UTF-8"?>
<!DOCTYPE svg PUBLIC "-//W3C//DTD SVG 1.1//EN" "http://www.w3.org/Graphics/SVG/1.1/DTD/svg11.dtd">
<!-- Creator: CorelDRAW -->
<svg xmlns="http://www.w3.org/2000/svg" xml:space="preserve" width="6.82666in" height="6.82666in" style="shape-rendering:geometricPrecision; text-rendering:geometricPrecision; image-rendering:optimizeQuality; fill-rule:evenodd; clip-rule:evenodd"
viewBox="0 0 6.82666 6.82666"
 xmlns:xlink="http://www.w3.org/1999/xlink">
 <defs>
  <style type="text/css">
   <![CDATA[
    .fil0 {fill:#424242}
    .fil1 {fill:#FFFFFE}
   ]]>
  </style>
 </defs>
 <rect class="fil0" width="6.82666" height="6.82666"/>
 <g id="Layer_x0020_1">
  <metadata id="CorelCorpID_0Corel-Layer"/>
  <g id="_501816776">
   <polygon id="_501817736" class="fil1" points="0.853331,1.76171 5.97333,1.76171 5.13124,1.08802 1.69542,1.08802 "/>
   <path id="_501817232" class="fil1" d="M0.853331 1.84171l5.12 0 0 1.24565 -5.12 0 0 -1.24565zm0.566382 0.349484l1.38667 0 0 0.16 -1.38667 0 0 -0.16zm0 0.386673l1.38667 0 0 0.16 -1.38667 0 0 -0.16zm2.01213 -0.341205c0.12585,0 0.22787,0.10202 0.22787,0.22787 0,0.12585 -0.10202,0.22787 -0.22787,0.22787 -0.12585,0 -0.22787,-0.10202 -0.22787,-0.22787 0,-0.12585 0.10202,-0.22787 0.22787,-0.22787zm0.654539 0.0290827l0.467232 0 0 0.397575 -0.467232 0 0 -0.397575zm0.853331 0l0.467232 0 0 0.397575 -0.467232 0 0 -0.397575z"/>
   <path id="_501816488" class="fil1" d="M0.853331 4.413l5.12 0 0 -1.24565 -5.12 0 0 1.24565zm0.566382 -0.896157l1.38667 0 0 0.16 -1.38667 0 0 -0.16zm0 0.386673l1.38667 0 0 0.16 -1.38667 0 0 -0.16zm2.01213 -0.341205c0.12585,0 0.22787,0.10202 0.22787,0.22787 0,0.12585 -0.10202,0.22787 -0.22787,0.22787 -0.12585,0 -0.22787,-0.10202 -0.22787,-0.22787 0,-0.12585 0.10202,-0.22787 0.22787,-0.22787zm0.654539 0.0290827l0.467232 0 0 0.397575 -0.467232 0 0 -0.397575zm0.853331 0l0.467232 0 0 0.397575 -0.467232 0 0 -0.397575z"/>
   <path id="_501816944" class="fil1" d="M0.853331 4.493l5.12 0 0 1.24564 -5.12 0 0 -1.24564zm0.566382 0.349484l1.38667 0 0 0.16 -1.38667 0 0 -0.16zm0 0.386673l1.38667 0 0 0.16 -1.38667 0 0 -0.16zm2.01213 -0.341205c0.12585,0 0.22787,0.10202 0.22787,0.22787 0,0.12585 -0.10202,0.22787 -0.22787,0.22787 -0.12585,0 -0.22787,-0.10202 -0.22787,-0.22787 0,-0.12585 0.10202,-0.22787 0.22787,-0.22787zm0.654539 0.0290827l0.467232 0 0 0.397575 -0.467232 0 0 -0.397575zm0.853331 0l0.467232 0 0 0.397575 -0.467232 0 0 -0.397575z"/>
  </g>
 </g>
</svg>
