<?xml version="1.0" encoding="UTF-8"?>
<!DOCTYPE svg PUBLIC "-//W3C//DTD SVG 1.1//EN" "http://www.w3.org/Graphics/SVG/1.1/DTD/svg11.dtd">
<!-- Creator: CorelDRAW -->
<svg xmlns="http://www.w3.org/2000/svg" xml:space="preserve" width="6.82666in" height="6.82666in" style="shape-rendering:geometricPrecision; text-rendering:geometricPrecision; image-rendering:optimizeQuality; fill-rule:evenodd; clip-rule:evenodd"
viewBox="0 0 6.82666 6.82666"
 xmlns:xlink="http://www.w3.org/1999/xlink">
 <defs>
  <style type="text/css">
   <![CDATA[
    .fil0 {fill:#424242}
    .fil1 {fill:#FFFFFE;fill-rule:nonzero}
   ]]>
  </style>
 </defs>
 <rect class="fil0" width="6.82666" height="6.82666"/>
 <g id="Layer_x0020_1">
  <metadata id="CorelCorpID_0Corel-Layer"/>
  <path class="fil1" d="M3.52563 2.53095c-0.052063,-0.052063 -0.13648,-0.052063 -0.188543,0 -0.052063,0.052063 -0.052063,0.13648 0,0.188543l0.94376 0.94376c0.145551,0.145551 0.228134,0.325555 0.243929,0.498299 0.0150157,0.164236 -0.0309843,0.321504 -0.141614,0.432134l-3.93701e-006 3.93701e-006c-0.11063,0.11063 -0.267898,0.15663 -0.432134,0.141614 -0.172744,-0.0157953 -0.352748,-0.098378 -0.498299,-0.243929l-1.77997 -1.77997c-0.219118,-0.219118 -0.343531,-0.491059 -0.367449,-0.752654 -0.0231417,-0.253091 0.048437,-0.49613 0.220307,-0.668004l3.93701e-006 -3.93701e-006c0.171874,-0.171874 0.414913,-0.243449 0.668,-0.220307 0.261594,0.0239173 0.533535,0.148331 0.752654,0.367453l2.07583 2.07582c0.296705,0.296705 0.465232,0.665602 0.49772,1.02091 0.0317087,0.346791 -0.0668465,0.680283 -0.303307,0.916744l-7.87402e-006 -7.87402e-006 -0.000472441 0.000488189c-0.236429,0.236118 -0.569713,0.33452 -0.916276,0.302831 -0.355307,-0.0324882 -0.724205,-0.201016 -1.02091,-0.497717l-1.71661 -1.71661c-0.052063,-0.052063 -0.13648,-0.052063 -0.188543,0 -0.052063,0.052063 -0.052063,0.13648 0,0.188543l1.71661 1.71661c0.341457,0.341457 0.770051,0.535768 1.18549,0.573756 0.422386,0.0386181 0.831453,-0.083689 1.12599,-0.37613 0.0022126,-0.00206299 0.00435827,-0.0042126 0.00644094,-0.00644094 0.292472,-0.294543 0.414791,-0.703626 0.376173,-1.12603 -0.0379882,-0.415437 -0.232303,-0.844035 -0.57376,-1.18549l-2.07583 -2.07582c-0.26387,-0.263874 -0.595508,-0.414075 -0.917236,-0.443492 -0.330236,-0.0301929 -0.650315,0.0661575 -0.880504,0.296346l-3.93701e-006 3.93701e-006c-0.230185,0.230193 -0.326539,0.550268 -0.296346,0.880508 0.0294173,0.321728 0.179618,0.653366 0.443488,0.917236l1.77997 1.77997c0.190303,0.190303 0.430008,0.298673 0.662882,0.319969 0.241386,0.0220669 0.475693,-0.0487087 0.644638,-0.217654l3.93701e-006 -3.93701e-006c0.168945,-0.168945 0.23972,-0.403252 0.217654,-0.644638 -0.0212953,-0.232874 -0.129665,-0.472579 -0.319969,-0.662882l-0.94376 -0.94376z"/>
 </g>
</svg>
