<?xml version="1.0" encoding="UTF-8"?>
<!DOCTYPE svg PUBLIC "-//W3C//DTD SVG 1.1//EN" "http://www.w3.org/Graphics/SVG/1.1/DTD/svg11.dtd">
<!-- Creator: CorelDRAW -->
<svg xmlns="http://www.w3.org/2000/svg" xml:space="preserve" width="6.82666in" height="6.82666in" style="shape-rendering:geometricPrecision; text-rendering:geometricPrecision; image-rendering:optimizeQuality; fill-rule:evenodd; clip-rule:evenodd"
viewBox="0 0 6.82666 6.82666"
 xmlns:xlink="http://www.w3.org/1999/xlink">
 <defs>
  <style type="text/css">
   <![CDATA[
    .fil0 {fill:#424242}
    .fil1 {fill:#FFFFFE}
   ]]>
  </style>
 </defs>
 <rect class="fil0" width="6.82666" height="6.82666"/>
 <g id="Layer_x0020_1">
  <metadata id="CorelCorpID_0Corel-Layer"/>
  <path class="fil1" d="M5.97333 2.36971l0 2.47838c0,0.170193 -0.139256,0.309449 -0.309441,0.309449l-4.50111 0c-0.170185,0 -0.309441,-0.139248 -0.309441,-0.309449l0 -2.47838 5.12 0zm-0.213331 0.213331l-4.69333 0 0 2.26505c0,0.0524409 0.0436693,0.0961181 0.0961102,0.0961181l4.50111 0c0.0524409,0 0.0961102,-0.0436811 0.0961102,-0.0961181l0 -2.26505z"/>
  <path class="fil1" d="M1.16277 1.66913l4.50111 0c0.170193,0 0.309441,0.139264 0.309441,0.309449l0 0.441126 -5.12 0 0 -0.441126c0,-0.170201 0.139248,-0.309449 0.309441,-0.309449zm0.277228 0.386949c0.044185,0 0.08,0.035815 0.08,0.08 0,0.044185 -0.035815,0.08 -0.08,0.08 -0.044185,0 -0.08,-0.035815 -0.08,-0.08 0,-0.044185 0.035815,-0.08 0.08,-0.08zm0.4 0c0.044185,0 0.08,0.035815 0.08,0.08 0,0.044185 -0.035815,0.08 -0.08,0.08 -0.044185,0 -0.08,-0.035815 -0.08,-0.08 0,-0.044185 0.035815,-0.08 0.08,-0.08zm0.4 0c0.044185,0 0.08,0.035815 0.08,0.08 0,0.044185 -0.035815,0.08 -0.08,0.08 -0.044185,0 -0.08,-0.035815 -0.08,-0.08 0,-0.044185 0.035815,-0.08 0.08,-0.08z"/>
  <g id="_501821384">
   <path id="_501785408" class="fil1" d="M1.43589 4.48828c-0.0441811,0 -0.08,0.0358189 -0.08,0.08 0,0.0441811 0.0358189,0.08 0.08,0.08l4.00211 0c0.0441811,0 0.08,-0.0358189 0.08,-0.08 0,-0.0441811 -0.0358189,-0.08 -0.08,-0.08l-4.00211 0z"/>
   <path id="_501821192" class="fil1" d="M1.43589 4.06838c-0.0441811,0 -0.08,0.0358189 -0.08,0.08 0,0.0441811 0.0358189,0.08 0.08,0.08l1.77768 0c0.0441811,0 0.08,-0.0358189 0.08,-0.08 0,-0.0441811 -0.0358189,-0.08 -0.08,-0.08l-1.77768 0z"/>
   <path id="_501821408" class="fil1" d="M1.43589 3.61113c-0.0441811,0 -0.08,0.0358189 -0.08,0.08 0,0.0441811 0.0358189,0.08 0.08,0.08l1.20982 0c0.0441811,0 0.08,-0.0358189 0.08,-0.08 0,-0.0441811 -0.0358189,-0.08 -0.08,-0.08l-1.20982 0z"/>
   <polygon id="_501820976" class="fil1" points="1.3375,2.87896 5.52337,2.87896 5.52337,3.35096 1.3375,3.35096 "/>
  </g>
 </g>
</svg>
