<?xml version="1.0" encoding="UTF-8"?>
<!DOCTYPE svg PUBLIC "-//W3C//DTD SVG 1.1//EN" "http://www.w3.org/Graphics/SVG/1.1/DTD/svg11.dtd">
<!-- Creator: CorelDRAW -->
<svg xmlns="http://www.w3.org/2000/svg" xml:space="preserve" width="6.82666in" height="6.82666in" style="shape-rendering:geometricPrecision; text-rendering:geometricPrecision; image-rendering:optimizeQuality; fill-rule:evenodd; clip-rule:evenodd"
viewBox="0 0 6.82666 6.82666"
 xmlns:xlink="http://www.w3.org/1999/xlink">
 <defs>
  <style type="text/css">
   <![CDATA[
    .fil0 {fill:#424242}
    .fil1 {fill:#FFFFFE}
   ]]>
  </style>
 </defs>
 <rect class="fil0" width="6.82666" height="6.82666"/>
 <g id="Layer_x0020_1">
  <metadata id="CorelCorpID_0Corel-Layer"/>
  <path class="fil1" d="M3.41333 0.853331c1.41385,0 2.56,1.14615 2.56,2.56 0,1.41385 -1.14615,2.56 -2.56,2.56 -1.41385,0 -2.56,-1.14615 -2.56,-2.56 0,-1.41385 1.14615,-2.56 2.56,-2.56zm-0.617252 1.61156c0.316075,0 0.464268,0.163571 0.617252,0.414248 0.152984,-0.250677 0.301177,-0.414248 0.617252,-0.414248 0.316067,0 0.665303,0.432823 0.612098,0.966732 -0.0614764,0.616846 -0.582571,1.08262 -1.22935,1.40332 -0.64678,-0.320697 -1.16787,-0.786472 -1.22935,-1.40332 -0.0532047,-0.533909 0.296031,-0.966732 0.612098,-0.966732zm0.617252 -1.15823c0.581732,0 1.10841,0.235803 1.48963,0.617035 0.381232,0.381228 0.617035,0.907902 0.617035,1.48963 0,0.581732 -0.235803,1.10841 -0.617035,1.48963 -0.381228,0.381232 -0.907902,0.617035 -1.48963,0.617035 -0.581732,0 -1.10841,-0.235803 -1.48963,-0.617035 -0.381232,-0.381228 -0.617035,-0.907902 -0.617035,-1.48963 0,-0.581732 0.235803,-1.10841 0.617035,-1.48963 0.381228,-0.381232 0.907902,-0.617035 1.48963,-0.617035zm1.37651 0.730161c-0.352268,-0.352272 -0.838945,-0.570161 -1.37651,-0.570161 -0.537563,0 -1.02424,0.21789 -1.37651,0.570161 -0.352272,0.352268 -0.570161,0.838945 -0.570161,1.37651 0,0.537563 0.21789,1.02424 0.570161,1.37651 0.352268,0.352272 0.838945,0.570161 1.37651,0.570161 0.537563,0 1.02424,-0.21789 1.37651,-0.570161 0.352272,-0.352268 0.570161,-0.838945 0.570161,-1.37651 0,-0.537563 -0.21789,-1.02424 -0.570161,-1.37651z"/>
 </g>
</svg>
