<?xml version="1.0" encoding="UTF-8"?>
<!DOCTYPE svg PUBLIC "-//W3C//DTD SVG 1.1//EN" "http://www.w3.org/Graphics/SVG/1.1/DTD/svg11.dtd">
<!-- Creator: CorelDRAW -->
<svg xmlns="http://www.w3.org/2000/svg" xml:space="preserve" width="6.82666in" height="6.82666in" style="shape-rendering:geometricPrecision; text-rendering:geometricPrecision; image-rendering:optimizeQuality; fill-rule:evenodd; clip-rule:evenodd"
viewBox="0 0 6.82666 6.82666"
 xmlns:xlink="http://www.w3.org/1999/xlink">
 <defs>
  <style type="text/css">
   <![CDATA[
    .fil0 {fill:#424242}
    .fil1 {fill:#FFFFFE}
   ]]>
  </style>
 </defs>
 <rect class="fil0" width="6.82666" height="6.82666"/>
 <g id="Layer_x0020_1">
  <metadata id="CorelCorpID_0Corel-Layer"/>
  <g id="_501787400">
   <path id="_501787640" class="fil1" d="M2.71384 2.90009c0.119224,0.0156811 0.233575,0.0468228 0.34102,0.091252l0.195976 -0.265874 0.247217 0.142728 -0.132374 0.302909c0.0935433,0.0720472 0.177457,0.155984 0.249516,0.249516l0.302909 -0.132374 0.142724 0.247213 -0.265803 0.195933c0.0444409,0.107465 0.0755433,0.221843 0.0912323,0.341075l0.328319 0.0367953 0 0.285457 -0.328398 0.0368031c-0.0156811,0.11922 -0.0468071,0.233567 -0.0912402,0.341004l0.265886 0.195996 -0.142724 0.247213 -0.302945 -0.132382c-0.0720433,0.0935276 -0.155969,0.177437 -0.249492,0.249488l0.132386 0.302945 -0.247217 0.142728 -0.195953 -0.265839c-0.107453,0.0444291 -0.221815,0.0755315 -0.341043,0.0912126l-0.0368031 0.328374 -0.285449 0 -0.0368071 -0.328374c-0.119224,-0.0156811 -0.233563,-0.0468346 -0.341016,-0.091252l-0.195988 0.265878 -0.247205 -0.142724 0.13237 -0.302917c-0.0935472,-0.0720433 -0.177465,-0.155984 -0.249528,-0.249508l-0.302902 0.132366 -0.142724 -0.247205 0.265795 -0.195933c-0.0444409,-0.107457 -0.0755354,-0.221839 -0.0912283,-0.341083l-0.328323 -0.0367953 0 -0.285449 0.328402 -0.036811c0.015685,-0.11922 0.0468268,-0.233555 0.0912402,-0.341l-0.26589 -0.196 0.142724 -0.247205 0.302945 0.132382c0.0720394,-0.0935394 0.155965,-0.177449 0.249492,-0.249504l-0.132378 -0.302937 0.247205 -0.142724 0.195957 0.265831c0.107449,-0.0444291 0.221819,-0.0755276 0.341047,-0.0912087l0.0368071 -0.32837 0.285457 0 0.0368031 0.32837zm-0.179535 1.01967c0.18348,0 0.332224,0.148744 0.332224,0.332228 0,0.183484 -0.148744,0.332228 -0.332224,0.332228 -0.183484,0 -0.332228,-0.148744 -0.332228,-0.332228 0,-0.183484 0.148744,-0.332228 0.332228,-0.332228zm0 -0.49522c0.22848,0 0.435346,0.092622 0.585087,0.242362 0.149736,0.149736 0.242358,0.356606 0.242358,0.585087 0,0.22848 -0.092622,0.43535 -0.242358,0.585087 -0.14974,0.14974 -0.356606,0.242362 -0.585087,0.242362 -0.22848,0 -0.43535,-0.092622 -0.585091,-0.242358 -0.149736,-0.14974 -0.242358,-0.35661 -0.242358,-0.585091 0,-0.22848 0.092622,-0.43535 0.242358,-0.585087 0.14974,-0.14974 0.35661,-0.242362 0.585091,-0.242362zm0.471961 0.355488c-0.12078,-0.12078 -0.287646,-0.195488 -0.471961,-0.195488 -0.184315,0 -0.351185,0.0747087 -0.471965,0.195488 -0.120776,0.120776 -0.195484,0.287646 -0.195484,0.471961 0,0.184315 0.0747087,0.351185 0.195484,0.471965 0.12078,0.120776 0.28765,0.195484 0.471965,0.195484 0.184315,0 0.351181,-0.0747087 0.471961,-0.195488 0.120776,-0.120776 0.195484,-0.287646 0.195484,-0.471961 0,-0.184315 -0.0747087,-0.351185 -0.195484,-0.471961z"/>
   <path id="_501787424" class="fil1" d="M4.88902 1.1315c0.0860866,0.0113268 0.168654,0.0338071 0.246232,0.0658937l0.141508 -0.19198 0.1785 0.103059 -0.0955787 0.218713c0.0675433,0.0520276 0.128134,0.11263 0.180165,0.180165l0.218717 -0.0955787 0.103055 0.1785 -0.191925 0.141469c0.0320866,0.0775984 0.0545472,0.160185 0.065874,0.246276l0.237063 0.0265709 0 0.206114 -0.237118 0.0265748c-0.0113268,0.0860827 -0.0337992,0.168646 -0.0658819,0.24622l0.191984 0.141516 -0.103055 0.178504 -0.21874 -0.0955906c-0.0520197,0.0675354 -0.112618,0.128122 -0.18015,0.180146l0.0955906 0.218744 -0.178504 0.103055 -0.141488 -0.191949c-0.0775866,0.0320787 -0.160161,0.0545354 -0.246248,0.0658583l-0.0265748 0.237106 -0.20611 0 -0.0265748 -0.237106c-0.0860866,-0.0113228 -0.168642,-0.0338189 -0.246228,-0.0658898l-0.141516 0.19198 -0.178496 -0.103055 0.0955787 -0.218724c-0.0675433,-0.0520157 -0.128134,-0.112626 -0.180173,-0.180157l-0.218709 0.0955787 -0.103055 -0.178496 0.191921 -0.141472c-0.0320906,-0.0775906 -0.0545433,-0.160177 -0.0658701,-0.24628l-0.237067 -0.0265669 0 -0.20611 0.237118 -0.0265787c0.0113268,-0.0860827 0.033815,-0.168638 0.0658858,-0.24622l-0.191992 -0.14152 0.103055 -0.178496 0.218744 0.0955866c0.0520157,-0.0675394 0.112614,-0.12813 0.180146,-0.180154l-0.0955866 -0.218736 0.178496 -0.103055 0.141496 0.191945c0.0775827,-0.0320787 0.160161,-0.0545315 0.246248,-0.0658583l0.0265787 -0.237098 0.20611 0 0.0265748 0.237098zm-0.129634 0.749492c0.125177,0 0.226654,0.101476 0.226654,0.22665 0,0.125177 -0.101476,0.226654 -0.226654,0.226654 -0.125173,0 -0.22665,-0.101476 -0.22665,-0.226654 0,-0.125173 0.101476,-0.22665 0.22665,-0.22665zm0 -0.382197c0.168122,0 0.320339,0.0681535 0.430516,0.178335 0.110181,0.110177 0.178335,0.262394 0.178335,0.430512 0,0.168118 -0.0681535,0.320335 -0.178335,0.430516 -0.110177,0.110181 -0.262394,0.178335 -0.430516,0.178335 -0.168118,0 -0.320331,-0.0681496 -0.430512,-0.178335 -0.110181,-0.110181 -0.178335,-0.262398 -0.178335,-0.430516 0,-0.168118 0.0681535,-0.320335 0.178335,-0.430512 0.110181,-0.110185 0.262394,-0.178335 0.430512,-0.178335zm0.31739 0.291461c-0.0812165,-0.0812205 -0.193437,-0.131461 -0.31739,-0.131461 -0.123949,0 -0.236169,0.0502402 -0.317386,0.131461 -0.0812205,0.0812165 -0.131461,0.193437 -0.131461,0.317386 0,0.123949 0.0502402,0.236169 0.131461,0.31739 0.0812165,0.0812205 0.193437,0.131461 0.317386,0.131461 0.123953,0 0.236173,-0.0502402 0.31739,-0.131461 0.0812205,-0.0812205 0.131461,-0.193441 0.131461,-0.31739 0,-0.123949 -0.0502402,-0.236169 -0.131461,-0.317386z"/>
  </g>
 </g>
</svg>
