<?xml version="1.0" encoding="UTF-8"?>
<!DOCTYPE svg PUBLIC "-//W3C//DTD SVG 1.1//EN" "http://www.w3.org/Graphics/SVG/1.1/DTD/svg11.dtd">
<!-- Creator: CorelDRAW -->
<svg xmlns="http://www.w3.org/2000/svg" xml:space="preserve" width="6.82666in" height="6.82666in" style="shape-rendering:geometricPrecision; text-rendering:geometricPrecision; image-rendering:optimizeQuality; fill-rule:evenodd; clip-rule:evenodd"
viewBox="0 0 6.82666 6.82666"
 xmlns:xlink="http://www.w3.org/1999/xlink">
 <defs>
  <style type="text/css">
   <![CDATA[
    .fil0 {fill:#424242}
    .fil1 {fill:#FFFFFE}
   ]]>
  </style>
 </defs>
 <rect class="fil0" width="6.82666" height="6.82666"/>
 <g id="Layer_x0020_1">
  <metadata id="CorelCorpID_0Corel-Layer"/>
  <path class="fil1" d="M3.41333 0.853335c1.41385,0 2.56,1.14615 2.56,2.56 0,1.41385 -1.14615,2.56 -2.56,2.56 -1.41385,0 -2.56,-1.14615 -2.56,-2.56 0,-1.41385 1.14615,-2.56 2.56,-2.56zm0.94448 1.61551l0 0c0.0944488,0.0944449 0.0944488,0.249 0,0.343449l-0.601035 0.601035 0.601035 0.601035c0.0944488,0.0944488 0.0944488,0.249004 0,0.343449l0 0c-0.0944449,0.0944488 -0.249,0.0944488 -0.343449,0l-0.601035 -0.601035 -0.601035 0.601035c-0.0944488,0.0944488 -0.249004,0.0944488 -0.343449,0l0 0c-0.0944488,-0.0944449 -0.0944488,-0.249 0,-0.343449l0.601035 -0.601035 -0.601035 -0.601035c-0.0944488,-0.0944488 -0.0944488,-0.249004 0,-0.343449l0 0c0.0944449,-0.0944488 0.249,-0.0944488 0.343449,0l0.601035 0.601035 0.601035 -0.601035c0.0944488,-0.0944488 0.249004,-0.0944488 0.343449,0zm-0.944484 -1.0143c0.540898,0 1.0306,0.219252 1.38507,0.57372 0.354469,0.354469 0.57372,0.844169 0.57372,1.38507 0,0.540898 -0.219252,1.0306 -0.57372,1.38507 -0.354469,0.354469 -0.844169,0.57372 -1.38507,0.57372 -0.540898,0 -1.0306,-0.219252 -1.38507,-0.57372 -0.354469,-0.354469 -0.57372,-0.844169 -0.57372,-1.38507 0,-0.540898 0.219252,-1.0306 0.57372,-1.38507 0.354472,-0.354469 0.844173,-0.57372 1.38507,-0.57372zm1.27194 0.686846c-0.325508,-0.325508 -0.775213,-0.526846 -1.27194,-0.526846 -0.496728,0 -0.946433,0.201339 -1.27194,0.526846 -0.325508,0.325508 -0.526846,0.775213 -0.526846,1.27194 0,0.496728 0.201339,0.946433 0.526846,1.27194 0.325512,0.325508 0.775217,0.526846 1.27194,0.526846 0.496728,0 0.946433,-0.201339 1.27194,-0.526846 0.325508,-0.325508 0.526846,-0.775213 0.526846,-1.27194 0,-0.496728 -0.201339,-0.946433 -0.526846,-1.27194z"/>
 </g>
</svg>
