<?xml version="1.0" encoding="UTF-8"?>
<!DOCTYPE svg PUBLIC "-//W3C//DTD SVG 1.1//EN" "http://www.w3.org/Graphics/SVG/1.1/DTD/svg11.dtd">
<!-- Creator: CorelDRAW -->
<svg xmlns="http://www.w3.org/2000/svg" xml:space="preserve" width="6.82666in" height="6.82666in" style="shape-rendering:geometricPrecision; text-rendering:geometricPrecision; image-rendering:optimizeQuality; fill-rule:evenodd; clip-rule:evenodd"
viewBox="0 0 6.82666 6.82666"
 xmlns:xlink="http://www.w3.org/1999/xlink">
 <defs>
  <style type="text/css">
   <![CDATA[
    .fil0 {fill:#424242}
    .fil1 {fill:#FFFFFE}
   ]]>
  </style>
 </defs>
 <rect class="fil0" width="6.82666" height="6.82666"/>
 <g id="Layer_x0020_1">
  <metadata id="CorelCorpID_0Corel-Layer"/>
  <path class="fil1" d="M3.41333 0.853331c1.41385,0 2.56,1.14615 2.56,2.56 0,1.41385 -1.14615,2.56 -2.56,2.56 -1.41385,0 -2.56,-1.14615 -2.56,-2.56 0,-1.41385 1.14615,-2.56 2.56,-2.56zm-1.4335 2.06974c-0.0279567,0.034 -0.023063,0.0842323 0.010937,0.112189 0.034,0.0279567 0.0842323,0.023063 0.112189,-0.010937 0.127705,-0.155425 0.316378,-0.285803 0.544894,-0.376858 0.223382,-0.0890118 0.48463,-0.140063 0.764516,-0.140063 0.280449,0 0.542228,0.0512756 0.765957,0.140638l-4.33071e-005 0.000106299 7.87402e-005 3.14961e-005 -7.87402e-005 0.000192913c0.00170472,0.000681102 0.00342126,0.00129134 0.00514567,0.00185039 0.226728,0.091437 0.413669,0.221496 0.539972,0.376146 0.0277835,0.0341693 0.0780157,0.0393465 0.112185,0.011563 0.0341693,-0.0277835 0.0393465,-0.0780157 0.011563,-0.112185 -0.143484,-0.175681 -0.352551,-0.322106 -0.603917,-0.423476 -0.00181102,-0.000885827 -0.00366929,-0.0017126 -0.00557087,-0.00247244l-0.029689 0.0742874 0.029374 -0.074063c-0.242669,-0.0969764 -0.524736,-0.152618 -0.824976,-0.152618 -0.299504,0 -0.580949,0.055378 -0.823264,0.151937 -0.253638,0.101067 -0.464602,0.247657 -0.609272,0.423732zm0.321858 0.338862c-0.0279567,0.034 -0.023063,0.0842323 0.010937,0.112189 0.034,0.0279567 0.0842323,0.023063 0.112189,-0.010937 0.0957559,-0.116539 0.237555,-0.214429 0.409512,-0.282949 0.168748,-0.0672402 0.366346,-0.105811 0.578264,-0.105811 0.21222,0 0.410193,0.0387677 0.579264,0.106335l0.029689 -0.074063 -0.029689 0.0742874c0.00216929,0.000866142 0.00435433,0.00162598 0.00655118,0.00229134 0.169287,0.0686457 0.308811,0.165917 0.40313,0.281402 0.0277835,0.0341693 0.0780157,0.0393465 0.112185,0.011563 0.0341693,-0.0277835 0.0393465,-0.0780157 0.011563,-0.112185 -0.111205,-0.136157 -0.272898,-0.24972 -0.467232,-0.328543 -0.00220472,-0.00112598 -0.00447638,-0.00216535 -0.0068189,-0.00310236l-7.87402e-005 0.000192913c-0.187925,-0.0750906 -0.406268,-0.118177 -0.638563,-0.118177 -0.231535,0 -0.449327,0.0428976 -0.637012,0.117685 -0.197083,0.0785315 -0.361169,0.192634 -0.47389,0.329823zm0.321874 0.386717c-0.0279567,0.034 -0.023063,0.0842323 0.010937,0.112189 0.034,0.0279567 0.0842323,0.023063 0.112189,-0.010937 0.0638031,-0.0776535 0.158724,-0.143055 0.274118,-0.189035 0.114122,-0.0454764 0.248055,-0.0715591 0.392012,-0.0715591 0.144091,0 0.278252,0.0262244 0.392606,0.0719213l0.029689 -0.074063 -0.029689 0.0742874c0.00214961,0.000858268 0.00432283,0.00161417 0.00649606,0.00227559 0.112661,0.0459961 0.205291,0.110642 0.267744,0.18711 0.0277835,0.0341693 0.0780157,0.0393465 0.112185,0.011563 0.0341693,-0.0277835 0.0393465,-0.0780157 0.011563,-0.112185 -0.0792992,-0.0970945 -0.194071,-0.17802 -0.33174,-0.234209 -0.00222047,-0.0011378 -0.00450787,-0.00218504 -0.00687008,-0.00312992l-7.87402e-005 0.000192913c-0.133213,-0.0532244 -0.287744,-0.0837638 -0.451906,-0.0837638 -0.163575,0 -0.317701,0.0304094 -0.45076,0.0834331 -0.140516,0.0559921 -0.257728,0.13761 -0.338496,0.235909zm0.789768 0.0913622c0.102059,0 0.194469,0.041378 0.261354,0.108264 0.0668858,0.0668898 0.108264,0.159303 0.108264,0.261358 0,0.102059 -0.041378,0.194465 -0.108264,0.261354 -0.0668858,0.0668858 -0.159295,0.108264 -0.261354,0.108264 -0.102059,0 -0.194469,-0.041378 -0.261354,-0.108264 -0.0668858,-0.0668898 -0.108264,-0.159295 -0.108264,-0.261354 0,-0.102055 0.041378,-0.194469 0.108264,-0.261358 0.0668858,-0.0668858 0.159295,-0.108264 0.261354,-0.108264zm0.148228 0.22139c-0.0379252,-0.0379252 -0.0903386,-0.0613898 -0.148228,-0.0613898 -0.0578898,0 -0.110303,0.0234646 -0.148228,0.0613898 -0.0379252,0.0379291 -0.0613898,0.0903425 -0.0613898,0.148232 0,0.0578898 0.0234646,0.110299 0.0613898,0.148228 0.0379252,0.0379252 0.0903386,0.0613898 0.148228,0.0613898 0.0578898,0 0.110303,-0.0234646 0.148228,-0.0613898 0.0379252,-0.0379291 0.0613898,-0.0903386 0.0613898,-0.148228 0,-0.0578898 -0.0234646,-0.110303 -0.0613898,-0.148232zm-0.148228 -2.65474c0.581732,0 1.10841,0.235803 1.48963,0.617035 0.381232,0.381228 0.617035,0.907902 0.617035,1.48963 0,0.581732 -0.235803,1.10841 -0.617035,1.48963 -0.381228,0.381232 -0.907902,0.617035 -1.48963,0.617035 -0.581732,0 -1.10841,-0.235803 -1.48963,-0.617035 -0.381232,-0.381228 -0.617035,-0.907902 -0.617035,-1.48963 0,-0.581732 0.235803,-1.10841 0.617035,-1.48963 0.381228,-0.381232 0.907902,-0.617035 1.48963,-0.617035zm1.37651 0.730161c-0.352268,-0.352272 -0.838945,-0.570161 -1.37651,-0.570161 -0.537563,0 -1.02424,0.21789 -1.37651,0.570161 -0.352272,0.352268 -0.570161,0.838945 -0.570161,1.37651 0,0.537563 0.21789,1.02424 0.570161,1.37651 0.352268,0.352272 0.838945,0.570161 1.37651,0.570161 0.537563,0 1.02424,-0.21789 1.37651,-0.570161 0.352272,-0.352268 0.570161,-0.838945 0.570161,-1.37651 0,-0.537563 -0.21789,-1.02424 -0.570161,-1.37651z"/>
 </g>
</svg>
