<?xml version="1.0" encoding="UTF-8"?>
<!DOCTYPE svg PUBLIC "-//W3C//DTD SVG 1.1//EN" "http://www.w3.org/Graphics/SVG/1.1/DTD/svg11.dtd">
<!-- Creator: CorelDRAW -->
<svg xmlns="http://www.w3.org/2000/svg" xml:space="preserve" width="6.82666in" height="6.82666in" style="shape-rendering:geometricPrecision; text-rendering:geometricPrecision; image-rendering:optimizeQuality; fill-rule:evenodd; clip-rule:evenodd"
viewBox="0 0 6.82666 6.82666"
 xmlns:xlink="http://www.w3.org/1999/xlink">
 <defs>
  <style type="text/css">
   <![CDATA[
    .fil0 {fill:#424242}
    .fil1 {fill:#FFFFFE}
   ]]>
  </style>
 </defs>
 <rect class="fil0" width="6.82666" height="6.82666"/>
 <g id="Layer_x0020_1">
  <metadata id="CorelCorpID_0Corel-Layer"/>
  <path class="fil1" d="M3.41333 0.853331c1.41385,0 2.56,1.14615 2.56,2.56 0,1.41385 -1.14615,2.56 -2.56,2.56 -1.41385,0 -2.56,-1.14615 -2.56,-2.56 0,-1.41385 1.14615,-2.56 2.56,-2.56zm1.3813 2.56l-1.88691 1.33424 0 -2.66849 1.88691 1.33424zm-1.55033 -0.830531l1.08196 0.765055c0.00861024,0.00527953 0.0163228,0.0123583 0.0225236,0.021126 0.0244921,0.0346339 0.0162677,0.0825748 -0.0183661,0.107067l-0.000244094 -7.87402e-006 -1.08205 0.765122c-0.0131614,0.0105827 -0.0298819,0.0169173 -0.0480827,0.0169173 -0.0424213,0 -0.076815,-0.0343898 -0.076815,-0.076811l0 -1.53547c-9.44882e-005,-0.0154843 0.00447638,-0.0311496 0.0140984,-0.044752 0.0244882,-0.0346339 0.0724291,-0.0428622 0.107063,-0.0183701l-8.26772e-005 0.000122047zm0.169035 -1.27614c0.581732,0 1.10841,0.235803 1.48963,0.617035 0.381232,0.381228 0.617035,0.907902 0.617035,1.48963 0,0.581732 -0.235803,1.10841 -0.617035,1.48963 -0.381228,0.381232 -0.907902,0.617035 -1.48963,0.617035 -0.581732,0 -1.10841,-0.235803 -1.48963,-0.617035 -0.381232,-0.381228 -0.617035,-0.907902 -0.617035,-1.48963 0,-0.581732 0.235803,-1.10841 0.617035,-1.48963 0.381228,-0.381232 0.907902,-0.617035 1.48963,-0.617035zm1.37651 0.730161c-0.352268,-0.352272 -0.838945,-0.570161 -1.37651,-0.570161 -0.537563,0 -1.02424,0.21789 -1.37651,0.570161 -0.352272,0.352268 -0.570161,0.838945 -0.570161,1.37651 0,0.537563 0.21789,1.02424 0.570161,1.37651 0.352268,0.352272 0.838945,0.570161 1.37651,0.570161 0.537563,0 1.02424,-0.21789 1.37651,-0.570161 0.352272,-0.352268 0.570161,-0.838945 0.570161,-1.37651 0,-0.537563 -0.21789,-1.02424 -0.570161,-1.37651z"/>
 </g>
</svg>
