<?xml version="1.0" encoding="UTF-8"?>
<!DOCTYPE svg PUBLIC "-//W3C//DTD SVG 1.1//EN" "http://www.w3.org/Graphics/SVG/1.1/DTD/svg11.dtd">
<!-- Creator: CorelDRAW -->
<svg xmlns="http://www.w3.org/2000/svg" xml:space="preserve" width="6.82666in" height="6.82666in" style="shape-rendering:geometricPrecision; text-rendering:geometricPrecision; image-rendering:optimizeQuality; fill-rule:evenodd; clip-rule:evenodd"
viewBox="0 0 6.82666 6.82666"
 xmlns:xlink="http://www.w3.org/1999/xlink">
 <defs>
  <style type="text/css">
   <![CDATA[
    .fil0 {fill:#424242}
    .fil1 {fill:#FFFFFE}
    .fil2 {fill:#FFFFFE;fill-rule:nonzero}
   ]]>
  </style>
 </defs>
 <rect class="fil0" width="6.82666" height="6.82666"/>
 <g id="Layer_x0020_1">
  <metadata id="CorelCorpID_0Corel-Layer"/>
  <g id="_501791672">
   <path id="_501792056" class="fil1" d="M1.27063 5.22559l0 -4.29214c0,-0.044248 0.0358701,-0.080122 0.0801181,-0.080122l2.67367 0c0.044248,0 0.080122,0.035874 0.080122,0.080122l0 0.173571 -2.41998 0c-0.0884646,0 -0.160236,0.0717677 -0.160236,0.160236l0 4.03845 -0.173571 0c-0.044248,0 -0.0801181,-0.0358701 -0.0801181,-0.0801181z"/>
   <path id="_501792152" class="fil2" d="M4.51846 2.50972l0 -0.941213 3.93701e-006 0c0,-0.0119921 0.00457087,-0.0239843 0.0137205,-0.0331299 0.0182953,-0.0182953 0.0479606,-0.0182953 0.0662598,0l-3.93701e-006 3.93701e-006 0.940945 0.940945c0.0086378,0.00849606 0.0139921,0.0203228 0.0139921,0.0333937 0,0.0258701 -0.0209764,0.0468504 -0.0468504,0.0468504l-0.941217 0c-0.0258701,0 -0.0468504,-0.0209803 -0.0468504,-0.0468504z"/>
   <path id="_501792440" class="fil1" d="M4.9897 5.08397l-2.48512 0 0 -0.160244 2.48512 0 0 0.160244zm-3.05146 -3.48291l0 4.29214c0,0.044248 0.035874,0.080122 0.080122,0.080122l3.45756 0c0.044248,0 0.0801181,-0.035874 0.0801181,-0.080122l0 -3.26655c-0.0152126,0.00645276 -0.0319488,0.0100276 -0.0495079,0.0100276l-0.941213 0c-0.0700906,0 -0.126972,-0.0568819 -0.126972,-0.126972l0 -0.941209c0,-0.0164764 0.00318898,-0.0325945 0.00923622,-0.0475551l-2.42922 0c-0.044248,0 -0.080122,0.0358701 -0.080122,0.0801181zm3.05146 2.65453l-2.48512 0 0 -0.16024 2.48512 0 0 0.16024zm0 -0.828374l-2.48512 0 0 -0.16024 2.48512 0 0 0.16024zm-0.86439 -0.828374l-1.62073 0 0 -0.16024 1.62073 0 0 0.16024z"/>
   <path id="_501791720" class="fil1" d="M4.51846 1.5685l0 0.941209c0,0.025874 0.0209803,0.0468543 0.0468543,0.0468543l0.941213 0c0.0258701,0 0.0468504,-0.0209803 0.0468504,-0.0468543 0,-0.0130669 -0.00535827,-0.0248898 -0.0139921,-0.0333937l-0.940945 -0.940945c-0.0182953,-0.0182953 -0.0479606,-0.0182953 -0.0662559,0 -0.00915354,0.00914961 -0.0137205,0.0211339 -0.0137244,0.0331299z"/>
   <path id="_501791264" class="fil1" d="M1.60443 5.5594l0 -4.29214c0,-0.044248 0.0358701,-0.080122 0.0801181,-0.080122l2.67367 0c0.044248,0 0.080122,0.035874 0.080122,0.080122l0 0.173571 -2.41998 0c-0.0884646,0 -0.160236,0.0717677 -0.160236,0.160236l0 4.03845 -0.173571 0c-0.044248,0 -0.0801181,-0.0358701 -0.0801181,-0.0801181z"/>
  </g>
 </g>
</svg>
