<?xml version="1.0" encoding="UTF-8"?>
<!DOCTYPE svg PUBLIC "-//W3C//DTD SVG 1.1//EN" "http://www.w3.org/Graphics/SVG/1.1/DTD/svg11.dtd">
<!-- Creator: CorelDRAW -->
<svg xmlns="http://www.w3.org/2000/svg" xml:space="preserve" width="6.82666in" height="6.82666in" style="shape-rendering:geometricPrecision; text-rendering:geometricPrecision; image-rendering:optimizeQuality; fill-rule:evenodd; clip-rule:evenodd"
viewBox="0 0 6.82666 6.82666"
 xmlns:xlink="http://www.w3.org/1999/xlink">
 <defs>
  <style type="text/css">
   <![CDATA[
    .fil0 {fill:#424242}
    .fil1 {fill:#FFFFFE}
    .fil2 {fill:#FFFFFE;fill-rule:nonzero}
   ]]>
  </style>
 </defs>
 <rect class="fil0" width="6.82666" height="6.82666"/>
 <g id="Layer_x0020_1">
  <metadata id="CorelCorpID_0Corel-Layer"/>
  <g id="_501789536">
   <g>
    <path id="_501790304" class="fil1" d="M5.40297 2.58874c0.182776,0.182776 0.295823,0.435276 0.295823,0.714169 0,0.0294528 -0.0238819,0.0533346 -0.0533346,0.0533346 -0.0294528,0 -0.0533346,-0.0238819 -0.0533346,-0.0533346 0,-0.249449 -0.101106,-0.475287 -0.264571,-0.638752 -0.163461,-0.163461 -0.389299,-0.264571 -0.638748,-0.264571 -0.0294528,0 -0.0533346,-0.0238819 -0.0533346,-0.0533346 0,-0.0294528 0.0238819,-0.0533346 0.0533346,-0.0533346 0.278894,0 0.531398,0.113055 0.714165,0.295823zm-1.35893 2.09758c0.0501024,0.0214606 0.101744,0.040063 0.154713,0.0555906 0.124205,0.0364016 0.25513,0.0559409 0.390055,0.0559409 0.382319,0 0.728453,-0.154976 0.979004,-0.405524 0.250547,-0.250551 0.405524,-0.596685 0.405524,-0.979004 0,-0.382319 -0.154976,-0.728453 -0.405524,-0.979004 -0.250551,-0.250547 -0.596685,-0.405524 -0.979004,-0.405524 -0.134925,0 -0.26585,0.0195394 -0.390055,0.0559409 -0.0529685,0.0155276 -0.10461,0.0341299 -0.154713,0.0555906l0 0.838213c0,0.0883346 -0.0716614,0.159996 -0.159996,0.159996 -0.00125197,0 -0.00249213,-2.75591e-005 -0.00374016,-6.69291e-005l-0.00120866 3.93701e-006c-0.0732126,0 -0.142591,0.0287323 -0.19435,0.0804961 -0.0517638,0.0517638 -0.0805,0.121142 -0.0805,0.194354 0,0.0732126 0.0287362,0.142591 0.0805,0.194354 0.0518228,0.0518268 0.121339,0.0802874 0.194579,0.0804961l0.000952756 3.93701e-006c0.000818898,-1.5748e-005 0.0016378,-2.75591e-005 0.00245669,-3.14961e-005 0.0880709,-0.000216535 0.160984,0.0700276 0.161299,0.158563l3.93701e-006 0.00132677 3.93701e-006 0.838283zm0.544768 -1.76118c0.134799,0 0.256843,0.0546457 0.345189,0.142992 0.0883425,0.0883386 0.142992,0.21039 0.142992,0.345189 0,0.134799 -0.0546496,0.25685 -0.142992,0.345189 -0.0883465,0.0883465 -0.21039,0.142992 -0.345189,0.142992 -0.134799,0 -0.25685,-0.0546496 -0.345189,-0.142988 -0.0883465,-0.0883465 -0.142992,-0.210394 -0.142992,-0.345193 0,-0.134799 0.0546457,-0.256846 0.142992,-0.345193 0.0883386,-0.0883386 0.21039,-0.142988 0.345189,-0.142988z"/>
    <path id="_501790136" class="fil1" d="M4.5888 3.20593c0.114543,0 0.207402,0.0928583 0.207402,0.207402 0,0.114543 -0.0928583,0.207402 -0.207402,0.207402 -0.114543,0 -0.207402,-0.0928583 -0.207402,-0.207402 0,-0.114543 0.0928583,-0.207402 0.207402,-0.207402zm-0.269772 -0.062374c-0.0690354,0.0690354 -0.11174,0.164421 -0.11174,0.269776 0,0.105354 0.0427047,0.20074 0.11174,0.269776 0.0690315,0.0690315 0.164417,0.111736 0.269772,0.111736 0.105354,0 0.200736,-0.0427047 0.269772,-0.11174 0.0690354,-0.0690315 0.11174,-0.164417 0.11174,-0.269772 0,-0.105354 -0.0427047,-0.20074 -0.11174,-0.269772 -0.0690354,-0.0690354 -0.164417,-0.11174 -0.269772,-0.11174 -0.105354,0 -0.20074,0.0427047 -0.269772,0.111736z"/>
   </g>
   <path id="_501789584" class="fil2" d="M0.933331 1.68093l2.95071 0c0.0441811,0 0.08,0.0358189 0.08,0.08l0 1.21762c0,0.0441811 -0.0358189,0.08 -0.08,0.08 -0.00103543,0 -0.00206693,-2.75591e-005 -0.00309449,-6.69291e-005l0 3.14961e-005 -0.0010315 -2.75591e-005 -0.000822835 0c-0.0979921,0 -0.186713,0.0397205 -0.250917,0.103925 -0.0642087,0.0642087 -0.103929,0.152929 -0.103929,0.250921 0,0.0979921 0.0397205,0.186713 0.103929,0.250921 0.0642047,0.0642047 0.152925,0.103925 0.250917,0.103925l0.00137402 3.93701e-006 0 -2.3622e-005c0.000822835,-1.5748e-005 0.00164173,-1.5748e-005 0.00246063,-7.87402e-006l0 -2.75591e-005c0.0441772,-0.000614173 0.0804921,0.0347008 0.0811063,0.078878l3.93701e-006 0.00111417 3.93701e-006 0 0 1.21762c0,0.0441811 -0.0358189,0.08 -0.08,0.08l-2.95071 0c-0.0441811,0 -0.08,-0.0358189 -0.08,-0.08l0 -3.30481c0,-0.0441811 0.0358189,-0.08 0.08,-0.08z"/>
   <path id="_501790088" class="fil2" d="M3.87909 3.76846c-0.000566929,1.9685e-005 -0.000724409,2.3622e-005 0,1.1811e-005l0 -1.1811e-005z"/>
   <polygon id="_501789560" class="fil2" points="3.87909,3.76846 3.87909,3.76848 3.88047,3.76845 3.88047,3.76842 "/>
  </g>
 </g>
</svg>
