<?xml version="1.0" encoding="UTF-8"?>
<!DOCTYPE svg PUBLIC "-//W3C//DTD SVG 1.1//EN" "http://www.w3.org/Graphics/SVG/1.1/DTD/svg11.dtd">
<!-- Creator: CorelDRAW -->
<svg xmlns="http://www.w3.org/2000/svg" xml:space="preserve" width="6.82666in" height="6.82666in" style="shape-rendering:geometricPrecision; text-rendering:geometricPrecision; image-rendering:optimizeQuality; fill-rule:evenodd; clip-rule:evenodd"
viewBox="0 0 6.82666 6.82666"
 xmlns:xlink="http://www.w3.org/1999/xlink">
 <defs>
  <style type="text/css">
   <![CDATA[
    .fil0 {fill:#424242}
    .fil2 {fill:#FFFFFE}
    .fil1 {fill:#FFFFFE;fill-rule:nonzero}
   ]]>
  </style>
 </defs>
 <rect class="fil0" width="6.82666" height="6.82666"/>
 <g id="Layer_x0020_1">
  <metadata id="CorelCorpID_0Corel-Layer"/>
  <g id="_501793064">
   <path id="_501795320" class="fil1" d="M1.52115 1.27073l3.78436 0c0.0689567,0 0.131579,0.0281535 0.176929,0.0734961 0.0453425,0.0453504 0.0734961,0.107972 0.0734961,0.176929l0 3.78436c0,0.0689567 -0.0281535,0.131579 -0.0734961,0.176929 -0.0453504,0.0453425 -0.107972,0.0734961 -0.176929,0.0734961l-3.78436 0c-0.0689567,0 -0.131579,-0.0281535 -0.176929,-0.0734961 -0.0453425,-0.0453504 -0.0734961,-0.107972 -0.0734961,-0.176929l0 -3.78436c0,-0.0689567 0.0281535,-0.131579 0.0734961,-0.176929 0.0453504,-0.0453425 0.107972,-0.0734961 0.176929,-0.0734961zm0.156528 0.490425l0 3.30435c0,0.0461024 0.037374,0.0834764 0.0834764,0.0834764l3.30435 0c0.0461024,0 0.0834764,-0.037374 0.0834764,-0.0834764l0 -3.30435c0,-0.0461024 -0.037374,-0.0834764 -0.0834764,-0.0834764l-3.30435 0c-0.0461024,0 -0.0834764,0.037374 -0.0834764,0.0834764zm1.36847 1.31562l0.000248031 0.000401575 0.000311024 0.000511811c0.00105906,0.00173228 0.00214961,0.00343307 0.00328346,0.00511811l0.000456693 0.000673228 0.00129134 0.00186614 0.00030315 0.000440945 0.000165354 0.000228346 0.00161417 0.00220866 0.000464567 0.00061811 0.00145276 0.0018937 0.000311024 0.000405512 0.000129921 0.000165354c0.000586614,0.000748031 0.00119291,0.00148819 0.00179528,0.00222441l0.000389764 0.000472441c0.000641732,0.000771654 0.00128346,0.00153543 0.00194094,0.00229134l9.05512e-005 0.000106299 0.00185827 0.00208661 0.000559055 0.000622047 0.0017126 0.00183465 0.000267717 0.000291339 5.11811e-005 5.11811e-005 0.000161417 0.000165354 0.00179134 0.00183465 0.000673228 0.000673228 0.00204331 0.00199606 0.00215748 0.00200787 0.000566929 0.000519685c0.00152362,0.00137795 0.00308268,0.00272441 0.00466929,0.0040315l0.000204724 0.000173228 0.00227953 0.00183858 0.000106299 8.66142e-005 0.000110236 9.05512e-005 0.000444882 0.000338583 0.00184646 0.00141339 0.000692913 0.000519685 0.00219685 0.0016063 0.000177165 0.000125984 0.000334646 0.000232283 0.00220472 0.00152756 0.000358268 0.000240157 0.00241339 0.00159449 0.000240157 0.000153543 0.000141732 9.05512e-005 0.00244882 0.00152756 0.000405512 0.000248031 0.00242913 0.00144094 0.000311024 0.000181102 0.000287402 0.00015748 0.00244882 0.00137008 0.000334646 0.000185039 0.00246063 0.00129921 0.00038189 0.000200787 0.000488189 0.000240157 0.0020748 0.0010315 0.000681102 0.000334646 0.00264961 0.00123622 0.00057874 0.000255906 0.00223622 0.000980315 0.000732283 0.000311024c0.000885827,0.000374016 0.00177559,0.000740157 0.00267323,0.00109449l0.000622047 0.000240157 0.00229921 0.000874016 0.000692913 0.000259843 0.00264961 0.000933071 0.000889764 0.000295276c0.000834646,0.000279528 0.00166535,0.000555118 0.00250787,0.000814961l0.000255906 8.26772e-005c0.000992126,0.000307087 0.00198819,0.000598425 0.00298819,0.000885827l0.000622047 0.000177165 0.00252756 0.000685039 0.000397638 0.000106299 0.000354331 9.05512e-005 0.00266142 0.000645669 0.000901575 0.000204724 0.00227953 0.000496063 0.00053937 0.00011811 0.000287402 5.51181e-005c0.00092126,0.000188976 0.00185827,0.000362205 0.0027874,0.000531496l0.000724409 0.000129921 0.00269685 0.000448819 0.000350394 5.90551e-005 0.000220472 3.14961e-005 0.00286614 0.000397638 0.000775591 9.84252e-005 0.00309055 0.000354331 1.1811e-005 0 0.000149606 1.5748e-005c0.00105512,0.000106299 0.00211024,0.00019685 0.00317323,0.000279528l0.000409449 2.75591e-005c0.00108661,8.26772e-005 0.00216929,0.000153543 0.00326378,0.000212598l6.69291e-005 3.93701e-006 7.87402e-005 3.93701e-006 0.00312205 0.00011811 0.00080315 1.5748e-005c0.00105118,2.3622e-005 0.00210236,4.33071e-005 0.00315748,4.33071e-005 0.0768386,0 0.13913,-0.0622953 0.13913,-0.139134 0,-0.0768425 -0.0622913,-0.139134 -0.13913,-0.139134 -0.0011378,0 -0.00227559,1.1811e-005 -0.00340551,3.93701e-005l-0.000185039 3.93701e-006 -0.000137795 3.93701e-006c-0.00100787,2.3622e-005 -0.00200787,6.69291e-005 -0.00301181,0.000114173l-0.00042126 1.9685e-005 -0.000271654 1.5748e-005c-0.00223228,0.00011811 -0.00444488,0.000287402 -0.00665354,0.000507874l-0.000208661 1.9685e-005c-0.00107087,0.000114173 -0.00214173,0.000232283 -0.00320866,0.000366142l-0.000366142 4.72441e-005 -0.00294094 0.000409449 -0.000783465 0.00011811c-0.000972441,0.000153543 -0.00193701,0.000311024 -0.00289764,0.000480315l-0.00030315 5.90551e-005c-0.00101575,0.000181102 -0.00202756,0.000377953 -0.0030315,0.00057874l-0.000440945 9.05512e-005c-0.000980315,0.000200787 -0.00196457,0.000417323 -0.00293701,0.000641732l-0.000488189 0.000110236 -0.00263386 0.000641732 -0.000444882 0.000110236 -0.000314961 8.66142e-005c-0.00205512,0.000535433 -0.00408268,0.00111024 -0.00610236,0.00173228l-0.000185039 5.90551e-005 -0.000102362 3.14961e-005 -0.0028189 0.000913386 -0.000267717 9.05512e-005 -5.90551e-005 1.5748e-005 -0.000354331 0.000122047 -0.00274409 0.000972441 -0.00011811 3.93701e-005 -6.69291e-005 2.3622e-005c-0.00100787,0.000370079 -0.00201181,0.000755906 -0.00301181,0.00114567l-9.84252e-005 3.93701e-005 -0.000188976 7.48031e-005 -0.00265354 0.00108661 -0.000295276 0.00011811 -0.000307087 0.000133858c-0.00189764,0.000807087 -0.00377165,0.00165748 -0.00562992,0.00255118l-0.000228346 0.000106299 -0.000531496 0.000259843 -0.0021811 0.00108661 -0.000594488 0.00030315 -0.00262992 0.00138976 -0.000114173 6.29921e-005c-0.000909449,0.000492126 -0.00181102,0.000996063 -0.00270472,0.00151181l-0.000385827 0.000220472 -0.00255906 0.00151181 -0.000291339 0.000181102c-0.000885827,0.000543307 -0.00177165,0.00109055 -0.00264173,0.00164567l-0.000102362 7.08661e-005 -0.00242126 0.00158661 -0.000311024 0.000208661 -0.000220472 0.00015748 -0.00233071 0.00161024 -0.000200787 0.000137795 -0.000425197 0.000311024 -0.00218504 0.00159055 -9.44882e-005 7.08661e-005 -0.000106299 8.26772e-005 -0.00254724 0.00195669 -7.87402e-006 3.93701e-006c-0.000870079,0.000685039 -0.00173622,0.00138189 -0.00259055,0.00209055l-0.000110236 9.05512e-005c-0.000818898,0.000677165 -0.00163386,0.0013622 -0.00243307,0.00205906l-7.87402e-006 7.87402e-006 -0.000204724 0.000177165c-0.000704724,0.000606299 -0.0013937,0.00122835 -0.00208661,0.00185039l-0.000208661 0.000185039 -0.000295276 0.000271654 -0.0020315 0.00189764 -0.000204724 0.000192913 -0.00229921 0.00224803c-0.000751969,0.000751969 -0.00149213,0.00151181 -0.00222441,0.00227953l-0.000212598 0.000216535 -0.000437008 0.00046063 -0.248524 0c-0.0145512,-0.000208661 -0.0293465,0.00337795 -0.0428622,0.011185l0 0.000228346 -0.41726 0.240909 -0.500539 0 -0.010437 0 0 -0.739492 0.434386 0 0.364508 0.210449 -0.000181102 0.000311024c0.0135157,0.00780709 0.028311,0.0113937 0.0428622,0.0111811l0.230913 0 0.0183504 0.0112402c0.019874,0.0100197 0.0408898,0.0151378 0.0631693,0.0151378 0.0768425,0 0.139134,-0.0622913 0.139134,-0.13913 0,-0.0811457 -0.0689724,-0.144783 -0.14974,-0.138732 -0.0523858,0.0039252 -0.0965906,0.0364094 -0.117567,0.0845315l-0.163736 0 -0.35774 -0.206543c-0.0136339,-0.00970079 -0.0303189,-0.0154016 -0.0483268,-0.0154016l-0.456031 0 0 -0.411059 3.1374 0 0 0.370449 -0.0104409 0 -0.454776 0c-0.0173071,0 -0.0333898,0.00526772 -0.0467205,0.0142874l-0.359673 0.207661 -0.196803 0 -0.00116142 -0.00106299 -1.1811e-005 -1.5748e-005 -6.29921e-005 -5.51181e-005 -0.000161417 -0.000145669 -0.00215354 -0.00191339 -0.000181102 -0.00015748 -3.54331e-005 -3.14961e-005c-0.0015748,-0.0013622 -0.0031811,-0.00268504 -0.00481496,-0.00398031l-0.000708661 -0.000555118 -0.0020315 -0.00155512 -0.000476378 -0.000358268 -0.00224803 -0.00164173 -0.000409449 -0.000291339 -0.00250787 -0.00173228 -5.11811e-005 -3.14961e-005c-0.000913386,-0.000622047 -0.00183858,-0.00122835 -0.00277165,-0.00182677l-7.87402e-006 -3.93701e-006c-0.000917323,-0.000586614 -0.00183858,-0.00116929 -0.00277165,-0.00173228l-7.08661e-005 -4.72441e-005 -0.000220472 -0.000133858c-0.000854331,-0.000515748 -0.00171654,-0.00101969 -0.00257874,-0.00151575l-9.44882e-005 -5.90551e-005 -8.66142e-005 -4.72441e-005c-0.00092126,-0.000535433 -0.00185433,-0.00105512 -0.00279528,-0.00156693l-5.11811e-005 -2.3622e-005 -0.0027874 -0.00147638 -0.000188976 -9.84252e-005 -0.000248031 -0.000122047c-0.00285827,-0.00145669 -0.00576772,-0.00281496 -0.00873228,-0.0040748l-0.000535433 -0.000224409 -0.00257874 -0.00105512 -0.000433071 -0.000169291 -0.00285039 -0.00108268 -0.000208661 -7.87402e-005c-0.000980315,-0.000354331 -0.00196457,-0.000708661 -0.00295276,-0.00104331l-0.000295276 -9.84252e-005 -0.00294488 -0.000952756 -0.000188976 -6.29921e-005 -0.000279528 -8.26772e-005 -0.00300394 -0.000893701 -0.000129921 -3.54331e-005c-0.00102756,-0.000291339 -0.00205906,-0.000570866 -0.00309449,-0.000838583l-6.29921e-005 -1.5748e-005 -3.14961e-005 -7.87402e-006 -0.000165354 -4.33071e-005c-0.000996063,-0.000255906 -0.00199213,-0.0005 -0.00299606,-0.000732283l-0.000188976 -4.33071e-005 -0.000240157 -5.51181e-005c-0.00104331,-0.00023622 -0.00209055,-0.000468504 -0.00314173,-0.000681102 -0.00111417,-0.000228346 -0.00223228,-0.000444882 -0.00335827,-0.000645669l-0.000129921 -1.9685e-005c-0.00101181,-0.000181102 -0.0020315,-0.000346457 -0.00305118,-0.000503937l-0.000653543 -0.000102362 -0.00294488 -0.000413386 -0.000314961 -3.93701e-005c-0.00104331,-0.000129921 -0.00209449,-0.000251969 -0.00314567,-0.000358268l-0.000366142 -3.54331e-005c-0.00105512,-0.000106299 -0.00211811,-0.000200787 -0.0031811,-0.000283465l-0.000318898 -2.75591e-005c-0.00109055,-7.87402e-005 -0.00218504,-0.000149606 -0.00328346,-0.000208661l-0.000129921 -7.87402e-006 -0.000330709 -1.5748e-005c-0.00101969,-5.11811e-005 -0.00203937,-8.26772e-005 -0.00306299,-0.000110236l-0.000177165 -7.87402e-006 -0.000165354 -3.93701e-006c-0.0011378,-2.75591e-005 -0.00227559,-4.33071e-005 -0.0034252,-4.33071e-005 -0.0768386,0 -0.13913,0.0622953 -0.13913,0.139134 0,0.0768386 0.0622913,0.139126 0.13913,0.139126 0.00109843,0 0.00218898,-1.5748e-005 0.00327559,-3.93701e-005l0.000692913 -1.9685e-005 0.00270472 -0.000102362 0.000488189 -1.9685e-005 0.000291339 -1.5748e-005 0.00292126 -0.000188976 0.00084252 -6.69291e-005 0.00265748 -0.000232283 0.000503937 -5.11811e-005c0.00103937,-0.000106299 0.0020748,-0.000228346 0.00311024,-0.000354331l0.000850394 -0.000114173 0.00227559 -0.000314961 0.000893701 -0.000133858c0.000972441,-0.000149606 0.00194488,-0.000311024 0.00291339,-0.000484252l0.000208661 -3.54331e-005 0.000307087 -5.90551e-005 0.00277953 -0.000531496 0.000614173 -0.000122047 0.0029252 -0.000637795 0.000165354 -3.93701e-005 7.08661e-005 -1.5748e-005c0.000992126,-0.000228346 0.00198819,-0.000476378 0.00297244,-0.000724409l0.000708661 -0.000181102c0.0020748,-0.000543307 0.00412598,-0.00112598 0.00616535,-0.00175984l0.00011811 -3.93701e-005 0.0026063 -0.00084252 0.000893701 -0.00030315c0.000956693,-0.000322835 0.00190945,-0.000653543 0.00285433,-0.00100394l0.000106299 -3.93701e-005c0.000897638,-0.000326772 0.00179921,-0.000673228 0.00268898,-0.00101969l0.000688976 -0.000271654c0.000917323,-0.000362205 0.00183465,-0.000732283 0.00273622,-0.00111417l0.000125984 -5.51181e-005c0.000988189,-0.000417323 0.0019685,-0.000854331 0.00294882,-0.00129134l0.000299213 -0.000137795c0.000913386,-0.000409449 0.00181496,-0.000834646 0.00271654,-0.00126378l0.00019685 -9.05512e-005 0.000125984 -6.29921e-005 0.00265748 -0.00132283 0.000633858 -0.000326772 0.00211024 -0.00111024 0.000625984 -0.000338583 0.00268504 -0.0015 0.000275591 -0.000161417 0.00244094 -0.00144094 0.000429134 -0.000259843c0.000874016,-0.000535433 0.00174409,-0.00107087 0.0026063,-0.00162598l0.000334646 -0.000216535 0.00227165 -0.00149606 0.000484252 -0.000326772 0.00248425 -0.00172441 3.93701e-006 0 5.51181e-005 -3.93701e-005 0.00023622 -0.000173228 0.00217717 -0.00158661 0.000570866 -0.000429134 0.00205118 -0.00156693 0.000322835 -0.000248031 0.00015748 -0.000125984 0.00228346 -0.00184252 0.000393701 -0.000322835 0.00193307 -0.00164173 0.000574803 -0.000492126 0.00219291 -0.00194488 0.00034252 -0.000314961 0.00183465 -0.00170472 0.000629921 -0.000598425 0.00194882 -0.00189764 0.000188976 -0.000188976 0.000232283 -0.000240157 0.00173228 -0.00177165 0.000653543 -0.000688976 0.00198425 -0.00212992 3.93701e-006 -3.93701e-006c0.000681102,-0.000744094 0.00134252,-0.0015 0.00200394,-0.00225591l0.000472441 -0.000547244 0.00149213 -0.00176772 0.000562992 -0.000673228 0.00166535 -0.00206299 0.000661417 -0.000850394 0.00128346 -0.00166929 0.000531496 -0.000712598 0.00168898 -0.00231102 0.000417323 -0.000598425 0.00127953 -0.00184252 0.000515748 -0.00076378 0.00153937 -0.00233071 0.000110236 -0.000169291 0.000295276 -0.000476378 0.00126378 -0.00202756 0.000440945 -0.000724409 0.00148425 -0.00250787 3.54331e-005 -6.29921e-005 0.00129921 -0.00232677 0.00065748 -0.00120472 0.000299213 -0.000555118 0.189449 0c0.0145512,0.000208661 0.0293465,-0.00337795 0.0428622,-0.011185l0 -0.000228346 0.364654 -0.210535 0.432803 0 0.0104409 0 0 0.780102 -0.0104409 0 -0.500539 0 -0.41726 -0.240909 0 -0.000228346c-0.0135157,-0.00780709 -0.028311,-0.0113937 -0.0428622,-0.011185l-0.248524 0 -0.000437008 -0.00046063 -0.000220472 -0.000224409 -0.00204331 -0.00209843 -0.00034252 -0.00034252c-0.000700787,-0.00069685 -0.00140945,-0.0013937 -0.00212598,-0.0020748l-0.000208661 -0.00019685 -0.0020315 -0.00189764 -0.000295276 -0.000271654 -0.000212598 -0.000185039 -0.00208268 -0.00185039 -0.000204724 -0.000177165 -7.87402e-006 -7.87402e-006c-0.000799213,-0.00069685 -0.00161024,-0.00138189 -0.00243307,-0.00205906l-0.000110236 -9.05512e-005c-0.000854331,-0.000708661 -0.00172047,-0.00140551 -0.00259055,-0.00209055l-7.87402e-006 -3.93701e-006c-0.00084252,-0.000661417 -0.00168898,-0.00131496 -0.00254724,-0.00195669l-0.000106299 -8.26772e-005 -9.44882e-005 -7.08661e-005 -0.00218504 -0.00159055 -0.000425197 -0.000311024 -0.000200787 -0.000137795c-0.000767717,-0.000547244 -0.00154724,-0.00108268 -0.00233071,-0.00161024l-0.000220472 -0.00015748 -0.000311024 -0.000208661 -0.00242126 -0.00158661 -0.000102362 -7.08661e-005c-0.000877953,-0.000555118 -0.00175591,-0.0011063 -0.00264173,-0.00164567l-0.000291339 -0.000181102 -0.00255906 -0.00151181 -0.000385827 -0.000220472c-0.000893701,-0.000515748 -0.00179528,-0.00101969 -0.00270472,-0.00151181l-0.000114173 -6.29921e-005c-0.000866142,-0.000472441 -0.00174803,-0.000937008 -0.00262992,-0.00138976l-0.000594488 -0.00030315 -0.0021811 -0.00108661 -0.000531496 -0.000259843 -0.000228346 -0.000106299c-0.00185827,-0.000893701 -0.00373228,-0.00174409 -0.00562992,-0.00255118l-0.000307087 -0.000133858 -0.000295276 -0.00011811 -0.00265354 -0.00108661 -0.000188976 -7.48031e-005 -9.84252e-005 -3.93701e-005c-0.001,-0.000393701 -0.00200394,-0.000779528 -0.00301181,-0.00114567l-6.69291e-005 -2.3622e-005 -0.00011811 -3.93701e-005 -0.00274409 -0.000972441 -0.000354331 -0.000122047 -5.90551e-005 -1.5748e-005 -0.000271654 -9.05512e-005 -0.00281496 -0.000913386 -0.000102362 -3.14961e-005 -0.000185039 -5.90551e-005c-0.00201969,-0.000622047 -0.00404724,-0.00119685 -0.00610236,-0.00173228l-0.000314961 -8.66142e-005 -0.000444882 -0.000110236 -0.00263386 -0.000641732 -0.000488189 -0.000110236c-0.000976378,-0.000224409 -0.00195669,-0.000440945 -0.00293701,-0.000641732l-0.000440945 -9.05512e-005c-0.001,-0.000204724 -0.00201575,-0.000393701 -0.0030315,-0.00057874l-0.00030315 -5.90551e-005c-0.00096063,-0.000169291 -0.00192126,-0.000326772 -0.00289764,-0.000480315l-0.000783465 -0.00011811 -0.00294094 -0.000409449 -0.000366142 -4.72441e-005c-0.00106299,-0.000133858 -0.0021378,-0.000251969 -0.00320866,-0.000366142l-0.000208661 -1.9685e-005c-0.00220472,-0.000220472 -0.00442126,-0.000389764 -0.00665354,-0.000507874l-0.000275591 -1.5748e-005 -0.000417323 -1.9685e-005 -0.00301181 -0.000114173 -0.000137795 -3.93701e-006 -0.000185039 -3.93701e-006c-0.00112992,-2.75591e-005 -0.00226772,-3.93701e-005 -0.00340551,-3.93701e-005 -0.0768386,0 -0.13913,0.0622913 -0.13913,0.139134 0,0.0768386 0.0622913,0.139134 0.13913,0.139134 0.00105512,0 0.0021063,-1.9685e-005 0.00315748,-4.33071e-005l0.00080315 -1.5748e-005 0.00312205 -0.00011811 7.48031e-005 -3.93701e-006 7.08661e-005 -3.93701e-006c0.00109449,-5.90551e-005 0.00217323,-0.000133858 0.00326378,-0.000212598l0.000409449 -2.75591e-005 0.00317323 -0.000279528 0.000149606 -1.5748e-005 1.1811e-005 0c0.00103543,-0.000106299 0.00206693,-0.000220472 0.00309055,-0.000354331l0.000775591 -9.84252e-005 0.00286614 -0.000397638 0.000220472 -3.14961e-005 0.000350394 -5.90551e-005 0.00269685 -0.000448819 0.000724409 -0.000129921c0.000933071,-0.000173228 0.0018622,-0.00034252 0.0027874,-0.000531496l0.000287402 -5.51181e-005 0.00053937 -0.00011811 0.00227953 -0.000496063 0.000901575 -0.000204724 0.00266142 -0.000645669 0.000354331 -9.05512e-005 0.000397638 -0.000106299 0.00252756 -0.000685039 0.000622047 -0.000177165c0.00100394,-0.000283465 0.00199606,-0.00057874 0.00298819,-0.000885827l0.000255906 -8.26772e-005 0.00250787 -0.000814961 0.000889764 -0.000295276 0.00264961 -0.000933071 0.000692913 -0.000259843 0.00229921 -0.000874016 0.000622047 -0.000240157c0.000897638,-0.000354331 0.0017874,-0.000720472 0.00267323,-0.00109449l0.000732283 -0.000311024 0.00223622 -0.000980315 0.00057874 -0.000255906 0.00264961 -0.00123622 0.000681102 -0.000334646 0.0020748 -0.0010315 0.000488189 -0.000240157 0.00038189 -0.000200787 0.00246063 -0.00129921 0.000334646 -0.000185039 0.00244882 -0.00137008 0.000287402 -0.00015748 0.000311024 -0.000181102 0.00242913 -0.00144094 0.000405512 -0.000248031 0.00244882 -0.00152756 0.000141732 -9.05512e-005 0.000240157 -0.000153543 0.00241339 -0.00159449 0.000358268 -0.000240157 0.00220079 -0.00152756 0.000338583 -0.000232283 0.000177165 -0.000125984 0.00219685 -0.0016063 0.000688976 -0.000519685 0.00185039 -0.00141339 0.000444882 -0.000338583 0.000110236 -9.05512e-005 0.000106299 -8.66142e-005 0.00227953 -0.00183858 0.000204724 -0.000173228c0.00158661,-0.00130709 0.00314567,-0.00265354 0.00466929,-0.0040315l0.000566929 -0.000519685 0.00215748 -0.00200787 0.00191339 -0.00186614 0.000940945 -0.000940945 0.00158661 -0.00162992 0.000228346 -0.000232283 5.11811e-005 -5.11811e-005 0.000267717 -0.000291339 0.00170866 -0.00183465 0.000562992 -0.000622047 0.00185827 -0.00208661 9.05512e-005 -0.000106299c0.00065748,-0.000755906 0.00129921,-0.00151969 0.00194094,-0.00229134l0.000389764 -0.000472441 0.00179528 -0.00222441 0.000129921 -0.000165354 0.000311024 -0.000405512 0.00145276 -0.0018937 0.000464567 -0.00061811 0.00161417 -0.00220866 0.000161417 -0.000228346 0.000307087 -0.000440945 0.00129134 -0.00186614 0.000456693 -0.000673228c0.00113386,-0.00168504 0.00222441,-0.00338583 0.00328346,-0.00511811l0.000311024 -0.000511811 0.000248031 -0.000401575 0.209571 0 0.412276 0.238031c0.0133307,0.00902362 0.0294134,0.0142913 0.0467205,0.0142913l0.522512 0 0.0104409 0 0 0.367772 -0.0104409 0 -0.432803 0 -0.364654 -0.210535 0 -0.000232283c-0.0135157,-0.00780709 -0.028311,-0.0113898 -0.0428622,-0.0111811l-0.18052 0 -0.00173228 -0.0020315 -0.000204724 -0.000240157c-0.0013937,-0.00160236 -0.0028189,-0.00317323 -0.00427953,-0.0047126l-0.000102362 -0.000106299 -1.9685e-005 -1.5748e-005c-0.000724409,-0.000767717 -0.00145669,-0.00151181 -0.00220079,-0.00225591l-0.000110236 -0.00011811 -0.000181102 -0.000177165 -0.00209449 -0.00203937 -0.000177165 -0.000173228c-0.000755906,-0.000716535 -0.00151575,-0.00142913 -0.0022874,-0.00212992l-0.000192913 -0.000177165c-0.00231102,-0.00209449 -0.00469291,-0.00411024 -0.00714173,-0.00604724l-0.000637795 -0.000507874 -0.00221654 -0.00170079 -0.000413386 -0.000311024 -0.0023622 -0.00172047 -0.000405512 -0.000283465 -0.00225591 -0.00156693 -0.000228346 -0.000153543 -0.00015748 -0.000102362c-0.000874016,-0.000594488 -0.00175197,-0.00117323 -0.00264173,-0.00174016l-0.000106299 -7.08661e-005c-0.00088189,-0.000566929 -0.00176772,-0.00111417 -0.00266535,-0.00166142l-0.000122047 -7.48031e-005 -0.00275197 -0.00162598 -0.000177165 -0.000102362c-0.00187402,-0.00107874 -0.00377165,-0.00211024 -0.00570079,-0.00309843l-0.000125984 -6.69291e-005 -0.000173228 -8.66142e-005 -0.00270079 -0.00134252 -0.000145669 -7.08661e-005 -0.00023622 -0.000114173 -0.00272047 -0.00126378 -0.000185039 -8.26772e-005 -0.00270079 -0.00118504 -0.000688976 -0.000291339 -0.00267717 -0.00109449 -0.000311024 -0.000122047c-0.000980315,-0.000385827 -0.00196063,-0.00076378 -0.00295669,-0.00112205l-3.93701e-006 0 -0.00281496 -0.000992126 -0.000401575 -0.000141732 -0.00038189 -0.000129921 -0.00274016 -0.00088189 -0.000220472 -7.08661e-005c-0.00103543,-0.000318898 -0.0020748,-0.000633858 -0.00311811,-0.000929134l-0.000181102 -4.72441e-005 -0.00293701 -0.00080315 -0.000271654 -6.69291e-005 -0.000177165 -4.33071e-005 -0.003 -0.000732283 -0.000177165 -4.33071e-005 -0.000125984 -2.75591e-005c-0.00104724,-0.000244094 -0.00210236,-0.000468504 -0.00315748,-0.000688976l-0.000153543 -3.14961e-005c-0.00100787,-0.000204724 -0.00201575,-0.000397638 -0.0030315,-0.00057874l-0.000590551 -0.000106299 -0.00294488 -0.000488189 -0.000688976 -0.000106299 -0.0028622 -0.000401575 -0.000145669 -1.5748e-005c-0.0011063,-0.000145669 -0.00221654,-0.000267717 -0.00333465,-0.00038189l-0.00015748 -1.5748e-005 -0.000279528 -3.14961e-005 -0.00298819 -0.000259843 -0.000413386 -3.14961e-005 -0.00317717 -0.000204724 -0.000456693 -1.9685e-005c-0.00096063,-5.11811e-005 -0.00192126,-9.05512e-005 -0.00288976,-0.000114173l-0.000429134 -1.1811e-005 -0.00026378 -3.93701e-006c-0.0011063,-2.75591e-005 -0.0022126,-4.33071e-005 -0.00332677,-4.33071e-005 -0.0768386,0 -0.13913,0.0622913 -0.13913,0.139134 0,0.0768425 0.0622913,0.13913 0.13913,0.13913 0.00109449,0 0.00219291,-1.5748e-005 0.00328346,-3.93701e-005l0.000555118 -1.5748e-005 0.00305512 -0.00011811 0.000688976 -3.54331e-005 0.00281496 -0.000177165 0.000307087 -1.9685e-005 0.000413386 -3.54331e-005 0.00285039 -0.000251969 0.000598425 -6.29921e-005 0.00299606 -0.000346457 0.000114173 -1.1811e-005 3.93701e-005 -3.93701e-006 0.000291339 -3.93701e-005 0.00266929 -0.000374016 0.000870079 -0.000129921 0.00293701 -0.000488189 0.000429134 -7.87402e-005 0.00287402 -0.000547244 0.000358268 -7.48031e-005 0.00288583 -0.000629921 0.000791339 -0.000181102 0.00286614 -0.00069685 8.26772e-005 -1.9685e-005 0.000208661 -5.90551e-005 0.00291339 -0.000787402 0.00030315 -8.66142e-005c0.00102756,-0.000291339 0.00205118,-0.000590551 0.0030748,-0.000913386l0.000318898 -0.000102362 0.00277165 -0.000897638 0.000354331 -0.00011811 0.00281102 -0.000988189 0.000653543 -0.000244094 0.00272441 -0.0010315 0.000110236 -4.33071e-005c0.000980315,-0.000385827 0.00195276,-0.000787402 0.0029252,-0.00119685l0.000326772 -0.000133858 0.00285827 -0.00125197 0.000350394 -0.000161417 0.00261024 -0.00122047 0.000232283 -0.000106299 0.000248031 -0.00011811 0.00251969 -0.00125984 0.000606299 -0.000307087c0.000834646,-0.000429134 0.00166142,-0.000862205 0.00248425,-0.00131102l0.000141732 -7.48031e-005 0.000295276 -0.000161417c0.00181102,-0.000992126 0.00360236,-0.00202362 0.00536614,-0.00309055l0.000444882 -0.000275591 0.00227953 -0.00142126 0.000283465 -0.000177165 0.000200787 -0.000125984c0.000866142,-0.000555118 0.00172047,-0.00112598 0.00257087,-0.00169685l5.90551e-005 -4.72441e-005 0.00255906 -0.00176378 0.000161417 -0.00011811 5.51181e-005 -3.93701e-005c0.00084252,-0.000594488 0.00166535,-0.00120472 0.00249213,-0.00181496l0.000240157 -0.000177165c0.000818898,-0.00061811 0.0016378,-0.00124016 0.00244882,-0.00187795l0.00034252 -0.000271654c0.00080315,-0.000629921 0.00159449,-0.00126772 0.00237795,-0.00191732l0.000153543 -0.000122047 0.00222835 -0.00188583 0.00034252 -0.000307087 0.00214961 -0.00190157 0.000177165 -0.00015748 0.000224409 -0.000212598 0.00181496 -0.00168898 0.000622047 -0.000582677 0.00194488 -0.00190157 0.000582677 -0.000586614 0.0019252 -0.00197244 5.11811e-005 -4.72441e-005 0.000106299 -0.000114173 0.00182283 -0.00196063 0.00065748 -0.000724409 0.00172047 -0.00193701 0.000181102 -0.000208661 8.66142e-005 -9.84252e-005 0.00193701 -0.00229134 0.000212598 -0.000255906 0.00179528 -0.00222441 0.000559055 -0.000716535 0.00144094 -0.00188583 0.000259843 -0.000334646 6.29921e-005 -9.05512e-005 4.33071e-005 -5.90551e-005c0.000507874,-0.000673228 0.001,-0.00135827 0.00149606,-0.00204724l0.000775591 -0.00108661 0.000129921 -0.000188976 0.00118898 -0.00171654 0.151512 0 0.359673 0.207657c0.0133307,0.00902362 0.0294134,0.0142913 0.0467205,0.0142913l0.454776 0 0.0104409 0 0 0.192008 -0.0104409 0 -0.454776 0c-0.0173071,0 -0.0333898,0.00526378 -0.0467205,0.0142874l-0.359673 0.207657 -0.181079 0c-0.000956693,-0.00124803 -0.00194094,-0.00248031 -0.00293701,-0.00369685l-0.000397638 -0.000480315 -0.00176378 -0.00208661 -0.000480315 -0.000555118 -0.00187008 -0.00210236 -7.48031e-005 -8.26772e-005 -7.87402e-006 -7.87402e-006 -5.51181e-005 -6.29921e-005 -0.0019252 -0.00206299 -0.000468504 -0.0005 -0.00196457 -0.00201181 -0.000366142 -0.000366142 -0.00204724 -0.002 -0.00015748 -0.000153543 -0.000377953 -0.000346457 -0.00185039 -0.00172441 -0.000216535 -0.000200787 -0.00026378 -0.000240157 -0.00202756 -0.00179528 -0.000409449 -0.000354331 -0.002 -0.00169685 -0.000346457 -0.000287402 -0.000401575 -0.000322835 -0.00180315 -0.00145669 -0.000393701 -0.000314961 -0.000106299 -7.87402e-005 -7.48031e-005 -6.29921e-005 -0.00216535 -0.00165354 -0.000594488 -0.000444882 -0.00214173 -0.00156299 -0.000669291 -0.000480315 -0.00227165 -0.00157087 -8.66142e-005 -5.90551e-005 -1.1811e-005 -7.87402e-006 -0.00244882 -0.00161417 -0.000484252 -0.000311024 -0.00250787 -0.00156693 -0.000401575 -0.000240157c-0.000885827,-0.000535433 -0.00177165,-0.00106693 -0.00266535,-0.00157874l-5.90551e-005 -2.75591e-005 -0.00234646 -0.0013189 -0.00102756 -0.000559055 -0.00217717 -0.00114567 -0.000551181 -0.000283465c-0.0019252,-0.000984252 -0.00387402,-0.0019252 -0.00585433,-0.00281496l-3.93701e-006 -3.93701e-006 -0.0027126 -0.00118898 -0.000665354 -0.000283465c-0.00088189,-0.000370079 -0.00176772,-0.00073622 -0.00265748,-0.00108268l-0.000452756 -0.000181102c-0.000972441,-0.000377953 -0.00194488,-0.000751969 -0.00292126,-0.00111024l-1.9685e-005 -3.93701e-006 -0.00254331 -0.000897638 -0.000968504 -0.000334646 -0.00268504 -0.000866142 -0.000480315 -0.000153543c-0.000996063,-0.000307087 -0.00199606,-0.000602362 -0.00300394,-0.000889764l-0.000173228 -5.11811e-005 -0.00284646 -0.000771654 -0.000350394 -9.44882e-005 -0.00011811 -2.75591e-005 -5.11811e-005 -1.1811e-005 -0.00292126 -0.000716535 -0.000433071 -9.84252e-005 -0.00303543 -0.000661417 -0.000425197 -8.66142e-005 -0.00304331 -0.000582677 -0.000114173 -1.9685e-005 -0.000149606 -2.75591e-005 -0.00272441 -0.000448819 -0.000885827 -0.000141732 -0.00269291 -0.000374016 -0.000905512 -0.000114173 -0.00268504 -0.000311024 -0.000358268 -3.93701e-005 -0.000220472 -1.9685e-005c-0.00218504,-0.000220472 -0.00438583,-0.000385827 -0.00659843,-0.0005l-0.000480315 -2.3622e-005c-0.00104724,-5.51181e-005 -0.00209449,-9.05512e-005 -0.00314173,-0.000122047l-0.000547244 -1.1811e-005c-0.00107874,-2.3622e-005 -0.00215748,-3.93701e-005 -0.00324016,-3.93701e-005 -0.0768386,0 -0.13913,0.0622874 -0.13913,0.13913 0,0.0768386 0.0622913,0.13913 0.13913,0.13913 0.00106693,0 0.00211811,-1.9685e-005 0.00317717,-4.33071e-005l0.000704724 -1.5748e-005c0.000976378,-2.3622e-005 0.00195276,-6.29921e-005 0.00292126,-0.000110236l0.000795276 -4.33071e-005c0.0010315,-5.51181e-005 0.00205906,-0.000114173 0.00308661,-0.000192913l2.3622e-005 -3.93701e-006c0.00106693,-8.26772e-005 0.00212992,-0.000181102 0.00319685,-0.000283465l0.000570866 -5.51181e-005 0.0029685 -0.000338583 0.00061811 -8.26772e-005 0.00307874 -0.000425197 5.11811e-005 -7.87402e-006c0.000988189,-0.000153543 0.00197638,-0.000322835 0.00296063,-0.000496063l0.00080315 -0.000137795 0.00276378 -0.000531496 0.000755906 -0.000153543 0.00287402 -0.000625984 7.08661e-005 -1.5748e-005 6.29921e-005 -1.5748e-005 0.00281496 -0.000688976 0.000712598 -0.000177165c0.000972441,-0.000251969 0.00194882,-0.000515748 0.00290945,-0.000791339l0.000346457 -9.84252e-005c0.00100787,-0.000287402 0.00201575,-0.000582677 0.00301181,-0.000893701l9.44882e-005 -3.14961e-005 0.000224409 -7.08661e-005 0.00248031 -0.00080315 0.000877953 -0.000295276 0.00267717 -0.000940945 0.000511811 -0.000192913c0.000925197,-0.00034252 0.00184252,-0.000681102 0.00275984,-0.00104331l0.000110236 -4.72441e-005 0.00264567 -0.00107874 0.000795276 -0.000334646 0.00259843 -0.0011378 0.000480315 -0.000220472 0.00235827 -0.00109843 0.000976378 -0.000464567 0.00215748 -0.00107874 0.00046063 -0.000232283 0.00241339 -0.00127165 0.000807087 -0.000437008 0.00240157 -0.00134646 0.000141732 -8.26772e-005 0.00015748 -8.66142e-005 0.00248031 -0.0014685 0.000425197 -0.000259843 0.00237402 -0.00147638 0.000645669 -0.000417323 0.00229921 -0.00151181 0.00015748 -0.000106299 1.1811e-005 -7.87402e-006 0.00233465 -0.00161417 0.000637795 -0.000456693 0.00219685 -0.00159843 0.000574803 -0.000429134 0.00218504 -0.00167323 0.000169291 -0.000129921 0.00023622 -0.00019685 0.00201969 -0.00162598 0.00034252 -0.000275591 0.000346457 -0.000287402 0.00200787 -0.00170079 0.000393701 -0.00034252c0.00144488,-0.00125984 0.00286614,-0.00254724 0.00425984,-0.0038622l0.000744094 -0.000708661 0.00194488 -0.00189764 0.000366142 -0.000366142 0.00197244 -0.00201575 0.000177165 -0.000185039 0.000228346 -0.000240157 0.00198425 -0.0021378 8.26772e-005 -8.66142e-005c0.000669291,-0.000740157 0.00133465,-0.00148819 0.00198819,-0.00224409l0.000464567 -0.000531496 0.00172047 -0.00203543 0.000181102 -0.000216535 0.000204724 -0.000255906 0.00164961 -0.00205118 0.000240157 -0.000295276 0.000232283 -0.000299213c0.000551181,-0.00069685 0.00109055,-0.00140945 0.00162205,-0.00212205l0.000334646 -0.000440945 0.000464567 -0.000625984 0.200327 0c0.0145512,0.000212598 0.0293465,-0.00337402 0.0428622,-0.0111811l0 -0.000228346 0.364654 -0.210539 0.432803 0 0.0104409 0 0 0.759248 -3.1374 0 0 -0.728898 0.010437 0 0.43313 0 0.364508 0.210449 -0.000181102 0.000311024c0.0135157,0.00780709 0.028311,0.0113937 0.0428622,0.0111811l0.230913 0 0.000807087 0.000582677 0.000173228 0.000125984 9.44882e-005 6.69291e-005c0.00176772,0.00125197 0.00356693,0.00246457 0.0053937,0.00364173l6.29921e-005 4.33071e-005 4.33071e-005 2.75591e-005c0.000740157,0.000480315 0.0015,0.000944882 0.00225591,0.00140945l0.000547244 0.000334646 0.000106299 6.69291e-005c0.000917323,0.000559055 0.00185039,0.00110236 0.00277953,0.0016378l7.87402e-006 3.93701e-006 0.00270866 0.00152362 0.000437008 0.000232283 0.00265354 0.00140157 5.11811e-005 2.3622e-005 5.90551e-005 3.14961e-005 0.000169291 8.66142e-005 0.00259843 0.00129134 0.000468504 0.000224409 0.00272441 0.00127559 0.000125984 5.11811e-005c0.000968504,0.000440945 0.00194488,0.000870079 0.00293307,0.0012874l0.000165354 7.48031e-005 0.000464567 0.000192913c0.000826772,0.000350394 0.00165748,0.000688976 0.00249213,0.00101575l0.000185039 7.08661e-005 0.000173228 6.69291e-005c0.000992126,0.000389764 0.00199213,0.000767717 0.00298819,0.00113386l3.14961e-005 1.1811e-005 0.00294882 0.00104331 0.000248031 8.66142e-005 0.000185039 6.29921e-005c0.00199213,0.000669291 0.00400787,0.00129528 0.00603543,0.00187795l0.000314961 9.05512e-005 7.48031e-005 1.9685e-005 0.00306693 0.000830709 0.000177165 4.72441e-005 0.000311024 7.87402e-005 0.00265354 0.000649606 0.000385827 9.05512e-005 0.000244094 5.11811e-005c0.00214173,0.000496063 0.00429921,0.000933071 0.00648031,0.00132283l0.000141732 2.75591e-005c0.00106299,0.000192913 0.00212992,0.000370079 0.00320866,0.000531496l0.000153543 2.75591e-005 0.000192913 2.75591e-005c0.0010315,0.00015748 0.00207087,0.000299213 0.0031063,0.000429134l0.000314961 4.33071e-005c0.0010748,0.000133858 0.00214567,0.000259843 0.00322835,0.000370079l0.000122047 1.1811e-005 0.000129921 1.1811e-005c0.00109843,0.000110236 0.00220866,0.000208661 0.00331102,0.000291339l0.000208661 1.5748e-005c0.0011378,8.26772e-005 0.00227559,0.000161417 0.00341732,0.000220472l6.29921e-005 3.93701e-006c0.00108661,4.72441e-005 0.00217323,9.44882e-005 0.00326378,0.000122047l0.00046063 1.1811e-005c0.00112205,2.75591e-005 0.00224409,4.33071e-005 0.00337008,4.33071e-005 0.0768425,0 0.139134,-0.0622913 0.139134,-0.13913 0,-0.0768425 -0.0622913,-0.13913 -0.139134,-0.13913 -0.00108661,0 -0.00217717,1.5748e-005 -0.00325591,3.93701e-005l-0.000952756 2.75591e-005 -0.00222441 8.26772e-005 -0.00116929 5.90551e-005 -0.00300394 0.000188976 -9.44882e-005 7.87402e-006 -3.93701e-006 0 -0.000110236 7.87402e-006c-0.00101575,7.87402e-005 -0.00201969,0.000169291 -0.00302362,0.000271654l-0.00104331 0.000106299 -0.00229134 0.00026378 -0.000814961 9.84252e-005 -0.00292913 0.000409449 -0.00026378 3.93701e-005 -7.87402e-006 0 -0.000338583 5.51181e-005c-0.000925197,0.000145669 -0.00184646,0.000291339 -0.00276378,0.000456693l-0.000968504 0.000177165 -0.00224016 0.000433071 -0.000783465 0.000153543c-0.000925197,0.000192913 -0.00184252,0.000385827 -0.00275984,0.000602362l-0.000366142 7.87402e-005 -7.87402e-006 0 -0.00053937 0.000133858 -0.00241732 0.000590551 -0.000940945 0.000244094 -0.00231102 0.000625984 -0.000771654 0.000220472 -0.00296063 0.000877953 -1.1811e-005 3.93701e-006c-0.000976378,0.000299213 -0.00194882,0.000614173 -0.00291339,0.000940945l-0.000992126 0.00034252 -0.00207087 0.000728346 -0.000704724 0.000255906 -0.00254331 0.000964567 -0.000401575 0.00015748 -1.5748e-005 3.93701e-006 -0.000606299 0.000244094 -0.00216929 0.000889764 -0.000838583 0.000358268 -0.00244094 0.00106693 -0.000291339 0.000129921c-0.00190945,0.000870079 -0.00379921,0.00177559 -0.00566142,0.00272441l-0.000940945 0.000484252 -0.00165748 0.000874016 -0.00104331 0.000559055c-0.000862205,0.000472441 -0.00172047,0.000944882 -0.00257087,0.00144094l-1.5748e-005 1.1811e-005 -0.00267323 0.00157874 -0.000622047 0.00038189 -0.00182283 0.00113386 -0.00102756 0.000661417 -0.00237402 0.00155512 -1.9685e-005 1.5748e-005c-0.000807087,0.000543307 -0.0016063,0.00110236 -0.00240157,0.00166535l-0.000850394 0.000606299 -0.00177953 0.00129921 -0.000665354 0.000492126 -0.00197638 0.00151575 -0.000409449 0.000318898 -2.75591e-005 1.5748e-005 -0.000622047 0.000503937 -0.00161811 0.00130315 -0.00080315 0.000661417 -0.00172047 0.00145669 -0.00061811 0.000531496 -0.00201969 0.00179528 -0.000220472 0.00019685 -2.75591e-005 1.9685e-005 -0.000287402 0.000271654 -0.00188976 0.00175197 -0.000787402 0.000759843 -0.00146457 0.00143307 -0.000562992 0.000559055 -0.00207087 0.00211811 -7.48031e-005 7.48031e-005 -2.3622e-005 2.3622e-005 -0.000188976 0.000200787 -0.00191732 0.00206299 -0.000468504 0.000519685 -0.00155906 0.00175591 -0.000535433 0.000610236 -0.00190945 0.00225984 -4.33071e-005 5.51181e-005 -2.75591e-005 3.14961e-005 -0.000188976 0.00023622c-0.00057874,0.000708661 -0.00115748,0.00141732 -0.00172047,0.0021378l-0.000401575 0.000511811 -0.00168898 0.00220472 -0.000204724 0.000271654 -0.00179134 0.00245276 -7.87402e-005 0.000106299 -2.3622e-005 3.54331e-005 -0.000192913 0.000279528 -0.00155512 0.00224016 -0.000409449 0.000610236 -0.00131496 0.002 -0.000433071 0.000665354 -0.00160236 0.00256299 -1.9685e-005 3.93701e-005c-0.000515748,0.000850394 -0.00102362,0.00170866 -0.00151969,0.00257087l-0.000413386 0.000724409 -0.00122047 0.0021811 -0.000307087 0.000562992c-0.000492126,0.000901575 -0.000972441,0.00181102 -0.00144094,0.00272441l-1.9685e-005 4.33071e-005 -0.00132283 0.00266142 -0.000437008 0.000913386 -0.00101181 0.00216929 -0.00023622 0.000511811 -0.00118898 0.00272047 -7.08661e-005 0.000161417 -0.163736 0 -0.35774 -0.206543c-0.0136339,-0.00970079 -0.0303189,-0.0154016 -0.0483268,-0.0154016l-0.454776 0 -0.010437 0 0 -0.222776 0.010437 0 0.454776 0c0.0173071,0 0.0333898,-0.00526772 0.0467205,-0.0142874l0.359673 -0.207661 0.151228 0 0.000102362 0.00015748 0.000338583 0.000484252 0.0011378 0.00164173 0.000783465 0.00111024 0.00144488 0.00198031 0.000440945 0.00057874 0.00140945 0.00184252 0.000570866 0.000728346 0.00168898 0.00210236 0.000417323 0.000503937 0.00183071 0.00216535 0.000106299 0.000122047 0.00011811 0.000133858 0.00187402 0.00211811 0.000346457 0.00038189 0.0020315 0.0021811 0.000307087 0.000322835 0.00203543 0.00208268 0.000110236 0.000110236 0.000188976 0.000188976 0.0018622 0.00181496 0.000665354 0.000633858c0.000665354,0.000625984 0.00133071,0.00125591 0.00201181,0.00187402l0.000102362 9.44882e-005 0.000185039 0.000161417 0.00204331 0.00181496 0.000472441 0.000413386 0.00225591 0.00190157 0.000279528 0.000228346 0.00223228 0.00180315 0.000181102 0.000145669 0.000232283 0.000181102 0.0022126 0.00169291 0.000425197 0.000318898 0.0023937 0.00174803 9.44882e-005 6.29921e-005c0.000838583,0.000598425 0.00168898,0.0011811 0.00253937,0.00175984l0.000370079 0.000251969 0.00240551 0.00158661 0.000681102 0.000433071 0.00213386 0.00132677 0.000267717 0.000169291 0.000271654 0.000165354 0.00246063 0.00144882 0.000413386 0.00023622c0.000858268,0.000496063 0.00172441,0.000984252 0.00259449,0.00145669l8.26772e-005 4.33071e-005 0.000220472 0.00011811 0.00232677 0.00122835 0.000744094 0.00038189 0.00266142 0.0013189 0.000161417 7.48031e-005c0.00187008,0.000901575 0.00376378,0.00175591 0.00567323,0.0025748l0.000767717 0.000322835c0.000893701,0.000374016 0.00178346,0.000744094 0.00268504,0.00109843l6.29921e-005 2.3622e-005 0.00273228 0.00103937 0.000779528 0.000287402 0.00260236 0.000917323 0.000775591 0.000255906c0.000870079,0.000291339 0.00174803,0.000582677 0.00262598,0.000850394l0.000177165 5.51181e-005c0.00101575,0.000314961 0.00202756,0.000622047 0.00305118,0.000913386l0.000464567 0.000125984c0.000992126,0.000279528 0.00198031,0.000555118 0.00298031,0.000811024l1.1811e-005 3.93701e-006 4.33071e-005 1.1811e-005 0.000185039 4.33071e-005 0.00274016 0.000669291 0.000775591 0.000181102 0.00291732 0.000633858 0.000417323 8.26772e-005 0.00272047 0.000519685 0.000543307 9.84252e-005c0.000992126,0.000177165 0.00198425,0.000346457 0.00298031,0.0005l0.000661417 9.84252e-005 0.00296457 0.000413386 0.000122047 1.5748e-005 2.75591e-005 3.93701e-006 0.000177165 1.9685e-005c0.00102756,0.000133858 0.00206299,0.000248031 0.00309843,0.000354331l0.000385827 4.33071e-005c0.00109843,0.000110236 0.00220472,0.000204724 0.00330709,0.000291339l0.000149606 1.1811e-005 0.00300394 0.000188976 0.000433071 2.75591e-005 0.000437008 1.9685e-005 0.00290945 0.000106299 0.000507874 1.5748e-005c0.00110236,2.75591e-005 0.00220079,3.93701e-005 0.00330709,3.93701e-005 0.0768386,0 0.13913,-0.0622874 0.13913,-0.13913 0,-0.0768425 -0.0622913,-0.139134 -0.13913,-0.139134 -0.00110236,0 -0.00219685,1.5748e-005 -0.00329134,4.33071e-005l-0.000299213 3.93701e-006 -0.000409449 1.1811e-005 -0.00276772 0.000106299 -0.000716535 3.54331e-005c-0.0010315,5.51181e-005 -0.00205906,0.000122047 -0.00308661,0.00019685l-0.000362205 3.14961e-005c-0.000984252,7.87402e-005 -0.0019685,0.00015748 -0.00295276,0.000255906l-0.000338583 3.54331e-005 -0.00034252 3.54331e-005 -0.00302756 0.000350394 -0.000122047 1.1811e-005 -6.29921e-005 7.87402e-006 -0.00303937 0.000425197 -0.000515748 7.48031e-005c-0.00100787,0.00015748 -0.00201575,0.000322835 -0.00302362,0.000503937l-0.000448819 7.87402e-005c-0.00103543,0.000181102 -0.00207087,0.000389764 -0.00309843,0.000594488l-0.000366142 7.48031e-005 -0.00288189 0.000622047 -0.00026378 6.29921e-005 -0.000232283 5.51181e-005 -0.00271654 0.000661417 -0.000405512 0.000102362 -0.00011811 3.14961e-005 -7.08661e-005 1.9685e-005c-0.00211417,0.000547244 -0.00420866,0.00114173 -0.00628346,0.0017874l-0.00026378 8.26772e-005c-0.000937008,0.000291339 -0.00187008,0.000590551 -0.00279528,0.000901575l-0.000748031 0.000255906 -0.00258661 0.000909449 -0.000200787 7.48031e-005 -0.000106299 3.93701e-005c-0.00101575,0.000374016 -0.00202756,0.000755906 -0.00302756,0.00114961l-4.33071e-005 1.5748e-005 -0.000169291 6.69291e-005 -0.00251181 0.0010315 -0.00073622 0.000307087c-0.000933071,0.000397638 -0.0018622,0.000799213 -0.00277953,0.00121654l-8.26772e-005 3.93701e-005c-0.000964567,0.000437008 -0.00192913,0.000885827 -0.00288189,0.00134646l-0.000350394 0.000165354 -0.00267717 0.00133071 -0.000133858 6.69291e-005 -7.48031e-005 3.93701e-005c-0.0018937,0.000972441 -0.00376772,0.00199213 -0.0056063,0.00304724l-0.000366142 0.000208661c-0.000838583,0.000480315 -0.00166535,0.000972441 -0.00249213,0.00147244l-0.000456693 0.000275591 -0.00258661 0.00161417 -0.000204724 0.000129921c-0.000870079,0.000559055 -0.00173228,0.00112598 -0.00258661,0.00170472l-7.48031e-005 5.11811e-005 -0.00011811 8.26772e-005c-0.000834646,0.000559055 -0.00165748,0.0011378 -0.00248031,0.00171654l-0.000153543 0.000106299 -0.000244094 0.000173228c-0.000720472,0.000511811 -0.00142913,0.00104331 -0.00214173,0.00156693l-0.000614173 0.000456693 -0.000248031 0.000185039 -0.00147638 0.00113386 -0.000228346 0.000177165 -0.000724409 0.000570866c-0.00162992,0.00128346 -0.00321654,0.0026063 -0.00478346,0.00395669l-2.3622e-005 1.9685e-005 -2.3622e-005 1.9685e-005 -0.000114173 9.84252e-005 -0.00223622 0.00198425 -0.000204724 0.000185039 -0.00212598 0.00197638 -0.000464567 0.000444882c-0.00151969,0.00145276 -0.00300787,0.00294094 -0.00446063,0.00446457l-0.000177165 0.000185039c-0.000661417,0.000692913 -0.00132283,0.00140157 -0.0019685,0.00211024l-0.000188976 0.000208661 -1.5748e-005 1.9685e-005 -0.000125984 0.000137795 -0.00201969 0.00227559 -8.26772e-005 9.84252e-005 -0.00144488 0.00169291 -0.180874 0c-0.0145512,-0.000208661 -0.0293465,0.00337795 -0.0428622,0.011185l0 0.000228346 -0.364654 0.210535 -0.432803 0 -0.010437 0 0 -0.36735 0.010437 0 0.522512 0c0.0173071,0 0.0333898,-0.00526772 0.0467205,-0.0142913l0.412276 -0.238031 0.209571 0z"/>
   <g>
    <polygon id="_501794816" class="fil2" points="2.00188,0.853335 2.2633,0.853335 2.32071,1.3542 1.94447,1.3542 "/>
    <polygon id="_501795464" class="fil2" points="2.85571,0.853335 3.11713,0.853335 3.17454,1.3542 2.7983,1.3542 "/>
    <polygon id="_501795080" class="fil2" points="3.70954,0.853335 3.97095,0.853335 4.02836,1.3542 3.65213,1.3542 "/>
    <polygon id="_501794744" class="fil2" points="4.56337,0.853335 4.82478,0.853335 4.88219,1.3542 4.50595,1.3542 "/>
   </g>
   <g>
    <polygon id="_501794336" class="fil2" points="2.00188,5.97333 2.2633,5.97333 2.32071,5.47246 1.94447,5.47246 "/>
    <polygon id="_501794288" class="fil2" points="2.85571,5.97333 3.11713,5.97333 3.17454,5.47246 2.7983,5.47246 "/>
    <polygon id="_501794120" class="fil2" points="3.70954,5.97333 3.97095,5.97333 4.02836,5.47246 3.65213,5.47246 "/>
    <polygon id="_501794168" class="fil2" points="4.56337,5.97333 4.82478,5.97333 4.88219,5.47246 4.50595,5.47246 "/>
   </g>
   <g>
    <polygon id="_501793736" class="fil2" points="0.853335,4.82478 0.853335,4.56337 1.3542,4.50595 1.3542,4.88219 "/>
    <polygon id="_501793520" class="fil2" points="0.853335,3.97095 0.853335,3.70954 1.3542,3.65213 1.3542,4.02836 "/>
    <polygon id="_501793616" class="fil2" points="0.853335,3.11713 0.853335,2.85571 1.3542,2.7983 1.3542,3.17454 "/>
    <polygon id="_501793592" class="fil2" points="0.853335,2.2633 0.853335,2.00188 1.3542,1.94447 1.3542,2.32071 "/>
   </g>
   <g>
    <polygon id="_501793088" class="fil2" points="5.97333,4.82478 5.97333,4.56337 5.47246,4.50595 5.47246,4.88219 "/>
    <polygon id="_501792680" class="fil2" points="5.97333,3.97095 5.97333,3.70954 5.47246,3.65213 5.47246,4.02836 "/>
    <polygon id="_501792992" class="fil2" points="5.97333,3.11713 5.97333,2.85571 5.47246,2.7983 5.47246,3.17454 "/>
    <polygon id="_501793256" class="fil2" points="5.97333,2.2633 5.97333,2.00188 5.47246,1.94447 5.47246,2.32071 "/>
   </g>
  </g>
 </g>
</svg>
