<?xml version="1.0" encoding="UTF-8"?>
<!DOCTYPE svg PUBLIC "-//W3C//DTD SVG 1.1//EN" "http://www.w3.org/Graphics/SVG/1.1/DTD/svg11.dtd">
<!-- Creator: CorelDRAW -->
<svg xmlns="http://www.w3.org/2000/svg" xml:space="preserve" width="6.82666in" height="6.82666in" style="shape-rendering:geometricPrecision; text-rendering:geometricPrecision; image-rendering:optimizeQuality; fill-rule:evenodd; clip-rule:evenodd"
viewBox="0 0 6.82666 6.82666"
 xmlns:xlink="http://www.w3.org/1999/xlink">
 <defs>
  <style type="text/css">
   <![CDATA[
    .fil0 {fill:#424242}
    .fil1 {fill:#FFFFFE}
   ]]>
  </style>
 </defs>
 <rect class="fil0" width="6.82666" height="6.82666"/>
 <g id="Layer_x0020_1">
  <metadata id="CorelCorpID_0Corel-Layer"/>
  <path class="fil1" d="M3.41333 0.853331c1.41385,0 2.56,1.14615 2.56,2.56 0,1.41385 -1.14615,2.56 -2.56,2.56 -1.41385,0 -2.56,-1.14615 -2.56,-2.56 0,-1.41385 1.14615,-2.56 2.56,-2.56zm0 1.80115c0.209543,0 0.39926,0.0849449 0.536587,0.222268 0.137323,0.137327 0.222268,0.327043 0.222268,0.536587 0,0.209543 -0.0849449,0.39926 -0.222268,0.536587 -0.137327,0.137323 -0.327043,0.222268 -0.536587,0.222268 -0.209543,0 -0.39926,-0.0849449 -0.536587,-0.222268 -0.137323,-0.137327 -0.222268,-0.327043 -0.222268,-0.536587 0,-0.209543 0.0849449,-0.39926 0.222268,-0.536587 0.137327,-0.137323 0.327043,-0.222268 0.536587,-0.222268zm0.423461 0.335394c-0.108366,-0.108362 -0.258087,-0.175394 -0.423461,-0.175394 -0.165374,0 -0.315094,0.0670315 -0.423461,0.175394 -0.108362,0.108366 -0.175394,0.258087 -0.175394,0.423461 0,0.165374 0.0670315,0.315094 0.175394,0.423461 0.108366,0.108362 0.258087,0.175394 0.423461,0.175394 0.165374,0 0.315094,-0.0670315 0.423461,-0.175394 0.108362,-0.108366 0.175394,-0.258087 0.175394,-0.423461 0,-0.165374 -0.0670315,-0.315094 -0.175394,-0.423461zm-0.423461 -0.651909c0.296949,0 0.565795,0.12037 0.760398,0.314972 0.194602,0.194602 0.314972,0.463449 0.314972,0.760398 0,0.296949 -0.12037,0.565795 -0.314972,0.760398 -0.194602,0.194602 -0.463449,0.314972 -0.760398,0.314972 -0.296949,0 -0.565795,-0.12037 -0.760398,-0.314972 -0.194602,-0.194602 -0.314972,-0.463449 -0.314972,-0.760398 0,-0.296949 0.12037,-0.565795 0.314972,-0.760398 0.194602,-0.194602 0.463449,-0.314972 0.760398,-0.314972zm0.647272 0.428098c-0.165642,-0.165642 -0.394492,-0.268098 -0.647272,-0.268098 -0.25278,0 -0.48163,0.102457 -0.647272,0.268098 -0.165642,0.165642 -0.268098,0.394492 -0.268098,0.647272 0,0.25278 0.102457,0.48163 0.268098,0.647272 0.165642,0.165642 0.394492,0.268098 0.647272,0.268098 0.25278,0 0.48163,-0.102457 0.647272,-0.268098 0.165642,-0.165642 0.268098,-0.394492 0.268098,-0.647272 0,-0.25278 -0.102457,-0.48163 -0.268098,-0.647272zm-0.647272 0.26439c0.211457,0 0.382882,0.171425 0.382882,0.382882 0,0.211457 -0.171425,0.382882 -0.382882,0.382882 -0.211457,0 -0.382882,-0.171425 -0.382882,-0.382882 0,-0.211457 0.171425,-0.382882 0.382882,-0.382882zm0 -1.72379c-0.0441811,0 -0.08,0.0358189 -0.08,0.08 0,0.0441811 0.0358189,0.08 0.08,0.08 0.537563,0 1.02424,0.21789 1.37651,0.570161 0.352272,0.352268 0.570161,0.838945 0.570161,1.37651 0,0.0441811 0.0358189,0.08 0.08,0.08 0.0441811,0 0.08,-0.0358189 0.08,-0.08 0,-0.581732 -0.235803,-1.10841 -0.617035,-1.48963 -0.381228,-0.381232 -0.907902,-0.617035 -1.48963,-0.617035z"/>
 </g>
</svg>
