<?xml version="1.0" encoding="UTF-8"?>
<!DOCTYPE svg PUBLIC "-//W3C//DTD SVG 1.1//EN" "http://www.w3.org/Graphics/SVG/1.1/DTD/svg11.dtd">
<!-- Creator: CorelDRAW -->
<svg xmlns="http://www.w3.org/2000/svg" xml:space="preserve" width="6.82666in" height="6.82666in" style="shape-rendering:geometricPrecision; text-rendering:geometricPrecision; image-rendering:optimizeQuality; fill-rule:evenodd; clip-rule:evenodd"
viewBox="0 0 6.82666 6.82666"
 xmlns:xlink="http://www.w3.org/1999/xlink">
 <defs>
  <style type="text/css">
   <![CDATA[
    .fil0 {fill:#424242}
    .fil1 {fill:#FFFFFE}
   ]]>
  </style>
 </defs>
 <rect class="fil0" width="6.82666" height="6.82666"/>
 <g id="Layer_x0020_1">
  <metadata id="CorelCorpID_0Corel-Layer"/>
  <g id="_501799592">
   <path id="_501800120" class="fil1" d="M0.853331 3.11339l5.12 0 0 1.48704 -5.12 0 0 -1.48704zm0.470504 0.428913l3.25818 0c0.0456063,0 0.0825827,0.0369724 0.0825827,0.0825787l0 0.464063c0,0.0456063 -0.0369764,0.0825787 -0.0825827,0.0825787l-3.25818 0c-0.0456063,0 -0.0825827,-0.0369724 -0.0825827,-0.0825787l0 -0.464063c0,-0.0456063 0.0369764,-0.0825787 0.0825827,-0.0825787zm3.1756 0.165161l-3.09302 0 0 0.298898 3.09302 0 0 -0.298898zm0.770665 -0.165862c0.087063,0 0.165894,0.0352992 0.222953,0.0923543 0.057063,0.057063 0.0923543,0.135898 0.0923543,0.222953 0,0.087063 -0.0352913,0.16589 -0.0923543,0.222953 -0.057063,0.0570591 -0.13589,0.0923543 -0.222953,0.0923543 -0.0870551,0 -0.16589,-0.0352953 -0.222953,-0.0923543 -0.0570512,-0.0570591 -0.0923543,-0.13589 -0.0923543,-0.222953 0,-0.0870551 0.0353031,-0.165894 0.0923543,-0.222953 0.0570591,-0.0570551 0.135898,-0.0923543 0.222953,-0.0923543zm0.106177 0.20913c-0.0271654,-0.0271614 -0.0647087,-0.0439685 -0.106177,-0.0439685 -0.0414646,0 -0.0790118,0.0168071 -0.106177,0.0439685 -0.0271575,0.0271654 -0.0439685,0.0647126 -0.0439685,0.106177 0,0.0414685 0.016811,0.0790118 0.0439685,0.106177 0.0271654,0.0271614 0.0647087,0.0439685 0.106177,0.0439685 0.0414685,0 0.0790118,-0.0168071 0.106177,-0.0439685 0.0271614,-0.0271654 0.0439685,-0.0647087 0.0439685,-0.106177 0,-0.0414685 -0.0168071,-0.0790118 -0.0439685,-0.106177z"/>
   <polygon id="_501800024" class="fil1" points="0.853331,3.03081 5.97333,3.03081 4.59699,2.22623 2.22967,2.22623 "/>
  </g>
 </g>
</svg>
