<?xml version="1.0" encoding="UTF-8"?>
<!DOCTYPE svg PUBLIC "-//W3C//DTD SVG 1.1//EN" "http://www.w3.org/Graphics/SVG/1.1/DTD/svg11.dtd">
<!-- Creator: CorelDRAW -->
<svg xmlns="http://www.w3.org/2000/svg" xml:space="preserve" width="6.82666in" height="6.82666in" style="shape-rendering:geometricPrecision; text-rendering:geometricPrecision; image-rendering:optimizeQuality; fill-rule:evenodd; clip-rule:evenodd"
viewBox="0 0 6.82666 6.82666"
 xmlns:xlink="http://www.w3.org/1999/xlink">
 <defs>
  <style type="text/css">
   <![CDATA[
    .fil0 {fill:#424242}
    .fil2 {fill:#FFFFFE}
    .fil1 {fill:#FFFFFE;fill-rule:nonzero}
   ]]>
  </style>
 </defs>
 <rect class="fil0" width="6.82666" height="6.82666"/>
 <g id="Layer_x0020_1">
  <metadata id="CorelCorpID_0Corel-Layer"/>
  <g id="_501816872">
   <path id="_501817976" class="fil1" d="M1.2002 2.14985l4.45778 0c0.086811,0 0.165669,0.0354567 0.22278,0.0925669 0.0571102,0.0571102 0.0925669,0.135969 0.0925669,0.22278l0 1.74227c0,0.0868031 -0.0354567,0.165665 -0.0925669,0.222776 -0.0571142,0.0571142 -0.135976,0.0925709 -0.22278,0.0925709l-4.45778 0c-0.0447874,0 -0.0810984,-0.036311 -0.0810984,-0.0810984l0 -2.21077c0,-0.0447874 0.036311,-0.0810984 0.0810984,-0.0810984zm0.770315 0.690862l0 -0.162201 -0.480602 0 0 0.162201 0.480602 0zm0 0.22228l-0.480602 0 0 0.162201 0.480602 0 0 -0.162201zm0 0.38448l-0.480602 0 0 0.162197 0.480602 0 0 -0.162197zm0 0.38448l-0.480602 0 0 0.162197 0.480602 0 0 -0.162197zm1.52345 -1.02873c-0.136437,-0.136437 -0.324925,-0.220831 -0.533114,-0.220831 -0.208181,0 -0.396673,0.0843937 -0.53311,0.220831 -0.136437,0.136437 -0.220831,0.324929 -0.220831,0.53311 0,0.208181 0.0843937,0.396677 0.220831,0.533114 0.136437,0.136433 0.324929,0.220827 0.53311,0.220827 0.208181,0 0.396677,-0.0843898 0.533114,-0.220827 0.136437,-0.136437 0.220827,-0.324925 0.220827,-0.533114 0,-0.208181 -0.0843898,-0.396673 -0.220827,-0.53311zm0.520882 0.53311c0,0.208189 0.0843898,0.396677 0.220827,0.533114 0.136437,0.136437 0.324929,0.220827 0.53311,0.220827 0.208181,0 0.396673,-0.0843898 0.53311,-0.220827 0.136437,-0.136437 0.220831,-0.324925 0.220831,-0.533114 0,-0.208189 -0.0843976,-0.396677 -0.220831,-0.53311 -0.136433,-0.136433 -0.324921,-0.220831 -0.53311,-0.220831 -0.208181,0 -0.396673,0.0843976 -0.53311,0.220831 -0.136433,0.136433 -0.220827,0.324921 -0.220827,0.53311z"/>
   <g>
    <circle id="_501818480" class="fil2" cx="4.76878" cy="3.33633" r="0.206853"/>
    <path id="_501818360" class="fil1" d="M4.84988 2.80322c0,-0.0447913 -0.036311,-0.0811024 -0.0810984,-0.0811024 -0.0447874,0 -0.0810984,0.036311 -0.0810984,0.0811024l0 0.372043c0,0.0447874 0.036311,0.0810984 0.0810984,0.0810984 0.0447874,0 0.0810984,-0.036311 0.0810984,-0.0810984l0 -0.372043z"/>
    <path id="_501818432" class="fil1" d="M5.27071 3.13979c0.0386654,-0.0222205 0.0519961,-0.0715827 0.0297756,-0.110248 -0.0222165,-0.0386654 -0.0715787,-0.0519961 -0.110244,-0.0297756l-0.322197 0.186016c-0.0386654,0.0222205 -0.0519961,0.0715827 -0.0297795,0.110248 0.0222205,0.0386654 0.0715827,0.0519961 0.110248,0.0297795l0.322197 -0.18602z"/>
    <path id="_501818528" class="fil1" d="M5.19024 3.6729c0.0386654,0.0222165 0.0880276,0.00888976 0.110244,-0.0297795 0.0222205,-0.0386654 0.00888976,-0.0880276 -0.0297756,-0.110244l-0.322197 -0.18602c-0.0386654,-0.0222165 -0.0880276,-0.00888976 -0.110248,0.0297795 -0.0222165,0.0386654 -0.00888583,0.0880276 0.0297795,0.110244l0.322197 0.18602z"/>
    <path id="_501818216" class="fil1" d="M4.68769 3.86944c0,0.0447874 0.036311,0.0810984 0.0810984,0.0810984 0.0447874,0 0.0810984,-0.036311 0.0810984,-0.0810984l0 -0.372035c0,-0.0447913 -0.036311,-0.0811024 -0.0810984,-0.0811024 -0.0447874,0 -0.0810984,0.036311 -0.0810984,0.0811024l0 0.372035z"/>
    <path id="_501818312" class="fil1" d="M4.26686 3.53287c-0.0386693,0.0222165 -0.052,0.0715787 -0.0297795,0.110244 0.0222165,0.0386693 0.0715787,0.0519961 0.110248,0.0297795l0.322193 -0.18602c0.0386654,-0.0222165 0.0519961,-0.0715787 0.0297795,-0.110244 -0.0222205,-0.0386693 -0.0715827,-0.0519961 -0.110248,-0.0297795l-0.322193 0.18602z"/>
    <path id="_501818504" class="fil1" d="M4.34733 2.99976c-0.0386693,-0.0222205 -0.0880315,-0.00888976 -0.110248,0.0297756 -0.0222205,0.0386654 -0.00888976,0.0880276 0.0297795,0.110248l0.322193 0.18602c0.0386654,0.0222165 0.0880276,0.00888583 0.110248,-0.0297795 0.0222165,-0.0386654 0.00888583,-0.0880276 -0.0297795,-0.110248l-0.322193 -0.186016z"/>
   </g>
   <polygon id="_501817400" class="fil1" points="0.864059,1.84003 1.2002,1.84003 1.2813,1.84003 1.2813,1.92113 1.2813,4.61818 1.1191,4.61818 1.1191,2.00223 0.864059,2.00223 "/>
   <polygon id="_501817376" class="fil1" points="1.01553,2.63821 1.01553,2.97436 0.853335,2.97436 0.853335,2.63821 "/>
   <polygon id="_501817088" class="fil1" points="1.01553,3.6983 1.01553,4.03444 0.853335,4.03444 0.853335,3.6983 "/>
   <polygon id="_501817664" class="fil2" points="1.9127,4.44171 5.17974,4.44171 4.61061,4.98663 4.45666,4.98663 4.45666,4.68696 4.29446,4.68696 4.29446,4.98663 4.11326,4.98663 4.11326,4.68696 3.95106,4.68696 3.95106,4.98663 3.76987,4.98663 3.76987,4.68696 3.60767,4.68696 3.60767,4.98663 3.42647,4.98663 3.42647,4.68696 3.26427,4.68696 3.26427,4.98663 3.08307,4.98663 3.08307,4.68696 2.92087,4.68696 2.92087,4.98663 2.73968,4.98663 2.73968,4.68696 2.57748,4.68696 2.57748,4.98663 2.39628,4.98663 2.39628,4.68696 2.23408,4.68696 2.23408,4.98663 1.9127,4.98663 "/>
   <g>
    <circle id="_501817736" class="fil2" cx="2.96085" cy="3.33633" r="0.206853"/>
    <path id="_501817448" class="fil1" d="M3.04195 2.80322c0,-0.0447874 -0.036311,-0.0811024 -0.0810984,-0.0811024 -0.0447913,0 -0.0811024,0.036315 -0.0811024,0.0811024l0 0.372043c0,0.0447874 0.036311,0.0810984 0.0811024,0.0810984 0.0447874,0 0.0810984,-0.036311 0.0810984,-0.0810984l0 -0.372043z"/>
    <path id="_501817712" class="fil1" d="M3.46278 3.13979c0.0386654,-0.0222205 0.0519961,-0.0715827 0.0297795,-0.110248 -0.0222205,-0.0386654 -0.0715827,-0.0519961 -0.110248,-0.0297756l-0.322193 0.186016c-0.0386693,0.0222205 -0.052,0.0715827 -0.0297795,0.110248 0.0222205,0.0386654 0.0715827,0.0519961 0.110248,0.0297795l0.322193 -0.18602z"/>
    <path id="_501817184" class="fil1" d="M3.38231 3.6729c0.0386654,0.0222165 0.0880276,0.00888976 0.110248,-0.0297795 0.0222165,-0.0386654 0.00888583,-0.0880276 -0.0297795,-0.110244l-0.322193 -0.18602c-0.0386654,-0.0222165 -0.0880276,-0.00888976 -0.110248,0.0297795 -0.0222205,0.0386654 -0.00888976,0.0880276 0.0297795,0.110244l0.322193 0.18602z"/>
    <path id="_501817496" class="fil1" d="M2.87975 3.86945c0,0.0447874 0.036311,0.0810984 0.0811024,0.0810984 0.0447874,0 0.0810984,-0.036311 0.0810984,-0.0810984l0 -0.372035c0,-0.0447913 -0.036311,-0.0811024 -0.0810984,-0.0811024 -0.0447913,0 -0.0811024,0.036311 -0.0811024,0.0811024l0 0.372035z"/>
    <path id="_501816896" class="fil1" d="M2.45893 3.53288c-0.0386654,0.0222165 -0.0519961,0.0715787 -0.0297756,0.110244 0.0222165,0.0386693 0.0715787,0.0519961 0.110244,0.0297795l0.322197 -0.18602c0.0386654,-0.0222165 0.0519961,-0.0715787 0.0297756,-0.110244 -0.0222165,-0.0386693 -0.0715787,-0.0519961 -0.110244,-0.0297795l-0.322197 0.18602z"/>
    <path id="_501816320" class="fil1" d="M2.5394 2.99977c-0.0386654,-0.0222205 -0.0880276,-0.00888976 -0.110244,0.0297756 -0.0222205,0.0386654 -0.00888976,0.0880276 0.0297756,0.110248l0.322197 0.18602c0.0386654,0.0222165 0.0880276,0.00888583 0.110244,-0.0297795 0.0222205,-0.0386654 0.00888976,-0.0880276 -0.0297756,-0.110248l-0.322197 -0.186016z"/>
   </g>
  </g>
 </g>
</svg>
