<?xml version="1.0" encoding="UTF-8"?>
<!DOCTYPE svg PUBLIC "-//W3C//DTD SVG 1.1//EN" "http://www.w3.org/Graphics/SVG/1.1/DTD/svg11.dtd">
<!-- Creator: CorelDRAW -->
<svg xmlns="http://www.w3.org/2000/svg" xml:space="preserve" width="6.82666in" height="6.82666in" style="shape-rendering:geometricPrecision; text-rendering:geometricPrecision; image-rendering:optimizeQuality; fill-rule:evenodd; clip-rule:evenodd"
viewBox="0 0 6.82666 6.82666"
 xmlns:xlink="http://www.w3.org/1999/xlink">
 <defs>
  <style type="text/css">
   <![CDATA[
    .fil0 {fill:#424242}
    .fil1 {fill:#FFFFFE}
   ]]>
  </style>
 </defs>
 <rect class="fil0" width="6.82666" height="6.82666"/>
 <g id="Layer_x0020_1">
  <metadata id="CorelCorpID_0Corel-Layer"/>
  <g id="_501788864">
   <path id="_501790880" class="fil1" d="M4.82667 4.05999c0.0441811,0 0.08,0.0358189 0.08,0.08 0,0.0441811 -0.0358189,0.08 -0.08,0.08 -0.0441811,0 -0.08,-0.0358189 -0.08,-0.08 0,-0.0441811 0.0358189,-0.08 0.08,-0.08zm-1.41333 -2.76c0.795287,0 1.44,0.644713 1.44,1.44 0,0.727484 -0.539508,1.32886 -1.24022,1.42614 0.0520079,-0.141287 0.0988268,-0.284417 0.136461,-0.430803l0.0733228 -0.285205 -0.207551 0.208906c-0.154854,0.15587 -0.288858,0.32824 -0.418677,0.504606 -0.689346,-0.10487 -1.22334,-0.701957 -1.22334,-1.42364 0,-0.795287 0.644713,-1.44 1.44,-1.44zm-1.91048 -0.431571l0 0zm7.87402e-006 5.08981l0 0zm3.82096 7.87402e-006l0 0zm-7.87402e-006 -5.08981l0 0zm0.068437 4.92491l0 -4.76001c0,-0.0653543 -0.026063,-0.121469 -0.068437,-0.164894l-0.00026378 0.00026378c-0.0425197,-0.0423937 -0.100803,-0.0687008 -0.16463,-0.0687008l-3.49117 0c-0.0626063,0 -0.122984,0.0265118 -0.164894,0.068437 -0.0422283,0.0422283 -0.068437,0.100587 -0.068437,0.164894l0 4.76001c0,0.0653543 0.026063,0.121469 0.068437,0.164894l0.00026378 -0.00026378c0.0425197,0.0423937 0.100803,0.0687008 0.16463,0.0687008l3.49117 0c0.0626063,0 0.122984,-0.0265118 0.164894,-0.068437 0.0422283,-0.0422283 0.068437,-0.100587 0.068437,-0.164894zm-1.72015 -2.07793c-0.125154,0.486827 -0.369059,0.974933 -0.54237,1.42534 -0.140461,0.365024 -0.822193,0.181996 -0.336075,-0.329815 0.289748,-0.305055 0.525709,-0.740476 0.878445,-1.09552zm-1.0649 1.5974c0.077937,0.0870157 0.204547,0.113807 0.316024,0.0920669 0.12974,-0.0253031 0.233614,-0.111811 0.281169,-0.235398 0.00537402,-0.0139646 0.0107913,-0.0279094 0.016248,-0.0418465l0 0.481406 -1.3551 0 0 -1.14972 1.11528 -0.000181102c-0.0772283,0.103311 -0.157618,0.204531 -0.245165,0.296709 -0.0804882,0.0847402 -0.161524,0.193059 -0.186626,0.309567 -0.0190748,0.0885118 -0.00332283,0.17874 0.0581732,0.247398zm2.29947 -3.97282c0,0.0441811 -0.0358189,0.08 -0.08,0.08 -0.0441811,0 -0.08,-0.0358189 -0.08,-0.08 0,-0.0441811 0.0358189,-0.08 0.08,-0.08 0.0441811,0 0.08,0.0358189 0.08,0.08zm-2.82667 2.8c0,0.0441811 -0.0358189,0.08 -0.08,0.08 -0.0441811,0 -0.08,-0.0358189 -0.08,-0.08 0,-0.0441811 0.0358189,-0.08 0.08,-0.08 0.0441811,0 0.08,0.0358189 0.08,0.08zm0 -2.8c0,0.0441811 -0.0358189,0.08 -0.08,0.08 -0.0441811,0 -0.08,-0.0358189 -0.08,-0.08 0,-0.0441811 0.0358189,-0.08 0.08,-0.08 0.0441811,0 0.08,0.0358189 0.08,0.08z"/>
   <path id="_501790520" class="fil1" d="M2.93917 5.11062c0,-0.0441811 -0.0358189,-0.08 -0.08,-0.08 -0.0441811,0 -0.08,0.0358189 -0.08,0.08 0,0.0441811 0.0358189,0.08 0.08,0.08 0.0441811,0 0.08,-0.0358189 0.08,-0.08z"/>
   <path id="_501790496" class="fil1" d="M3.07223 2.73999c0,0.188386 0.152717,0.341102 0.341102,0.341102 0.188386,0 0.341102,-0.152717 0.341102,-0.341102 0,-0.188386 -0.152717,-0.341102 -0.341102,-0.341102 -0.188386,0 -0.341102,0.152717 -0.341102,0.341102z"/>
   <path id="_501790736" class="fil1" d="M3.41333 2.21708c0.0441811,0 0.08,-0.0358189 0.08,-0.08 0,-0.0441811 -0.0358189,-0.08 -0.08,-0.08 -0.0441811,0 -0.08,0.0358189 -0.08,0.08 0,0.0441811 0.0358189,0.08 0.08,0.08z"/>
   <path id="_501790424" class="fil1" d="M3.15188 2.28714c0.0382638,-0.0220906 0.051374,-0.0710157 0.0292835,-0.10928 -0.0220945,-0.0382638 -0.0710197,-0.051374 -0.109283,-0.0292835 -0.0382638,0.0220906 -0.051374,0.0710197 -0.0292835,0.109283 0.0220945,0.0382638 0.0710197,0.0513701 0.109283,0.0292795z"/>
   <path id="_501790856" class="fil1" d="M2.96048 2.47854c0.0220906,-0.0382638 0.00898425,-0.087189 -0.0292795,-0.109283 -0.0382638,-0.0220906 -0.0871929,-0.00898031 -0.109283,0.0292835 -0.0220906,0.0382638 -0.00898031,0.087189 0.0292835,0.109283 0.0382638,0.0220906 0.087189,0.00898031 0.10928,-0.0292835z"/>
   <path id="_501789728" class="fil1" d="M2.89043 2.73999c0,-0.0441811 -0.0358189,-0.08 -0.08,-0.08 -0.0441811,0 -0.08,0.0358189 -0.08,0.08 0,0.0441811 0.0358189,0.08 0.08,0.08 0.0441811,0 0.08,-0.0358189 0.08,-0.08z"/>
   <path id="_501789488" class="fil1" d="M2.96048 3.00144c-0.0220906,-0.0382638 -0.0710157,-0.051374 -0.10928,-0.0292835 -0.0382638,0.0220945 -0.051374,0.0710197 -0.0292835,0.109283 0.0220906,0.0382638 0.0710197,0.051374 0.109283,0.0292835 0.0382638,-0.0220945 0.0513701,-0.0710197 0.0292795,-0.109283z"/>
   <path id="_501790160" class="fil1" d="M3.15188 3.19284c-0.0382638,-0.0220906 -0.087189,-0.00898425 -0.109283,0.0292795 -0.0220906,0.0382638 -0.00898031,0.0871929 0.0292835,0.109283 0.0382638,0.0220906 0.087189,0.00898031 0.109283,-0.0292835 0.0220906,-0.0382638 0.00898031,-0.087189 -0.0292835,-0.10928z"/>
   <path id="_501790064" class="fil1" d="M3.41333 3.26289c-0.0441811,0 -0.08,0.0358189 -0.08,0.08 0,0.0441811 0.0358189,0.08 0.08,0.08 0.0441811,0 0.08,-0.0358189 0.08,-0.08 0,-0.0441811 -0.0358189,-0.08 -0.08,-0.08z"/>
   <path id="_501789944" class="fil1" d="M3.67478 3.19284c-0.0382638,0.0220906 -0.051374,0.0710157 -0.0292835,0.10928 0.0220945,0.0382638 0.0710197,0.051374 0.109283,0.0292835 0.0382638,-0.0220906 0.051374,-0.0710197 0.0292835,-0.109283 -0.0220945,-0.0382638 -0.0710197,-0.0513701 -0.109283,-0.0292795z"/>
   <path id="_501789560" class="fil1" d="M3.86618 3.00144c-0.0220906,0.0382638 -0.00898425,0.087189 0.0292795,0.109283 0.0382638,0.0220906 0.0871929,0.00898031 0.109283,-0.0292835 0.0220906,-0.0382638 0.00898031,-0.087189 -0.0292835,-0.109283 -0.0382638,-0.0220906 -0.087189,-0.00898031 -0.10928,0.0292835z"/>
   <path id="_501789584" class="fil1" d="M3.93624 2.73999c0,0.0441811 0.0358189,0.08 0.08,0.08 0.0441811,0 0.08,-0.0358189 0.08,-0.08 0,-0.0441811 -0.0358189,-0.08 -0.08,-0.08 -0.0441811,0 -0.08,0.0358189 -0.08,0.08z"/>
   <path id="_501789920" class="fil1" d="M3.86618 2.47854c0.0220906,0.0382638 0.0710157,0.051374 0.10928,0.0292835 0.0382638,-0.0220945 0.051374,-0.0710197 0.0292835,-0.109283 -0.0220906,-0.0382638 -0.0710197,-0.051374 -0.109283,-0.0292835 -0.0382638,0.0220945 -0.0513701,0.0710197 -0.0292795,0.109283z"/>
   <path id="_501789176" class="fil1" d="M3.67478 2.28714c0.0382638,0.0220906 0.087189,0.00898425 0.109283,-0.0292795 0.0220906,-0.0382638 0.00898031,-0.0871929 -0.0292835,-0.109283 -0.0382638,-0.0220906 -0.087189,-0.00898031 -0.109283,0.0292835 -0.0220906,0.0382638 -0.00898031,0.087189 0.0292835,0.10928z"/>
  </g>
 </g>
</svg>
