<?xml version="1.0" encoding="UTF-8"?>
<!DOCTYPE svg PUBLIC "-//W3C//DTD SVG 1.1//EN" "http://www.w3.org/Graphics/SVG/1.1/DTD/svg11.dtd">
<!-- Creator: CorelDRAW -->
<svg xmlns="http://www.w3.org/2000/svg" xml:space="preserve" width="6.82666in" height="6.82666in" style="shape-rendering:geometricPrecision; text-rendering:geometricPrecision; image-rendering:optimizeQuality; fill-rule:evenodd; clip-rule:evenodd"
viewBox="0 0 6.82666 6.82666"
 xmlns:xlink="http://www.w3.org/1999/xlink">
 <defs>
  <style type="text/css">
   <![CDATA[
    .fil0 {fill:#424242}
    .fil1 {fill:#FFFFFE}
   ]]>
  </style>
 </defs>
 <rect class="fil0" width="6.82666" height="6.82666"/>
 <g id="Layer_x0020_1">
  <metadata id="CorelCorpID_0Corel-Layer"/>
  <path class="fil1" d="M0.956555 0.853331l4.91355 0c0.0567756,0 0.103224,0.0464488 0.103224,0.103224l0 4.91355c0,0.0567756 -0.0464488,0.103224 -0.103224,0.103224l-4.91355 0c-0.0567756,0 -0.103224,-0.0464488 -0.103224,-0.103224l0 -4.91355c0,-0.0567756 0.0464488,-0.103224 0.103224,-0.103224zm0.572217 1.80435l1.44 0 0 -0.302031 -1.44 0 0 0.302031zm1.6 0.08l0 0.462031c0,0.0441811 -0.0358189,0.08 -0.08,0.08l-1.6 0c-0.0441811,0 -0.08,-0.0358189 -0.08,-0.08l0 -0.462031 0 -0.462031 0 -0.462031c0,-0.0441811 0.0358189,-0.08 0.08,-0.08l1.6 0c0.0441811,0 0.08,0.0358189 0.08,0.08l0 0.462031 0 0.462031zm-1.6 -0.542031l1.44 0 0 -0.302031 -1.44 0 0 0.302031zm1.44 0.622031l-1.44 0 0 0.302031 1.44 0 0 -0.302031zm2.11119 -0.911083l0 8.26772e-005 0.0178031 -0.0177874 -0.0178031 0.0177047zm-0.0547913 0.0548898l-1.09035 0 0 1.09035 1.09035 0 0 -1.09035zm-1.14514 -0.0546929l0 -8.26772e-005 -1.5748e-005 -1.5748e-005 -8.26772e-005 0 9.84252e-005 9.84252e-005zm1.19993 -0.00019685l-9.84252e-005 9.84252e-005 8.26772e-005 0 1.5748e-005 -1.5748e-005 0 -8.26772e-005zm-9.84252e-005 9.84252e-005l-0.0363583 0.0361575 4.33071e-005 0.000208661 0.0363976 -0.0363661 -8.26772e-005 0zm0.00019685 1.19993l-8.26772e-005 0 0.0177874 0.0178031 -0.0177047 -0.0178031zm0 0l-9.84252e-005 -9.84252e-005 0 8.26772e-005 1.5748e-005 1.5748e-005 8.26772e-005 0zm-9.84252e-005 -9.84252e-005l-0.0361575 -0.0363583 -0.000208661 4.33071e-005 0.0363661 0.0363976 0 -8.26772e-005zm-1.19993 0.00019685l0 -8.26772e-005 -0.0178031 0.0177874 0.0178031 -0.0177047zm0 0l9.84252e-005 -9.84252e-005 -8.26772e-005 0 -1.5748e-005 1.5748e-005 0 8.26772e-005zm9.84252e-005 -9.84252e-005l0.0363583 -0.0361575 -4.33071e-005 -0.000208661 -0.0363976 0.0363661 8.26772e-005 0zm-0.0179016 -1.21774l0.0177047 0.0178031 8.26772e-005 0 -0.0177874 -0.0178031zm0.0178031 0.0179016l0.0361575 0.0363583 0.000208661 -4.33071e-005 -0.0363661 -0.0363976 0 8.26772e-005zm-0.105209 0.323839l-0.192717 0 0 -0.16 0.192717 0 0 -0.163937c0,-0.0286575 0.0117953,-0.054874 0.0308425,-0.0740551l0.00015748 -0.000153543 2.3622e-005 -2.75591e-005 -0.000161417 -0.000161417c0.00297244,-0.0029685 0.00612598,-0.00565354 0.00941732,-0.00805906 0.0180039,-0.0142362 0.0405906,-0.022752 0.0649291,-0.022752l0.163937 0 0 -0.192717 0.16 0 0 0.192717 0.196028 0 0 -0.192717 0.16 0 0 0.192717 0.196031 0 0 -0.192717 0.16 0 0 0.192717 0.163937 0c0.0286575,0 0.054874,0.0117953 0.0740551,0.0308425l0.000153543 0.00015748 2.75591e-005 2.3622e-005 0.000161417 -0.000161417c0.00297244,0.00297244 0.00565354,0.00612598 0.00805906,0.00941732 0.0142362,0.0180039 0.022752,0.0405906 0.022752,0.0649291l0 0.163937 0.192717 0 0 0.16 -0.192717 0 0 0.196028 0.192717 0 0 0.16 -0.192717 0 0 0.196031 0.192717 0 0 0.16 -0.192717 0 0 0.163937c0,0.0286535 -0.0117953,0.054874 -0.0308425,0.0740551l-0.00015748 0.000153543 -2.3622e-005 2.75591e-005 0.000161417 0.000161417c-0.00297244,0.00297244 -0.00612598,0.00565354 -0.00941732,0.00805906 -0.0180039,0.0142362 -0.0405906,0.022752 -0.0649291,0.022752l-0.163937 0 0 0.192717 -0.16 0 0 -0.192717 -0.196031 0 0 0.192717 -0.16 0 0 -0.192717 -0.196028 0 0 0.192717 -0.16 0 0 -0.192717 -0.163937 0c-0.0286535,0 -0.054874,-0.0117953 -0.0740551,-0.0308425l-0.000153543 -0.00015748 -2.75591e-005 -2.3622e-005 -0.000161417 0.000161417c-0.00297244,-0.00297244 -0.00565354,-0.00612598 -0.00805906,-0.00941732 -0.0142362,-0.0180039 -0.022752,-0.0405906 -0.022752,-0.0649291l0 -0.163937 -0.192717 0 0 -0.16 0.192717 0 0 -0.196031 -0.192717 0 0 -0.16 0.192717 0 0 -0.196028zm0.366748 -0.142398l0.676854 0c0.0441811,0 0.08,0.0358189 0.08,0.08l0 0.676854c0,0.0441811 -0.0358189,0.08 -0.08,0.08l-0.676854 0c-0.0441811,0 -0.08,-0.0358189 -0.08,-0.08l0 -0.676854c0,-0.0441811 0.0358189,-0.08 0.08,-0.08zm0.596854 0.16l-0.516854 0 0 0.516854 0.516854 0 0 -0.516854zm-3.07275 2.22872l-0.269346 0 0 -0.16 0.269346 0 0 -0.156961c0,-0.0441811 0.0358189,-0.08 0.08,-0.08l0.456957 0 2.21773 0 0.456957 0c0.0441811,0 0.08,0.0358189 0.08,0.08l0 0.156961 0.269346 0 0 0.16 -0.269346 0 0 0.0562756 0 0.106618 0.269346 0 0 0.16 -0.269346 0 0 0.106622 0 0.0562717 0.269346 0 0 0.16 -0.269346 0 0 0.156965c0,0.0441811 -0.0358189,0.08 -0.08,0.08l-0.456957 0 -2.21773 0 -0.456957 0c-0.0441811,0 -0.08,-0.0358189 -0.08,-0.08l0 -0.156965 -0.269346 0 0 -0.16 0.269346 0 0 -0.0562717 0 -0.106622 -0.269346 0 0 -0.16 0.269346 0 0 -0.106618 0 -0.0562756zm0.16 -0.0237244l0.296957 0 0 -0.213236 -0.296957 0 0 0.213236zm0.456957 -0.213236l0 0.213236 2.05773 0 0 -0.213236 -2.05773 0zm2.21773 0l0 0.213236 0.296957 0 0 -0.213236 -0.296957 0zm-2.67469 0.586476l0.296957 0 0 -0.21324 -0.296957 0 0 0.21324zm0.456957 -0.21324l0 0.21324 2.05773 0 0 -0.21324 -2.05773 0zm2.21773 0l0 0.21324 0.296957 0 0 -0.21324 -0.296957 0zm-2.37773 0.37324l0 0.213236 -0.296957 0 0 -0.213236 0.296957 0zm0.16 0.213236l0 -0.213236 2.05773 0 0 0.213236 -2.05773 0zm2.21773 0l0 -0.213236 0.296957 0 0 0.213236 -0.296957 0zm-2.56644 -4.1082l0 0.459067 -0.16 0 0 -0.459067 0.16 0zm0.394846 0l0 0.459067 -0.16 0 0 -0.459067 0.16 0zm0.394846 0l0 0.459067 -0.16 0 0 -0.459067 0.16 0zm3.02882 3.31349l-0.251071 0 0 -0.16 0.251071 0 0 0.16zm0 0.394846l-0.251071 0 0 -0.16 0.251071 0 0 0.16zm0 0.394846l-0.251071 0 0 -0.16 0.251071 0 0 0.16zm-4.09033 -1.72804c0.0441811,0 0.08,0.0358189 0.08,0.08 0,0.0441811 -0.0358189,0.08 -0.08,0.08 -0.0441811,0 -0.08,-0.0358189 -0.08,-0.08 0,-0.0441811 0.0358189,-0.08 0.08,-0.08zm0.586665 0c0.0441811,0 0.08,0.0358189 0.08,0.08 0,0.0441811 -0.0358189,0.08 -0.08,0.08 -0.0441811,0 -0.08,-0.0358189 -0.08,-0.08 0,-0.0441811 0.0358189,-0.08 0.08,-0.08zm0.586665 0c0.0441811,0 0.08,0.0358189 0.08,0.08 0,0.0441811 -0.0358189,0.08 -0.08,0.08 -0.0441811,0 -0.08,-0.0358189 -0.08,-0.08 0,-0.0441811 0.0358189,-0.08 0.08,-0.08z"/>
 </g>
</svg>
