<?xml version="1.0" encoding="UTF-8"?>
<!DOCTYPE svg PUBLIC "-//W3C//DTD SVG 1.1//EN" "http://www.w3.org/Graphics/SVG/1.1/DTD/svg11.dtd">
<!-- Creator: CorelDRAW -->
<svg xmlns="http://www.w3.org/2000/svg" xml:space="preserve" width="6.82666in" height="6.82666in" style="shape-rendering:geometricPrecision; text-rendering:geometricPrecision; image-rendering:optimizeQuality; fill-rule:evenodd; clip-rule:evenodd"
viewBox="0 0 6.82666 6.82666"
 xmlns:xlink="http://www.w3.org/1999/xlink">
 <defs>
  <style type="text/css">
   <![CDATA[
    .fil0 {fill:#424242}
    .fil1 {fill:#FFFFFE}
   ]]>
  </style>
 </defs>
 <rect class="fil0" width="6.82666" height="6.82666"/>
 <g id="Layer_x0020_1">
  <metadata id="CorelCorpID_0Corel-Layer"/>
  <g id="_501798344">
   <path id="_501798512" class="fil1" d="M1.83766 0.853331l3.15133 0 0 5.12 -0.589 0 0 -1.01334 -0.16 0 0 1.01334 -0.444445 0 0 -1.01334 -0.16 0 0 1.01334 -0.444441 0 0 -1.01334 -0.16 0 0 1.01334 -0.444445 0 0 -1.01334 -0.16 0 0 1.01334 -0.589004 0 0 -5.12zm2.75503 0.959996l-2.35872 0 0 0.373331 2.35872 0 0 -0.373331zm-0.238177 0.541185c0.044185,0 0.08,0.035815 0.08,0.08 0,0.044185 -0.035815,0.08 -0.08,0.08 -0.044185,0 -0.08,-0.035815 -0.08,-0.08 0,-0.044185 0.035815,-0.08 0.08,-0.08zm-2.1289 0.678087l2.37543 0 0 0.16 -2.37543 0 0 -0.16zm0 0.514071l2.37543 0 0 0.16 -2.37543 0 0 -0.16zm1.18772 0.494461c0.0809961,0 0.154331,0.0328386 0.207413,0.0859213 0.0530827,0.0530827 0.0859213,0.126421 0.0859213,0.207413 0,0.0809961 -0.0328386,0.154331 -0.0859213,0.207413 -0.0530827,0.0530827 -0.126417,0.0859213 -0.207413,0.0859213 -0.0809961,0 -0.154331,-0.0328386 -0.207413,-0.0859213 -0.0530827,-0.0530827 -0.0859213,-0.126417 -0.0859213,-0.207413 0,-0.0809921 0.0328386,-0.154331 0.0859213,-0.207413 0.0530827,-0.0530827 0.126417,-0.0859213 0.207413,-0.0859213zm0.0942874 0.199047c-0.024122,-0.024122 -0.0574606,-0.0390472 -0.0942874,-0.0390472 -0.0368268,0 -0.0701654,0.0149252 -0.0942874,0.0390472 -0.024122,0.024122 -0.0390472,0.0574646 -0.0390472,0.0942874 0,0.0368268 0.0149252,0.0701654 0.0390472,0.0942874 0.024122,0.024122 0.0574606,0.0390472 0.0942874,0.0390472 0.0368268,0 0.0701654,-0.0149252 0.0942874,-0.0390472 0.024122,-0.024122 0.0390472,-0.0574606 0.0390472,-0.0942874 0,-0.0368228 -0.0149252,-0.0701654 -0.0390472,-0.0942874z"/>
   <rect id="_501798320" class="fil1" x="1.83766" y="5.76" width="3.15133" height="0.213335"/>
  </g>
 </g>
</svg>
