<?xml version="1.0" encoding="UTF-8"?>
<!DOCTYPE svg PUBLIC "-//W3C//DTD SVG 1.1//EN" "http://www.w3.org/Graphics/SVG/1.1/DTD/svg11.dtd">
<!-- Creator: CorelDRAW -->
<svg xmlns="http://www.w3.org/2000/svg" xml:space="preserve" width="6.82666in" height="6.82666in" style="shape-rendering:geometricPrecision; text-rendering:geometricPrecision; image-rendering:optimizeQuality; fill-rule:evenodd; clip-rule:evenodd"
viewBox="0 0 6.82666 6.82666"
 xmlns:xlink="http://www.w3.org/1999/xlink">
 <defs>
  <style type="text/css">
   <![CDATA[
    .fil0 {fill:#424242}
    .fil2 {fill:#FFFFFE}
    .fil1 {fill:#FFFFFE;fill-rule:nonzero}
   ]]>
  </style>
 </defs>
 <rect class="fil0" width="6.82666" height="6.82666"/>
 <g id="Layer_x0020_1">
  <metadata id="CorelCorpID_0Corel-Layer"/>
  <g id="_501787136">
   <path id="_501787880" class="fil1" d="M0.933331 1.77333l3.04 0 0 3.28 -3.04 0c-0.0441811,0 -0.08,-0.0358189 -0.08,-0.08l0 -3.12c0,-0.0441811 0.0358189,-0.08 0.08,-0.08zm0.333339 0.533335c0.0441811,0 0.08,-0.0358189 0.08,-0.08 0,-0.044185 -0.0358189,-0.08 -0.08,-0.08 -0.044185,0 -0.08,0.035815 -0.08,0.08 0,0.0441811 0.035815,0.08 0.08,0.08zm2.29333 -0.16c-0.0441811,0 -0.08,0.035815 -0.08,0.08 0,0.0441811 0.0358189,0.08 0.08,0.08 0.044185,0 0.08,-0.0358189 0.08,-0.08 0,-0.044185 -0.035815,-0.08 -0.08,-0.08zm0.08 2.45333c0,-0.0441811 -0.035815,-0.08 -0.08,-0.08 -0.0441811,0 -0.08,0.0358189 -0.08,0.08 0,0.044185 0.0358189,0.08 0.08,0.08 0.044185,0 0.08,-0.035815 0.08,-0.08zm-2.37333 0.08c0.0441811,0 0.08,-0.035815 0.08,-0.08 0,-0.0441811 -0.0358189,-0.08 -0.08,-0.08 -0.044185,0 -0.08,0.0358189 -0.08,0.08 0,0.044185 0.035815,0.08 0.08,0.08zm1.22667 -1.55606l0 -0.500476c0,-0.0441811 -0.0358189,-0.08 -0.08,-0.08 -0.0441811,0 -0.08,0.0358189 -0.08,0.08l0 0.500476c-0.0240276,0.00662992 -0.0468504,0.0161614 -0.0680591,0.0282087l-0.353902 -0.353902c-0.0312362,-0.0312362 -0.0818898,-0.0312362 -0.113126,0 -0.0312362,0.0312362 -0.0312362,0.0818898 0,0.113126l0.353902 0.353902c-0.0120472,0.0212087 -0.0215787,0.0440315 -0.0282087,0.0680591l-0.500476 0c-0.0441811,0 -0.08,0.0358189 -0.08,0.08 0,0.0441811 0.0358189,0.08 0.08,0.08l0.500476 0c0.00662992,0.0240276 0.0161575,0.0468504 0.0282087,0.0680591l-0.353902 0.353902c-0.0312362,0.0312362 -0.0312362,0.0818898 0,0.113126 0.0312362,0.0312362 0.0818898,0.0312362 0.113126,0l0.353902 -0.353902c0.0212087,0.0120472 0.0440315,0.0215787 0.0680591,0.0282087l0 0.500476c0,0.0441811 0.0358189,0.08 0.08,0.08 0.0441811,0 0.08,-0.0358189 0.08,-0.08l0 -0.500476c0.0240276,-0.00662992 0.0468504,-0.0161575 0.0680591,-0.0282087l0.353902 0.353902c0.0312362,0.0312362 0.0818898,0.0312362 0.113126,0 0.0312362,-0.0312362 0.0312362,-0.0818898 0,-0.113126l-0.353902 -0.353902c0.0120472,-0.0212087 0.0215787,-0.0440315 0.0282087,-0.0680591l0.500476 0c0.0441811,0 0.08,-0.0358189 0.08,-0.08 0,-0.0441811 -0.0358189,-0.08 -0.08,-0.08l-0.500476 0c-0.00662992,-0.0240276 -0.0161575,-0.0468504 -0.0282087,-0.0680591l0.353902 -0.353902c0.0312362,-0.0312362 0.0312362,-0.0818898 0,-0.113126 -0.0312362,-0.0312362 -0.0818898,-0.0312362 -0.113126,0l-0.353902 0.353902c-0.0212087,-0.0120472 -0.0440315,-0.0215787 -0.0680591,-0.0282087zm-0.786874 -0.41748c0.180898,-0.180894 0.430819,-0.292787 0.706874,-0.292787 0.276051,0 0.525976,0.111894 0.706874,0.292787 0.180894,0.180898 0.292787,0.430819 0.292787,0.706874 0,0.276055 -0.111894,0.525976 -0.292787,0.706874 -0.180898,0.180894 -0.430823,0.292787 -0.706874,0.292787 -0.276055,0 -0.525976,-0.111894 -0.706874,-0.292787 -0.180894,-0.180898 -0.292787,-0.430819 -0.292787,-0.706874 0,-0.276055 0.111894,-0.525976 0.292787,-0.706874zm1.86654 0.706874c0,-0.320224 -0.129807,-0.610142 -0.339661,-0.82 -0.209862,-0.209858 -0.49978,-0.339661 -0.82,-0.339661 -0.320224,0 -0.610142,0.129807 -0.82,0.339661 -0.209854,0.209858 -0.339661,0.499776 -0.339661,0.82 0,0.320224 0.129807,0.610142 0.339661,0.82 0.209858,0.209854 0.499776,0.339661 0.82,0.339661 0.32022,0 0.610138,-0.129803 0.82,-0.339661 0.209854,-0.209858 0.339661,-0.499776 0.339661,-0.82z"/>
   <path id="_501787664" class="fil2" d="M4.62712 4.36694l0.852417 0c0.0441811,0 0.08,0.0358189 0.08,0.08 0,0.0441811 -0.0358189,0.08 -0.08,0.08l-0.852417 0c-0.0441811,0 -0.08,-0.0358189 -0.08,-0.08 0,-0.0441811 0.0358189,-0.08 0.08,-0.08zm-0.493787 0.68639l1.76 0c0.0441811,0 0.08,-0.0358189 0.08,-0.08l0 -3.12c0,-0.0441811 -0.0358189,-0.08 -0.08,-0.08l-1.76 0 0 3.28zm1.4 -1.12419l-0.96 0 0 -0.343295c0,-0.134866 0.110343,-0.245209 0.245209,-0.245209l0.469583 0c0.134866,0 0.245209,0.110343 0.245209,0.245209l0 0.343295zm0 -1.04092l-0.96 0 0 -0.343295c0,-0.134866 0.110343,-0.245209 0.245209,-0.245209l0.469583 0c0.134866,0 0.245209,0.110343 0.245209,0.245209l0 0.343295z"/>
   <path id="_501787496" class="fil2" d="M5.16691 3.63489c0,0.044185 0.0358189,0.08 0.08,0.08 0.044185,0 0.08,-0.035815 0.08,-0.08 0,-0.0441811 -0.035815,-0.08 -0.08,-0.08 -0.0441811,0 -0.08,0.0358189 -0.08,0.08z"/>
   <path id="_501787640" class="fil2" d="M4.85976 3.71489c0.044185,0 0.08,-0.035815 0.08,-0.08 0,-0.0441811 -0.035815,-0.08 -0.08,-0.08 -0.0441811,0 -0.08,0.0358189 -0.08,0.08 0,0.044185 0.0358189,0.08 0.08,0.08z"/>
  </g>
  <rect class="fil2" x="3.83973" y="1.77333" width="0.533602" height="0.36"/>
  <rect class="fil2" x="3.83973" y="4.69333" width="0.533602" height="0.36"/>
 </g>
</svg>
