<?xml version="1.0" encoding="UTF-8"?>
<!DOCTYPE svg PUBLIC "-//W3C//DTD SVG 1.1//EN" "http://www.w3.org/Graphics/SVG/1.1/DTD/svg11.dtd">
<!-- Creator: CorelDRAW -->
<svg xmlns="http://www.w3.org/2000/svg" xml:space="preserve" width="6.82666in" height="6.82666in" style="shape-rendering:geometricPrecision; text-rendering:geometricPrecision; image-rendering:optimizeQuality; fill-rule:evenodd; clip-rule:evenodd"
viewBox="0 0 6.82666 6.82666"
 xmlns:xlink="http://www.w3.org/1999/xlink">
 <defs>
  <style type="text/css">
   <![CDATA[
    .fil0 {fill:#424242}
    .fil1 {fill:#FFFFFE}
   ]]>
  </style>
 </defs>
 <rect class="fil0" width="6.82666" height="6.82666"/>
 <g id="Layer_x0020_1">
  <metadata id="CorelCorpID_0Corel-Layer"/>
  <g id="_501792440">
   <path id="_501793112" class="fil1" d="M1.10106 0.853331l4.62454 0c0.136256,0 0.247732,0.111476 0.247732,0.247732l0 4.62454c0,0.136256 -0.111476,0.247732 -0.247732,0.247732l-4.62454 0c-0.136256,0 -0.247732,-0.111476 -0.247732,-0.247732l0 -4.62454c0,-0.136256 0.111476,-0.247732 0.247732,-0.247732zm0.298933 0.453331c0.0662717,0 0.12,0.0537283 0.12,0.12 0,0.0662717 -0.0537283,0.12 -0.12,0.12 -0.0662717,0 -0.12,-0.0537283 -0.12,-0.12 0,-0.0662717 0.0537283,-0.12 0.12,-0.12zm4.02667 0c0.0662717,0 0.12,0.0537283 0.12,0.12 0,0.0662717 -0.0537283,0.12 -0.12,0.12 -0.0662717,0 -0.12,-0.0537283 -0.12,-0.12 0,-0.0662717 0.0537283,-0.12 0.12,-0.12zm-4.02667 3.97333c0.0662717,0 0.12,0.0537283 0.12,0.12 0,0.0662717 -0.0537283,0.12 -0.12,0.12 -0.0662717,0 -0.12,-0.0537283 -0.12,-0.12 0,-0.0662717 0.0537283,-0.12 0.12,-0.12zm4.02667 0c0.0662717,0 0.12,0.0537283 0.12,0.12 0,0.0662717 -0.0537283,0.12 -0.12,0.12 -0.0662717,0 -0.12,-0.0537283 -0.12,-0.12 0,-0.0662717 0.0537283,-0.12 0.12,-0.12zm-2.01333 -4c1.17821,0 2.13333,0.955122 2.13333,2.13333 0,1.17821 -0.955122,2.13333 -2.13333,2.13333 -1.17821,0 -2.13333,-0.955122 -2.13333,-2.13333 0,-1.17821 0.955122,-2.13333 2.13333,-2.13333z"/>
   <g>
    <circle id="_501792896" class="fil1" cx="3.41333" cy="3.41333" r="0.38622"/>
    <path id="_501792296" class="fil1" d="M3.61858 3.14836c0.252004,-0.382669 0.532878,-1.21996 0.00114567,-1.48764 -0.221795,-0.111654 -0.470142,-0.0563268 -0.610996,0.0608031 -0.0462756,0.0384921 -0.0434409,0.0401693 -0.0349921,0.100476 0.0422717,0.301587 0.394594,0.619217 0.275035,1.35857 -0.0023937,0.0148228 0.328815,-0.0243504 0.369807,-0.0322126z"/>
    <path id="_501792224" class="fil1" d="M3.6783 3.61858c0.382669,0.252004 1.21996,0.532878 1.48764,0.00114567 0.111654,-0.221795 0.0563268,-0.470142 -0.0608031,-0.610996 -0.0384921,-0.0462756 -0.0401693,-0.0434409 -0.100476,-0.0349921 -0.301587,0.0422717 -0.619217,0.394594 -1.35857,0.275035 -0.0148228,-0.0023937 0.0243504,0.328815 0.0322126,0.369807z"/>
    <path id="_501792008" class="fil1" d="M3.20808 3.6783c-0.252004,0.382669 -0.532878,1.21996 -0.00114567,1.48764 0.221795,0.111654 0.470142,0.0563268 0.610996,-0.0608031 0.0462756,-0.0384921 0.0434409,-0.0401693 0.0349921,-0.100476 -0.0422717,-0.301587 -0.394594,-0.619217 -0.275035,-1.35857 0.0023937,-0.0148228 -0.328815,0.0243504 -0.369807,0.0322126z"/>
    <path id="_501791816" class="fil1" d="M3.14836 3.20808c-0.382669,-0.252004 -1.21996,-0.532878 -1.48764,-0.00114567 -0.111654,0.221795 -0.0563268,0.470142 0.0608031,0.610996 0.0384921,0.0462756 0.0401693,0.0434409 0.100476,0.0349921 0.301587,-0.0422717 0.619217,-0.394594 1.35857,-0.275035 0.0148228,0.0023937 -0.0243504,-0.328815 -0.0322126,-0.369807z"/>
   </g>
  </g>
 </g>
</svg>
