<?xml version="1.0" encoding="UTF-8"?>
<!DOCTYPE svg PUBLIC "-//W3C//DTD SVG 1.1//EN" "http://www.w3.org/Graphics/SVG/1.1/DTD/svg11.dtd">
<!-- Creator: CorelDRAW -->
<svg xmlns="http://www.w3.org/2000/svg" xml:space="preserve" width="6.82666in" height="6.82666in" style="shape-rendering:geometricPrecision; text-rendering:geometricPrecision; image-rendering:optimizeQuality; fill-rule:evenodd; clip-rule:evenodd"
viewBox="0 0 6.82666 6.82666"
 xmlns:xlink="http://www.w3.org/1999/xlink">
 <defs>
  <style type="text/css">
   <![CDATA[
    .fil0 {fill:#424242}
    .fil1 {fill:#FFFFFE}
   ]]>
  </style>
 </defs>
 <rect class="fil0" width="6.82666" height="6.82666"/>
 <g id="Layer_x0020_1">
  <metadata id="CorelCorpID_0Corel-Layer"/>
  <g id="_501795368">
   <path id="_501795512" class="fil1" d="M0.853331 2.33695l5.12 0 0 0.34661 -0.0403307 0c-0.0908386,0 -0.165157,0.0743189 -0.165157,0.165157l0 7.87402e-006c0,0.0908386 0.0743189,0.165157 0.165157,0.165157l0.0403307 0 0 0.929157 -5.12 0 0 -0.929157 0.0403346 0c0.0908386,0 0.165157,-0.0743189 0.165157,-0.165157l0 -7.87402e-006c0,-0.0908386 -0.0743189,-0.165157 -0.165157,-0.165157l-0.0403346 0 0 -0.34661zm0.633114 0.36261l0.550539 0 0 0.880862 -0.550539 0 0 -0.880862zm1.10107 0l0.550539 0 0 0.880862 -0.550539 0 0 -0.880862zm1.10108 0l0.550539 0 0 0.880862 -0.550539 0 0 -0.880862zm1.10108 0l0.550539 0 0 0.880862 -0.550539 0 0 -0.880862z"/>
   <path id="_501794816" class="fil1" d="M0.992665 3.88315l4.84133 0 0 0.606559 -0.466264 0 0 -0.335024 -0.165161 0 0 0.335024 -0.250799 0 0 -0.335024 -0.165161 0 0 0.335024 -0.250799 0 0 -0.335024 -0.165161 0 0 0.335024 -0.250799 0 0 -0.335024 -0.165161 0 0 0.335024 -0.250799 0 0 -0.335024 -0.165161 0 0 0.335024 -0.250799 0 0 -0.335024 -0.165161 0 0 0.335024 -0.250799 0 0 -0.335024 -0.165161 0 0 0.335024 -0.250799 0 0 -0.335024 -0.165161 0 0 0.335024 -0.250799 0 0 -0.335024 -0.165161 0 0 0.335024 -0.250799 0 0 -0.335024 -0.165161 0 0 0.335024 -0.46626 0 0 -0.606559zm0.204748 0.299059c0.0456102,0 0.0825827,0.0369724 0.0825827,0.0825827 0,0.0456102 -0.0369724,0.0825787 -0.0825827,0.0825787 -0.0456102,0 -0.0825787,-0.0369685 -0.0825787,-0.0825787 0,-0.0456102 0.0369685,-0.0825827 0.0825787,-0.0825827zm4.43183 0c0.0456102,0 0.0825787,0.0369724 0.0825787,0.0825827 0,0.0456102 -0.0369685,0.0825787 -0.0825787,0.0825787 -0.0456102,0 -0.0825827,-0.0369685 -0.0825827,-0.0825787 0,-0.0456102 0.0369724,-0.0825827 0.0825827,-0.0825827z"/>
  </g>
 </g>
</svg>
